<svg width="66" height="59" viewBox="0 0 66 59" fill="none" xmlns="http://www.w3.org/2000/svg">
<path d="M16.5 1.44141H61.5C62.5609 1.44141 63.5783 1.86283 64.3284 2.61298C65.0786 3.36312 65.5 4.38054 65.5 5.44141V33.4414C65.5 34.5023 65.0786 35.5197 64.3284 36.2698C63.5783 37.02 62.5609 37.4414 61.5 37.4414L53.213 38.3294C52.049 38.3294 53.213 22.3294 53.213 22.3294C53.213 22.3294 50.244 21.9364 50.244 20.8924H12.5V5.44141C12.5 4.38054 12.9214 3.36312 13.6716 2.61298C14.4217 1.86283 15.4391 1.44141 16.5 1.44141V1.44141Z" fill="#E9EBEF"/>
<path d="M44.5 27.4414H40.5C39.3954 27.4414 38.5 28.3368 38.5 29.4414V31.4414C38.5 32.546 39.3954 33.4414 40.5 33.4414H44.5C45.6046 33.4414 46.5 32.546 46.5 31.4414V29.4414C46.5 28.3368 45.6046 27.4414 44.5 27.4414Z" fill="#E9EBEF"/>
<path d="M44.8203 34.293H40.8203C40.0247 34.293 39.2616 33.9769 38.699 33.4143C38.1364 32.8517 37.8203 32.0886 37.8203 31.293V29.293C37.8203 28.4973 38.1364 27.7343 38.699 27.1716C39.2616 26.609 40.0247 26.293 40.8203 26.293H44.8203C45.616 26.293 46.379 26.609 46.9416 27.1716C47.5042 27.7343 47.8203 28.4973 47.8203 29.293V31.293C47.8203 32.0886 47.5042 32.8517 46.9416 33.4143C46.379 33.9769 45.616 34.293 44.8203 34.293ZM40.8203 28.293C40.5551 28.293 40.3007 28.3983 40.1132 28.5859C39.9257 28.7734 39.8203 29.0278 39.8203 29.293V31.293C39.8203 31.5582 39.9257 31.8125 40.1132 32.0001C40.3007 32.1876 40.5551 32.293 40.8203 32.293H44.8203C45.0855 32.293 45.3399 32.1876 45.5274 32.0001C45.715 31.8125 45.8203 31.5582 45.8203 31.293V29.293C45.8203 29.0278 45.715 28.7734 45.5274 28.5859C45.3399 28.3983 45.0855 28.293 44.8203 28.293H40.8203Z" fill="#2533CC"/>
<path d="M33 50.8945H8C7.73478 50.8945 7.48043 50.7892 7.29289 50.6016C7.10536 50.4141 7 50.1597 7 49.8945C7 49.6293 7.10536 49.375 7.29289 49.1874C7.48043 48.9999 7.73478 48.8945 8 48.8945H33C33.2652 48.8945 33.5196 48.9999 33.7071 49.1874C33.8946 49.375 34 49.6293 34 49.8945C34 50.1597 33.8946 50.4141 33.7071 50.6016C33.5196 50.7892 33.2652 50.8945 33 50.8945Z" fill="#2533CC"/>
<path d="M23 45.9238H8C7.73478 45.9238 7.48043 45.8185 7.29289 45.6309C7.10536 45.4434 7 45.189 7 44.9238C7 44.6586 7.10536 44.4043 7.29289 44.2167C7.48043 44.0292 7.73478 43.9238 8 43.9238H23C23.2652 43.9238 23.5196 44.0292 23.7071 44.2167C23.8946 44.4043 24 44.6586 24 44.9238C24 45.189 23.8946 45.4434 23.7071 45.6309C23.5196 45.8185 23.2652 45.9238 23 45.9238Z" fill="#2533CC"/>
<path d="M61.057 0H15.639C14.4917 0 13.3913 0.455774 12.5801 1.26706C11.7688 2.07834 11.313 3.17867 11.313 4.326V19.465H4.826C3.67885 19.465 2.57866 19.9206 1.76741 20.7317C0.956156 21.5428 0.500265 22.6428 0.5 23.79V54.069C0.5 55.2163 0.955774 56.3167 1.76706 57.1279C2.57834 57.9392 3.67867 58.395 4.826 58.395H50.243C51.3903 58.395 52.4907 57.9392 53.3019 57.1279C54.1132 56.3167 54.569 55.2163 54.569 54.069V38.93H61.057C61.6254 38.93 62.1883 38.818 62.7134 38.6003C63.2385 38.3827 63.7156 38.0637 64.1174 37.6615C64.5191 37.2594 64.8377 36.782 65.0549 36.2567C65.272 35.7314 65.3835 35.1684 65.383 34.6V4.326C65.383 3.17867 64.9272 2.07834 64.1159 1.26706C63.3047 0.455774 62.2043 0 61.057 0ZM15.639 2.163H61.057C61.6307 2.163 62.1808 2.39089 62.5865 2.79653C62.9921 3.20217 63.22 3.75234 63.22 4.326V7.026H13.477V4.326C13.477 3.75251 13.7047 3.20249 14.1102 2.79688C14.5156 2.39127 15.0655 2.16327 15.639 2.163ZM52.406 54.069C52.406 54.6427 52.1781 55.1928 51.7725 55.5985C51.3668 56.0041 50.8167 56.232 50.243 56.232H4.826C4.25234 56.232 3.70217 56.0041 3.29653 55.5985C2.89089 55.1928 2.663 54.6427 2.663 54.069V23.79C2.663 23.2163 2.89089 22.6662 3.29653 22.2605C3.70217 21.8549 4.25234 21.627 4.826 21.627H50.243C50.8167 21.627 51.3668 21.8549 51.7725 22.2605C52.1781 22.6662 52.406 23.2163 52.406 23.79V54.069ZM61.057 36.769H54.569V23.79C54.569 22.6427 54.1132 21.5423 53.3019 20.7311C52.4907 19.9198 51.3903 19.464 50.243 19.464H13.477V15.68H22.128C22.4148 15.68 22.6899 15.5661 22.8927 15.3632C23.0956 15.1604 23.2095 14.8853 23.2095 14.5985C23.2095 14.3117 23.0956 14.0366 22.8927 13.8338C22.6899 13.6309 22.4148 13.517 22.128 13.517H13.477V9.192H63.22V13.518H30.779C30.4922 13.518 30.2171 13.6319 30.0143 13.8348C29.8114 14.0376 29.6975 14.3127 29.6975 14.5995C29.6975 14.8863 29.8114 15.1614 30.0143 15.3642C30.2171 15.5671 30.4922 15.681 30.779 15.681H63.22V34.6C63.2205 34.8844 63.165 35.1661 63.0565 35.429C62.948 35.6919 62.7888 35.9308 62.5879 36.1321C62.387 36.3333 62.1484 36.493 61.8857 36.602C61.623 36.7109 61.3414 36.767 61.057 36.767V36.769Z" fill="#2533CC"/>
</svg>
