<svg width="64" height="63" viewBox="0 0 64 63" fill="none" xmlns="http://www.w3.org/2000/svg">
<path d="M9.56416 31.2952L2.28516 25.1102L10.8102 18.1172L9.56416 31.2952Z" fill="#E9EBEF"/>
<path d="M52.7715 31.2945L53.2505 18.0215L61.5845 24.8215L52.7715 31.2945Z" fill="#E9EBEF"/>
<path d="M22.7852 7.48334L31.4082 0.777344L41.1802 7.48334H22.7852Z" fill="#E9EBEF"/>
<path d="M1.62508 61.5044C2.32801 62.1961 3.27392 62.5848 4.26008 62.5874H59.3741C60.3679 62.5858 61.3205 62.1903 62.0233 61.4876C62.726 60.7849 63.1215 59.8322 63.1231 58.8384C63.1231 58.7124 63.1291 24.9224 63.1231 25.0494C63.1231 25.0494 63.1231 25.0494 63.1231 25.0434V25.0124C63.1231 24.0124 62.5741 24.1124 54.1301 16.8614V7.57641C54.1301 7.24436 53.9982 6.92591 53.7634 6.69111C53.5286 6.45632 53.2101 6.32441 52.8781 6.32441H41.6111L35.5361 1.22441C34.4424 0.422952 33.1197 -0.00495999 31.7638 0.00404553C30.4079 0.0130511 29.091 0.458495 28.0081 1.27441L22.0081 6.32841H10.7521C10.4204 6.32788 10.102 6.459 9.8669 6.69299C9.63178 6.92698 9.49914 7.2447 9.49808 7.57641V16.8524L0.950075 24.0524C0.939075 24.0614 0.935075 24.0764 0.924075 24.0864C0.791309 24.2016 0.684636 24.3438 0.611176 24.5035C0.537716 24.6631 0.499158 24.8366 0.498075 25.0124V58.8404C0.496131 59.3373 0.594903 59.8295 0.788431 60.2872C0.981958 60.7449 1.26623 61.1586 1.62407 61.5034L1.62508 61.5044ZM4.78008 60.0834L21.8091 42.9274C22.615 42.1407 23.6919 41.6929 24.8181 41.6764H38.8181C39.9475 41.6909 41.0275 42.1417 41.8321 42.9344L58.8571 60.0834H4.78008ZM54.1301 20.1364L59.8521 24.9494L54.1301 29.1834V20.1364ZM60.6181 27.5004V58.3004L43.6181 41.1764C43.4236 40.9776 43.2165 40.7915 42.9981 40.6194C42.9841 40.6084 42.9711 40.5944 42.9571 40.5824L43.0251 40.5324L43.0621 40.5044L43.0351 40.5244L43.1231 40.4594L43.0801 40.4914L43.1661 40.4274L43.2371 40.3754L60.6181 27.5004ZM43.1871 40.4094L43.2271 40.3794L43.1871 40.4094ZM29.5601 3.23541C30.2048 2.77819 30.9736 2.52829 31.764 2.519C32.5543 2.50971 33.3288 2.74147 33.9841 3.18341L37.7161 6.32041H25.8981L29.5601 3.23541ZM12.0051 8.82941H51.6251V31.0414L40.3861 39.3614C39.8688 39.2466 39.3417 39.182 38.8121 39.1684H24.8201C24.2922 39.1831 23.7669 39.2473 23.2511 39.3604L12.0051 31.0364C12.0051 26.4684 12.0051 16.1754 12.0051 8.82941ZM9.49808 20.1284V29.1834L3.78008 24.9474L9.49808 20.1284ZM3.00507 27.4954L20.3981 40.3764L20.5251 40.4704L20.5551 40.4924L20.5381 40.4834L20.5631 40.5024L20.6681 40.5804L20.6791 40.5884C20.6671 40.5974 20.6571 40.6094 20.6451 40.6184C20.4261 40.7896 20.2183 40.9746 20.0231 41.1724L3.00507 58.3164V27.4954ZM20.4041 40.3834L20.4541 40.4204L20.4041 40.3834Z" fill="#2533CC"/>
</svg>
