<svg width="64" height="63" viewBox="0 0 64 63" fill="none" xmlns="http://www.w3.org/2000/svg">
<path d="M13.1093 30.4752C11.7218 30.5133 10.3763 30.9597 9.24117 31.7584C8.106 32.5572 7.23149 33.6728 6.72698 34.9659C6.22247 36.259 6.11035 37.6721 6.40464 39.0286C6.69893 40.385 7.38657 41.6246 8.38157 42.5924C9.37658 43.5601 10.6348 44.2131 11.9989 44.4696C13.363 44.7261 14.7725 44.5748 16.051 44.0345C17.3296 43.4943 18.4205 42.5891 19.1874 41.4322C19.9543 40.2753 20.3632 38.918 20.3628 37.53C20.3335 35.6335 19.5536 33.826 18.1939 32.5036C16.8343 31.1812 15.0058 30.4518 13.1093 30.4752ZM13.1093 42.2789C12.176 42.2531 11.2711 41.9528 10.5077 41.4155C9.74418 40.8782 9.15599 40.1279 8.81662 39.2582C8.47724 38.3885 8.40174 37.438 8.59954 36.5256C8.79734 35.6133 9.25968 34.7794 9.92876 34.1284C10.5978 33.4773 11.444 33.0379 12.3614 32.865C13.2788 32.6922 14.2269 32.7936 15.087 33.1566C15.9471 33.5195 16.6811 34.128 17.1974 34.9058C17.7136 35.6837 17.9891 36.5964 17.9895 37.53C17.9706 38.8064 17.4461 40.0232 16.5313 40.9135C15.6164 41.8037 14.3857 42.2948 13.1093 42.2789Z" fill="#2533CC"/>
<path d="M24.6083 46.2256L24.1716 47.401C23.7866 46.9988 23.3241 46.6787 22.812 46.4601C22.2999 46.2414 21.7488 46.1288 21.192 46.129H6.84545C6.00866 46.1227 5.19018 46.374 4.5011 46.8487C3.81201 47.3235 3.28569 47.9988 2.99357 48.783L0.292432 56.2622C0.277972 56.304 0.273821 56.3488 0.280332 56.3925C0.286842 56.4363 0.303822 56.4779 0.329829 56.5137C0.355836 56.5495 0.390102 56.5785 0.429718 56.5983C0.469333 56.618 0.513127 56.6279 0.557382 56.6271H2.49062C2.54432 56.6274 2.59684 56.6113 2.64103 56.5807C2.68521 56.5502 2.71893 56.5068 2.7376 56.4564L5.23217 49.5498C5.35415 49.2217 5.57423 48.9391 5.86247 48.7404C6.15071 48.5417 6.49314 48.4367 6.8432 48.4395H21.1909C21.5432 48.4368 21.8876 48.5433 22.1769 48.7444C22.4661 48.9454 22.6861 49.2311 22.8064 49.5621L23.0803 50.339L20.7935 55.8053L19.261 55.9872H12.5778C12.36 55.9842 12.15 56.0677 11.9938 56.2195C11.8376 56.3713 11.748 56.5788 11.7448 56.7966V57.4859C11.748 57.7037 11.8376 57.9113 11.9938 58.063C12.15 58.2148 12.36 58.2984 12.5778 58.2954H22.6515L26.2766 48.5282H45.7627L40.1775 60.0669H0.00390625V62.3763H50.5509V60.0669H42.8045L49.5091 46.2256H24.6083Z" fill="#2533CC"/>
<path d="M7.34371 56.6206C7.39923 56.6211 7.45348 56.6039 7.49866 56.5717C7.54384 56.5394 7.57763 56.4936 7.59519 56.441L8.43832 53.7769C8.48767 53.6141 8.50053 53.4425 8.47598 53.2742C8.45142 53.106 8.39005 52.9452 8.29624 52.8033C8.20243 52.6615 8.07849 52.5421 7.93325 52.4536C7.78801 52.3652 7.62505 52.3098 7.45598 52.2916C7.17135 52.2624 6.88544 52.3331 6.6471 52.4913C6.40875 52.6496 6.23276 52.8858 6.14919 53.1594L5.16462 56.2726C5.14832 56.3135 5.14288 56.358 5.14882 56.4017C5.15477 56.4454 5.17189 56.4868 5.19855 56.5219C5.2252 56.557 5.26047 56.5847 5.30095 56.6022C5.34142 56.6196 5.38572 56.6264 5.42956 56.6217H7.34484L7.34371 56.6206Z" fill="#2533CC"/>
<path d="M27.6466 1.31483H55.756C57.6688 1.29537 59.511 2.03639 60.8775 3.37494C62.2441 4.71348 63.0231 6.53996 63.0432 8.45275V26.8084C63.0231 28.7212 62.2441 30.5476 60.8775 31.8862C59.511 33.2247 57.6688 33.9658 55.756 33.9463H40.7291L35.7175 40.4656L30.5263 33.9463H27.6466C25.7338 33.9658 23.8916 33.2247 22.5251 31.8862C21.1585 30.5476 20.3795 28.7212 20.3594 26.8084V8.45275C20.3795 6.53996 21.1585 4.71348 22.5251 3.37494C23.8916 2.03639 25.7338 1.29537 27.6466 1.31483Z" fill="#E9EBEF"/>
<path d="M57.2292 0.625629H26.9935C25.2224 0.601342 23.5142 1.28147 22.2444 2.51644C20.9747 3.75142 20.2475 5.44012 20.2227 7.2112V26.8747C20.2475 28.6459 20.9747 30.3347 22.2444 31.5699C23.5141 32.805 25.2223 33.4854 26.9935 33.4614H29.8147L36.1679 40.3288C36.2087 40.3723 36.2581 40.4068 36.313 40.43C36.368 40.4533 36.4271 40.4648 36.4867 40.4639C36.5464 40.4629 36.6051 40.4495 36.6593 40.4245C36.7134 40.3995 36.7617 40.3635 36.8011 40.3187L37.368 39.6642C37.3972 39.6294 40.2589 36.3287 43.0061 33.4625H57.2292C59.0002 33.4868 60.7085 32.8067 61.9782 31.5717C63.2479 30.3368 63.9751 28.6481 64 26.877V7.21232C63.9754 5.44105 63.2483 3.75206 61.9786 2.51684C60.7088 1.28162 59.0004 0.601343 57.2292 0.625629ZM61.6267 26.8759C61.6107 28.0262 61.1384 29.1231 60.3137 29.9252C59.4891 30.7274 58.3795 31.1691 57.2292 31.1532H41.98L41.6297 31.5158C39.8334 33.3739 37.935 35.48 36.7483 36.8171C36.7083 36.8607 36.6596 36.8955 36.6054 36.9193C36.5512 36.9431 36.4926 36.9553 36.4334 36.9553C36.3742 36.9553 36.3157 36.9431 36.2615 36.9193C36.2073 36.8955 36.1586 36.8607 36.1185 36.8171L30.8723 31.1487H26.9935C25.8434 31.1646 24.7342 30.723 23.9097 29.9211C23.0852 29.1191 22.6131 28.0225 22.5971 26.8725V7.21344C22.6134 6.06319 23.0857 4.96648 23.9103 4.16439C24.735 3.3623 25.8443 2.92049 26.9946 2.93608H57.2292C58.3794 2.92049 59.4888 3.3623 60.3134 4.16439C61.138 4.96648 61.6104 6.06319 61.6267 7.21344V26.8759Z" fill="#2533CC"/>
</svg>
