<svg width="64" height="64" viewBox="0 0 64 64" fill="none" xmlns="http://www.w3.org/2000/svg">
<path d="M6.70091 44.9102C6.43964 44.91 6.18418 44.9872 5.96683 45.1322C5.74948 45.2772 5.58001 45.4834 5.47985 45.7247C5.37968 45.966 5.35332 46.2316 5.40409 46.4879C5.45487 46.7442 5.58051 46.9797 5.76512 47.1645C5.94972 47.3494 6.185 47.4754 6.44121 47.5266C6.69742 47.5777 6.96305 47.5518 7.20451 47.452C7.44597 47.3522 7.65241 47.183 7.79773 46.9659C7.94304 46.7488 8.02071 46.4934 8.02091 46.2321C8.02091 45.8819 7.8819 45.5459 7.63441 45.2981C7.38692 45.0502 7.05118 44.9107 6.70091 44.9102Z" fill="#2533CC"/>
<path d="M8.0249 56.7957C8.0249 57.0573 7.94731 57.3131 7.80194 57.5307C7.65657 57.7483 7.44995 57.9178 7.2082 58.0179C6.96645 58.1181 6.70044 58.1443 6.4438 58.0932C6.18717 58.0422 5.95143 57.9162 5.7664 57.7312C5.58138 57.5461 5.45538 57.3104 5.40433 57.0538C5.35328 56.7971 5.37948 56.5311 5.47961 56.2894C5.57975 56.0476 5.74932 55.841 5.96689 55.6956C6.18446 55.5502 6.44024 55.4727 6.7019 55.4727C6.87575 55.4723 7.04797 55.5062 7.20866 55.5726C7.36936 55.6389 7.51536 55.7364 7.63829 55.8593C7.76122 55.9822 7.85866 56.1282 7.925 56.2889C7.99135 56.4496 8.0253 56.6218 8.0249 56.7957Z" fill="#2533CC"/>
<path d="M11.9879 36.9859C12.1622 36.9856 12.3347 36.951 12.4956 36.8839C12.6564 36.8168 12.8024 36.7186 12.9253 36.5949C13.0481 36.4713 13.1453 36.3246 13.2113 36.1633C13.2773 36.0019 13.3108 35.8292 13.3099 35.6549V22.4469C13.3112 21.3965 13.729 20.3895 14.4718 19.6468C15.2145 18.9041 16.2215 18.4862 17.2719 18.4849H27.2909L26.9049 18.8709C26.6627 19.1198 26.5283 19.4539 26.5307 19.8011C26.5331 20.1483 26.6721 20.4806 26.9176 20.7262C27.1631 20.9717 27.4954 21.1107 27.8426 21.113C28.1898 21.1154 28.524 20.981 28.7729 20.7389L31.4059 18.1049C31.4319 18.0789 31.4599 18.0489 31.4859 18.0209C31.6524 17.822 31.7567 17.5786 31.7859 17.3209C31.7936 17.2435 31.7952 17.1656 31.7909 17.0879C31.7709 16.769 31.6367 16.4679 31.4129 16.2399L28.7709 13.5979C28.5208 13.3604 28.1879 13.23 27.8431 13.2345C27.4982 13.239 27.1688 13.3781 26.9251 13.6221C26.6813 13.8661 26.5426 14.1956 26.5385 14.5405C26.5343 14.8853 26.6651 15.2181 26.9029 15.4679L27.2889 15.8539H17.2719C15.5226 15.8576 13.846 16.5541 12.6091 17.7911C11.3721 19.028 10.6756 20.7046 10.6719 22.4539V35.6659C10.6721 36.0152 10.8107 36.3502 11.0574 36.5976C11.304 36.845 11.6386 36.9846 11.9879 36.9859Z" fill="#2533CC"/>
<path d="M42.371 56.7966C42.3714 56.9705 42.3375 57.1427 42.2711 57.3034C42.2048 57.4641 42.1074 57.6101 41.9844 57.733C41.8615 57.8559 41.7155 57.9534 41.5548 58.0197C41.3941 58.0861 41.2219 58.12 41.048 58.1196H30.478C30.1336 58.1101 29.8064 57.9667 29.5661 57.7197C29.3259 57.4727 29.1914 57.1417 29.1914 56.7971C29.1914 56.4525 29.3259 56.1216 29.5661 55.8746C29.8064 55.6276 30.1336 55.4841 30.478 55.4746H41.048C41.2218 55.4742 41.3939 55.5082 41.5546 55.5744C41.7152 55.6407 41.8612 55.738 41.9841 55.8609C42.107 55.9837 42.2045 56.1296 42.2709 56.2902C42.3373 56.4507 42.3713 56.6228 42.371 56.7966Z" fill="#2533CC"/>
<path d="M59.5367 31.7109C59.1867 31.7112 58.8511 31.8504 58.6036 32.0979C58.3561 32.3453 58.2169 32.6809 58.2167 33.0309V48.8799C58.2164 49.2299 58.0772 49.5655 57.8298 49.813C57.5823 50.0605 57.2467 50.1997 56.8967 50.2H54.7967L55.1827 49.8149C55.3108 49.6936 55.4133 49.5478 55.4842 49.3862C55.555 49.2246 55.5928 49.0504 55.5952 48.8739C55.5976 48.6975 55.5646 48.5223 55.4983 48.3588C55.4319 48.1953 55.3334 48.0468 55.2086 47.922C55.0839 47.7972 54.9354 47.6986 54.7719 47.6321C54.6085 47.5657 54.4333 47.5326 54.2569 47.5349C54.0804 47.5373 53.9062 47.5749 53.7446 47.6457C53.5829 47.7164 53.4371 47.8189 53.3157 47.9469L50.6817 50.5799C50.6557 50.6059 50.6297 50.636 50.6027 50.6649C50.4356 50.8634 50.3311 51.107 50.3027 51.3649C50.2944 51.442 50.2928 51.5196 50.2977 51.5969C50.3172 51.916 50.4514 52.2172 50.6757 52.4449L53.3177 55.0869C53.5661 55.334 53.9023 55.4728 54.2527 55.4729C54.4252 55.4758 54.5965 55.444 54.7566 55.3796C54.9166 55.3152 55.0622 55.2195 55.1847 55.0979C55.4317 54.8495 55.5704 54.5133 55.5704 54.1629C55.5704 53.8125 55.4317 53.4764 55.1847 53.2279L54.7987 52.842H56.8987C57.949 52.8406 58.956 52.4228 59.6988 51.68C60.4415 50.9373 60.8593 49.9303 60.8607 48.8799V33.0339C60.8608 32.8601 60.8266 32.6879 60.7601 32.5273C60.6936 32.3666 60.5961 32.2207 60.4731 32.0978C60.3501 31.9749 60.2041 31.8775 60.0434 31.8111C59.8827 31.7447 59.7105 31.7107 59.5367 31.7109Z" fill="#2533CC"/>
<path d="M48.9765 8.60282e-07C46.1019 -0.000988023 43.2916 0.850575 40.901 2.44699C38.5105 4.04341 36.6471 6.31296 35.5466 8.96854C34.4461 11.6241 34.1579 14.5464 34.7184 17.3658C35.279 20.1852 36.6631 22.775 38.6958 24.8077C40.7284 26.8403 43.3182 28.2244 46.1376 28.785C48.957 29.3456 51.8793 29.0574 54.5349 27.9568C57.1905 26.8563 59.46 24.993 61.0565 22.6024C62.6529 20.2119 63.5044 17.4016 63.5034 14.527C63.4997 10.6753 61.968 6.98248 59.2445 4.25894C56.521 1.5354 52.8281 0.00370744 48.9765 8.60282e-07ZM59.9944 10.133C58.408 9.3691 56.7264 8.82123 54.9944 8.504C54.6823 6.77077 54.1342 5.08847 53.3654 3.504C54.8607 4.10352 56.2189 5.00008 57.3578 6.13948C58.4967 7.27888 59.3926 8.63744 59.9915 10.133H59.9944ZM48.9765 2.64499C50.0365 2.64499 51.4035 4.667 52.2225 8.099C50.0644 7.86581 47.8875 7.86581 45.7294 8.099C46.5464 4.667 47.9135 2.64499 48.9765 2.64499ZM37.0764 14.527C37.0764 13.467 39.1095 12.111 42.5305 11.281C42.4213 12.3596 42.3666 13.4429 42.3665 14.527C42.366 15.6111 42.4208 16.6945 42.5305 17.773C39.1135 16.953 37.0764 15.598 37.0764 14.527ZM37.9505 18.932C39.5362 19.6975 41.2181 20.2455 42.9505 20.561C43.2591 22.2937 43.8035 23.9759 44.5684 25.561C43.076 24.9592 41.7208 24.0617 40.5843 22.9225C39.4478 21.7833 38.5536 20.4259 37.9555 18.932H37.9505ZM42.9505 8.504C41.2181 8.81953 39.5362 9.36748 37.9505 10.133C38.55 8.63855 39.4462 7.28116 40.5851 6.14282C41.7239 5.00449 43.0817 4.10884 44.5764 3.51C43.8044 5.09078 43.2571 6.77171 42.9505 8.504ZM48.9734 26.419C47.9134 26.419 46.5464 24.397 45.7274 20.965C47.8855 21.1982 50.0624 21.1982 52.2205 20.965C51.3995 24.397 50.0335 26.419 48.9765 26.419H48.9734ZM52.6895 18.254C50.2222 18.5746 47.7237 18.5746 45.2565 18.254C44.9212 15.784 44.9212 13.28 45.2565 10.81C47.7237 10.4894 50.2222 10.4894 52.6895 10.81C53.0101 13.281 53.0101 15.783 52.6895 18.254ZM53.3674 25.554C54.1362 23.9695 54.6843 22.2872 54.9965 20.554C56.7284 20.2368 58.41 19.6889 59.9965 18.925C59.3975 20.4212 58.5012 21.7803 57.3618 22.9201C56.2223 24.0599 54.8635 24.9566 53.3674 25.556V25.554ZM55.4115 17.771C55.5115 16.7 55.5755 15.618 55.5755 14.525C55.5755 13.432 55.5095 12.361 55.4115 11.279C58.8325 12.11 60.8544 13.465 60.8544 14.525C60.8544 15.585 58.8325 16.953 55.4115 17.773V17.771Z" fill="#2533CC"/>
<path d="M44.5681 25.5556C43.0761 24.9545 41.7212 24.0577 40.5847 22.9194C39.4482 21.781 38.5538 20.4246 37.9551 18.9316C39.5408 19.6972 41.2227 20.2451 42.9551 20.5606C43.2626 22.2914 43.8053 23.9719 44.5681 25.5556Z" fill="#E9EBEF"/>
<path d="M52.2186 20.9648C51.3986 24.3968 50.0326 26.4188 48.9726 26.4188C47.9126 26.4188 46.5456 24.3968 45.7266 20.9648C47.8846 21.1981 50.0615 21.1981 52.2196 20.9648H52.2186Z" fill="#E9EBEF"/>
<path d="M59.9873 18.9316C59.3881 20.4261 58.4922 21.7836 57.3537 22.9221C56.2152 24.0606 54.8577 24.9565 53.3633 25.5556C54.132 23.9712 54.6801 22.2889 54.9923 20.5556C56.7223 20.2396 58.4022 19.6934 59.9873 18.9316Z" fill="#E9EBEF"/>
<path d="M60.8532 14.5253C60.8532 15.5963 58.8312 16.9523 55.4102 17.7713C55.5102 16.7003 55.5742 15.6183 55.5742 14.5253C55.5742 13.4323 55.5082 12.3613 55.4102 11.2793C58.8312 12.1103 60.8532 13.4693 60.8532 14.5253Z" fill="#E9EBEF"/>
<path d="M59.9864 10.1329C58.4 9.36901 56.7184 8.82114 54.9864 8.50391C54.6743 6.77068 54.1262 5.08838 53.3574 3.50391C54.8533 4.10309 56.212 4.9995 57.3514 6.13892C58.4908 7.27833 59.3872 8.63707 59.9864 10.1329Z" fill="#E9EBEF"/>
<path d="M52.2176 8.09853C50.0596 7.86534 47.8827 7.86534 45.7246 8.09853C46.5446 4.66653 47.9106 2.64453 48.9706 2.64453C50.0306 2.64453 51.3976 4.66653 52.2176 8.09853Z" fill="#E9EBEF"/>
<path d="M44.5743 3.50977C43.8008 5.09229 43.2524 6.77527 42.9453 8.50977C41.2129 8.8253 39.5311 9.37325 37.9453 10.1388C38.5445 8.64293 39.4409 7.28421 40.5803 6.14479C41.7198 5.00537 43.0785 4.10895 44.5743 3.50977Z" fill="#E9EBEF"/>
<path d="M42.3701 14.5253C42.3697 15.6094 42.4244 16.6928 42.5341 17.7713C39.1131 16.9513 37.0801 15.5963 37.0801 14.5253C37.0801 13.4543 39.1131 12.1093 42.5341 11.2793C42.425 12.3579 42.3702 13.4412 42.3701 14.5253Z" fill="#E9EBEF"/>
<path d="M52.9303 14.5278C52.9275 15.7739 52.8474 17.0186 52.6903 18.2548C50.223 18.5754 47.7246 18.5754 45.2573 18.2548C44.9221 15.7848 44.9221 13.2808 45.2573 10.8108C47.7246 10.4902 50.223 10.4902 52.6903 10.8108C52.8471 12.0436 52.9272 13.285 52.9303 14.5278Z" fill="#E9EBEF"/>
<path d="M47.6516 43.591C47.6505 42.5409 47.2336 41.5339 46.4921 40.7903C45.7505 40.0467 44.7447 39.627 43.6946 39.623H4.06956C3.01775 39.6249 2.00955 40.0435 1.26581 40.7873C0.522065 41.531 0.103413 42.5392 0.101562 43.591V48.87C0.103054 49.8487 0.469212 50.7918 1.12856 51.515C0.469431 52.234 0.103092 53.1736 0.101562 54.149V59.439C0.103682 60.4898 0.522769 61.4967 1.26677 62.2386C2.01077 62.9805 3.01885 63.3968 4.06956 63.396H43.6936C44.7425 63.3945 45.7481 62.977 46.4898 62.2353C47.2316 61.4936 47.649 60.488 47.6506 59.439V54.149C47.649 53.1736 47.2827 52.234 46.6236 51.515C47.2829 50.7918 47.6491 49.8487 47.6506 48.87L47.6516 43.591ZM45.0066 59.44C45.0079 59.7894 44.8704 60.125 44.6244 60.3731C44.3784 60.6212 44.0439 60.7615 43.6946 60.763H4.06956C3.89614 60.7628 3.72446 60.7283 3.56435 60.6617C3.40423 60.5951 3.25881 60.4975 3.13641 60.3746C3.01401 60.2518 2.91702 60.106 2.85099 59.9456C2.78496 59.7853 2.75117 59.6135 2.75156 59.44V54.15C2.75315 53.8007 2.8934 53.4662 3.14148 53.2202C3.38956 52.9741 3.72518 52.8367 4.07456 52.838H43.6986C44.0462 52.8391 44.3793 52.9777 44.6251 53.2235C44.8709 53.4693 45.0095 53.8024 45.0106 54.15L45.0066 59.44ZM45.0066 48.87C45.0079 49.2194 44.8704 49.555 44.6244 49.8031C44.3784 50.0512 44.0439 50.1915 43.6946 50.193H4.06956C3.89614 50.1928 3.72446 50.1583 3.56435 50.0917C3.40423 50.025 3.25881 49.9275 3.13641 49.8047C3.01401 49.6818 2.91702 49.536 2.85099 49.3756C2.78496 49.2153 2.75117 49.0435 2.75156 48.87V43.591C2.75117 43.4172 2.78512 43.245 2.85146 43.0843C2.91781 42.9236 3.01525 42.7776 3.13818 42.6547C3.26111 42.5317 3.40711 42.4343 3.5678 42.368C3.72849 42.3016 3.90071 42.2676 4.07456 42.268H43.6986C44.048 42.2696 44.3824 42.4099 44.6284 42.658C44.8744 42.906 45.0119 43.2417 45.0106 43.591L45.0066 48.87Z" fill="#2533CC"/>
<path d="M43.6921 52.8399H4.0691C3.71972 52.8385 3.3841 52.976 3.13602 53.222C2.88794 53.468 2.74769 53.8025 2.7461 54.1519V59.4419C2.7457 59.6157 2.77966 59.7879 2.846 59.9486C2.91235 60.1093 3.00979 60.2553 3.13272 60.3782C3.25565 60.5012 3.40165 60.5986 3.56234 60.665C3.72304 60.7313 3.89525 60.7653 4.0691 60.7649H43.6931C44.0425 60.7633 44.3769 60.623 44.623 60.3749C44.869 60.1269 45.0064 59.7913 45.0051 59.4419V54.1519C45.0041 53.8041 44.8653 53.4708 44.6193 53.225C44.3733 52.9791 44.0399 52.8406 43.6921 52.8399ZM6.7031 58.1199C6.44143 58.1199 6.18565 58.0423 5.96808 57.8969C5.75052 57.7515 5.58094 57.5449 5.48081 57.3032C5.38067 57.0614 5.35447 56.7954 5.40552 56.5388C5.45657 56.2821 5.58257 56.0464 5.7676 55.8614C5.95262 55.6763 6.18836 55.5503 6.445 55.4993C6.70163 55.4482 6.96765 55.4744 7.20939 55.5746C7.45114 55.6747 7.65776 55.8443 7.80313 56.0618C7.94851 56.2794 8.0261 56.5352 8.0261 56.7969C8.02505 57.1474 7.88532 57.4833 7.63744 57.7312C7.38956 57.9791 7.05365 58.1188 6.7031 58.1199ZM41.0471 58.1199H30.4761C30.1316 58.1104 29.8045 57.9669 29.5642 57.7199C29.3239 57.4729 29.1895 57.142 29.1895 56.7974C29.1895 56.4528 29.3239 56.1218 29.5642 55.8748C29.8045 55.6278 30.1316 55.4843 30.4761 55.4749H41.0461C41.2228 55.47 41.3988 55.5006 41.5635 55.5649C41.7282 55.6292 41.8783 55.7258 42.005 55.8491C42.1318 55.9724 42.2325 56.1198 42.3013 56.2827C42.37 56.4456 42.4055 56.6206 42.4055 56.7974C42.4055 56.9742 42.37 57.1492 42.3013 57.3121C42.2325 57.4749 42.1318 57.6224 42.005 57.7456C41.8783 57.8689 41.7282 57.9655 41.5635 58.0298C41.3988 58.0941 41.2228 58.1247 41.0461 58.1199H41.0471Z" fill="#E9EBEF"/>
<path d="M41.0462 44.9102H30.4792C30.1289 44.9102 29.7929 45.0493 29.5451 45.2971C29.2974 45.5448 29.1582 45.8808 29.1582 46.2312C29.1582 46.5815 29.2974 46.9175 29.5451 47.1652C29.7929 47.413 30.1289 47.5522 30.4792 47.5522H41.0462C41.3966 47.5522 41.7325 47.413 41.9803 47.1652C42.228 46.9175 42.3672 46.5815 42.3672 46.2312C42.3672 45.8808 42.228 45.5448 41.9803 45.2971C41.7325 45.0493 41.3966 44.9102 41.0462 44.9102Z" fill="#2533CC"/>
</svg>
