<svg width="60" height="60" viewBox="0 0 60 60" fill="none" xmlns="http://www.w3.org/2000/svg">
<path d="M30.261 50.2473C27.652 49.6883 18.392 43.6213 17.275 37.7943C16.158 31.9673 16.875 23.8243 16.875 23.8243L30.261 18.2363L43.617 23.8243C43.617 23.8243 43.856 38.0333 43.617 38.6723C43.378 39.3113 41.303 44.9793 30.261 50.2473Z" fill="#E9EBEF"/>
<path d="M6.47683 6.90678C6.98935 6.90678 7.40483 6.4913 7.40483 5.97878C7.40483 5.46626 6.98935 5.05078 6.47683 5.05078C5.96431 5.05078 5.54883 5.46626 5.54883 5.97878C5.54883 6.4913 5.96431 6.90678 6.47683 6.90678Z" fill="#2533CC"/>
<path d="M9.72598 6.90678C10.4948 6.90678 11.118 6.4913 11.118 5.97878C11.118 5.46626 10.4948 5.05078 9.72598 5.05078C8.9572 5.05078 8.33398 5.46626 8.33398 5.97878C8.33398 6.4913 8.9572 6.90678 9.72598 6.90678Z" fill="#2533CC"/>
<path d="M14.3647 6.90678C15.1334 6.90678 15.7567 6.4913 15.7567 5.97878C15.7567 5.46626 15.1334 5.05078 14.3647 5.05078C13.5959 5.05078 12.9727 5.46626 12.9727 5.97878C12.9727 6.4913 13.5959 6.90678 14.3647 6.90678Z" fill="#2533CC"/>
<path d="M30.2512 50.8242C30.4256 50.8242 30.598 50.7874 30.7572 50.7162C31.2942 50.4762 43.8872 44.7502 43.8872 37.1882V24.7942C43.8873 24.5462 43.8131 24.3039 43.674 24.0985C43.535 23.8932 43.3375 23.7342 43.1072 23.6422L30.7152 18.6822C30.4199 18.5643 30.0906 18.5643 29.7952 18.6822L17.3952 23.6402C17.1646 23.7324 16.967 23.8916 16.8279 24.0974C16.6888 24.3031 16.6147 24.5459 16.6152 24.7942V37.1942C16.6152 44.7562 29.2082 50.4822 29.7452 50.7222C29.9049 50.7913 30.0773 50.8261 30.2512 50.8242ZM19.0942 37.1882V25.6312L30.2502 21.1682L41.4062 25.6312V37.1882C41.4062 41.8992 33.7842 46.5262 30.2502 48.2212C26.7152 46.5292 19.0942 41.9052 19.0942 37.1882Z" fill="#2533CC"/>
<path d="M37.3259 28.8746C37.0934 28.6422 36.7781 28.5117 36.4494 28.5117C36.1207 28.5117 35.8054 28.6422 35.5729 28.8746L26.5329 37.9116L24.9329 36.3116C24.8189 36.1914 24.6821 36.0952 24.5303 36.0288C24.3786 35.9624 24.2151 35.927 24.0495 35.9248C23.8839 35.9226 23.7195 35.9536 23.5661 36.0159C23.4127 36.0783 23.2733 36.1708 23.1562 36.2879C23.039 36.405 22.9466 36.5444 22.8842 36.6978C22.8219 36.8513 22.7909 37.0156 22.7931 37.1812C22.7953 37.3469 22.8307 37.5103 22.8971 37.6621C22.9635 37.8138 23.0597 37.9506 23.1799 38.0646L25.6589 40.5436C25.8914 40.776 26.2067 40.9065 26.5354 40.9065C26.8641 40.9065 27.1794 40.776 27.4119 40.5436L37.3289 30.6266C37.5605 30.3937 37.6903 30.0784 37.6898 29.75C37.6892 29.4215 37.5583 29.1067 37.3259 28.8746Z" fill="#2533CC"/>
<path d="M56.2825 0H4.2195C3.23316 0 2.28722 0.391822 1.58977 1.08927C0.892322 1.78672 0.5005 2.73266 0.5005 3.719V11.157C0.500105 11.3201 0.531888 11.4817 0.594027 11.6324C0.656166 11.7832 0.747441 11.9203 0.862625 12.0358C0.977809 12.1512 1.11464 12.2428 1.26528 12.3053C1.41592 12.3678 1.57741 12.4 1.7405 12.4H53.8005C54.1231 12.3908 54.4295 12.2562 54.6545 12.0248C54.8794 11.7933 55.0053 11.4833 55.0053 11.1605C55.0053 10.8377 54.8794 10.5277 54.6545 10.2962C54.4295 10.0648 54.1231 9.93016 53.8005 9.921H2.9795V3.721C2.9795 3.55816 3.01157 3.39692 3.07389 3.24647C3.13621 3.09603 3.22754 2.95933 3.34269 2.84419C3.57523 2.61164 3.89063 2.481 4.2195 2.481H56.2825C56.4453 2.481 56.6066 2.51307 56.757 2.57539C56.9075 2.63771 57.0442 2.72904 57.1593 2.84419C57.2745 2.95933 57.3658 3.09603 57.4281 3.24647C57.4904 3.39692 57.5225 3.55816 57.5225 3.721V55.783C57.5225 56.1119 57.3919 56.4273 57.1593 56.6598C56.9268 56.8924 56.6114 57.023 56.2825 57.023H4.2195C3.89063 57.023 3.57523 56.8924 3.34269 56.6598C3.11014 56.4273 2.9795 56.1119 2.9795 55.783V16.115C2.98421 15.9493 2.95563 15.7843 2.89546 15.6298C2.83528 15.4753 2.74474 15.3344 2.62917 15.2155C2.51361 15.0966 2.37538 15.0021 2.22265 14.9376C2.06992 14.873 1.9058 14.8398 1.74 14.8398C1.5742 14.8398 1.41008 14.873 1.25735 14.9376C1.10462 15.0021 0.96639 15.0966 0.850826 15.2155C0.735262 15.3344 0.644716 15.4753 0.584543 15.6298C0.52437 15.7843 0.495792 15.9493 0.5005 16.115V55.783C0.50103 56.769 0.893087 57.7144 1.59048 58.4114C2.28787 59.1085 3.23351 59.5 4.2195 59.5H56.2825C57.2683 59.4997 58.2137 59.1081 58.9109 58.4111C59.6081 57.7141 60 56.7688 60.0005 55.783V3.719C60.0005 2.73283 59.6088 1.78704 58.9116 1.08962C58.2144 0.392204 57.2687 0.00026517 56.2825 0Z" fill="#2533CC"/>
</svg>
