<svg width="60" height="60" viewBox="0 0 60 60" fill="none" xmlns="http://www.w3.org/2000/svg">
<path d="M7.81279 43.0489L3.89782 36.3169L3.00391 29.722L5.61385 23.746L10.5608 20.106L16.8108 18.457L23.5437 20.449L28.6267 24.846L30.2748 30.272L29.3827 36.6609L25.7417 42.1606L19.4917 45.0456L13.0337 45.3205L10.1441 43.0536L7.81279 43.0489Z" fill="#E9EBEF"/>
<path d="M16.2196 46.9559C15.9292 46.8469 15.6074 46.8574 15.3248 46.9851C15.0421 47.1128 14.8215 47.3473 14.7114 47.6373L12.2114 54.25C11.804 53.7455 11.4342 53.2118 11.1049 52.6532C10.9352 52.3666 10.677 52.1429 10.3692 52.0157C10.0614 51.8884 9.72067 51.8645 9.39814 51.9475C8.65346 52.1397 7.89716 52.2835 7.13396 52.3782L9.46432 46.226C9.51861 46.082 9.544 45.9287 9.53905 45.7749C9.53409 45.6211 9.49889 45.4697 9.43544 45.3295C9.37199 45.1893 9.28155 45.0629 9.16927 44.9576C9.05699 44.8524 8.92508 44.7702 8.78106 44.716C8.4902 44.6063 8.16771 44.6167 7.88451 44.7448C7.60132 44.873 7.38062 45.1084 7.27098 45.3992L3.71484 54.8083L5.39271 54.8214C6.74245 54.8239 8.0878 54.6675 9.40094 54.3553C10.0863 55.443 10.9234 56.4274 11.887 57.2785L13.1547 58.3775L16.9019 48.4678C16.9563 48.3241 16.9818 48.1711 16.977 48.0175C16.9723 47.864 16.9373 47.7128 16.8741 47.5728C16.8109 47.4327 16.7208 47.3065 16.6088 47.2013C16.4968 47.0961 16.3652 47.014 16.2215 46.9596L16.2196 46.9559Z" fill="#2533CC"/>
<path d="M24.0056 44.5269C23.8619 44.5812 23.7302 44.6633 23.6183 44.7685C23.5063 44.8737 23.4161 45 23.3529 45.14C23.2897 45.2801 23.2548 45.4312 23.25 45.5848C23.2452 45.7384 23.2707 45.8914 23.3251 46.0351L26.2502 53.7635C25.4857 53.6685 24.7282 53.5243 23.9823 53.3319C23.6596 53.2492 23.3188 53.2737 23.0113 53.4016C22.7037 53.5296 22.4461 53.7541 22.2774 54.0413C21.9495 54.5987 21.581 55.1312 21.1747 55.6343L19.7764 51.9337C19.7228 51.7891 19.6411 51.6565 19.5361 51.5436C19.431 51.4307 19.3047 51.3397 19.1643 51.2758C19.024 51.2119 18.8723 51.1764 18.7182 51.1713C18.5641 51.1662 18.4105 51.1917 18.2662 51.2462C18.1219 51.3007 17.9899 51.3832 17.8776 51.4889C17.7653 51.5946 17.6751 51.7215 17.612 51.8622C17.549 52.003 17.5144 52.1548 17.5102 52.309C17.506 52.4631 17.5324 52.6166 17.5878 52.7605L20.2332 59.7591L21.5009 58.6591C22.4628 57.8086 23.2981 56.8249 23.9813 55.7378C25.2957 56.0431 26.6402 56.1995 27.9896 56.2039L29.6674 56.1908L25.5138 45.2073C25.4595 45.0636 25.3773 44.932 25.2721 44.82C25.1669 44.708 25.0407 44.6179 24.9006 44.5547C24.7606 44.4915 24.6095 44.4565 24.4559 44.4517C24.3023 44.447 24.1493 44.4725 24.0056 44.5269Z" fill="#2533CC"/>
<path d="M3.87434 37.1013C3.99745 37.4117 4.18338 37.6933 4.42046 37.9284C4.65754 38.1636 4.94066 38.3472 5.25205 38.4678C5.70539 38.6448 6.09767 38.9495 6.38141 39.3449C6.66514 39.7403 6.82814 40.2095 6.85068 40.6956C6.86479 41.0313 6.94825 41.3604 7.09579 41.6622C7.24333 41.9641 7.45177 42.2321 7.70798 42.4494C7.96419 42.6668 8.26262 42.8287 8.58448 42.925C8.90634 43.0214 9.24467 43.05 9.57815 43.0092C10.0603 42.9516 10.5489 43.0348 10.9849 43.2487C11.4208 43.4625 11.7857 43.7979 12.0353 44.2145C12.2067 44.5035 12.4361 44.7539 12.709 44.9498C12.982 45.1458 13.2926 45.2832 13.6212 45.3532C13.9498 45.4233 14.2894 45.4245 14.6186 45.3569C14.9477 45.2892 15.2593 45.1542 15.5336 44.9602C15.8763 44.7182 16.2745 44.5665 16.6914 44.5193C17.1064 44.5663 17.5029 44.717 17.8444 44.9574C18.1206 45.1523 18.434 45.2879 18.7652 45.3558C19.0963 45.4236 19.4378 45.4222 19.7684 45.3517C20.095 45.2809 20.4035 45.1434 20.6745 44.9477C20.9454 44.752 21.1729 44.5023 21.3428 44.2145C21.5402 43.8782 21.8158 43.5946 22.1463 43.3877C22.6348 43.0709 23.2194 42.9369 23.7971 43.0092C24.1308 43.0503 24.4693 43.0219 24.7915 42.9257C25.1136 42.8295 25.4123 42.6676 25.6688 42.4502C25.9253 42.2329 26.134 41.9648 26.2818 41.6628C26.4295 41.3608 26.5132 41.0315 26.5274 40.6956C26.547 40.2089 26.7087 39.7386 26.9927 39.3429C27.2766 38.9471 27.6703 38.6432 28.1251 38.4687C28.4376 38.346 28.7214 38.1601 28.9587 37.9227C29.196 37.6852 29.3818 37.4013 29.5043 37.0887C29.6268 36.7761 29.6834 36.4416 29.6706 36.1062C29.6579 35.7707 29.576 35.4414 29.4301 35.1391C29.259 34.7913 29.1721 34.4081 29.1765 34.0205C29.1867 33.4344 29.4006 32.8702 29.7815 32.4247C29.9996 32.1697 30.1626 31.8724 30.2602 31.5514C30.3578 31.2304 30.388 30.8927 30.3488 30.5595C30.3095 30.2262 30.2018 29.9047 30.0323 29.6152C29.8628 29.3256 29.6352 29.0743 29.3639 28.8769C28.9708 28.5909 28.6698 28.1963 28.4979 27.7415C28.3261 27.2868 28.2907 26.7918 28.3963 26.3173C28.4681 25.9888 28.4711 25.6491 28.4051 25.3195C28.3392 24.9899 28.2057 24.6775 28.013 24.402C27.8204 24.1265 27.5728 23.8939 27.2858 23.7188C26.9988 23.5437 26.6787 23.43 26.3456 23.3847C25.8638 23.3195 25.4116 23.1152 25.0442 22.7968C24.6768 22.4784 24.4102 22.0598 24.2772 21.5922C24.1861 21.2691 24.029 20.9683 23.8158 20.709C23.6026 20.4496 23.338 20.2373 23.0386 20.0854C22.7392 19.9335 22.4115 19.8453 22.0763 19.8265C21.7411 19.8076 21.4056 19.8585 21.0911 19.9759C20.7255 20.1119 20.3335 20.1617 19.9455 20.1213C19.3608 20.0574 18.8173 19.7898 18.4102 19.3653C18.1871 19.1326 17.9192 18.9475 17.6225 18.8213C17.3259 18.695 17.0068 18.6303 16.6844 18.6309C16.362 18.6315 16.0431 18.6975 15.7469 18.8248C15.4508 18.9522 15.1835 19.1383 14.9613 19.3718C14.5568 19.7904 14.0186 20.0542 13.44 20.1175C13.0547 20.1594 12.6649 20.1119 12.3009 19.9787C11.9866 19.8604 11.6511 19.8086 11.3157 19.8266C10.9802 19.8446 10.6522 19.932 10.3523 20.0831C10.0523 20.2343 9.78701 20.4461 9.57306 20.705C9.35912 20.964 9.20119 21.2645 9.10927 21.5875C8.97717 22.0568 8.71052 22.477 8.34227 22.7964C7.97402 23.1158 7.52029 23.3203 7.03711 23.3847C6.70411 23.43 6.38409 23.5437 6.09719 23.7188C5.8103 23.8938 5.56274 24.1263 5.37011 24.4017C5.17747 24.6771 5.04393 24.9893 4.97789 25.3188C4.91186 25.6484 4.91475 25.988 4.98639 26.3163C5.09126 26.7914 5.05502 27.2868 4.88213 27.7415C4.70923 28.1963 4.40723 28.5906 4.01323 28.876C3.74126 29.073 3.51303 29.3242 3.34292 29.6137C3.17281 29.9032 3.06451 30.2249 3.02484 30.5583C2.98517 30.8918 3.01499 31.2299 3.11243 31.5512C3.20986 31.8726 3.3728 32.1703 3.59097 32.4256C3.90919 32.7949 4.11224 33.2493 4.17502 33.7327C4.23781 34.2161 4.15758 34.7073 3.94425 35.1456C3.79865 35.4496 3.71744 35.7804 3.70573 36.1173C3.69402 36.4541 3.75206 36.7898 3.8762 37.1031L3.87434 37.1013ZM5.38442 30.7683C5.99722 30.3263 6.49678 29.7456 6.84229 29.0736C7.36096 28.0693 7.51231 26.9152 7.27015 25.8111C7.25896 25.7608 7.27668 25.7179 7.34286 25.7011C8.09269 25.5997 8.80856 25.3249 9.43366 24.8985C9.5913 24.7909 9.74228 24.6739 9.88575 24.548C10.4601 24.0427 10.9072 23.4091 11.1908 22.6987C11.2346 22.5905 11.2747 22.4805 11.3101 22.3687C11.3278 22.3128 11.339 22.255 11.3576 22.2C11.3893 22.1067 11.5347 22.1897 11.5879 22.2084C11.696 22.2456 11.805 22.2789 11.915 22.3081C12.3537 22.426 12.8069 22.4809 13.2611 22.4712C13.4037 22.4712 13.5463 22.4591 13.688 22.4442C14.8318 22.3065 15.898 21.7942 16.7203 20.9872C17.3744 21.6684 18.2138 22.143 19.1346 22.3526C20.0555 22.5621 21.0176 22.4974 21.9021 22.1664C21.9953 22.131 22.0195 22.1972 22.0204 22.2214C22.2642 23.08 22.7403 23.8546 23.3962 24.4599C24.0521 25.0652 24.8625 25.4776 25.7378 25.6517C25.7907 25.6623 25.8438 25.6719 25.8972 25.6806C25.9709 25.6927 26.1359 25.6881 26.1088 25.8064C25.9052 26.7272 25.9752 27.6874 26.31 28.5689C26.6449 29.4504 27.2301 30.2149 27.9936 30.7683L28.0104 30.8988C27.274 31.7601 26.8607 32.8511 26.8415 33.9842C26.8311 34.739 26.9987 35.4856 27.3309 36.1635C27.338 36.1857 27.3375 36.2096 27.3294 36.2314C27.3213 36.2532 27.306 36.2717 27.2861 36.2838C26.2272 36.693 25.3448 37.4596 24.7917 38.451C24.4809 39.0104 24.2847 39.6261 24.2147 40.2622C24.2026 40.3759 24.1812 40.6826 24.1812 40.6826C24.1812 40.6826 23.9416 40.6695 23.8698 40.6639C22.82 40.5833 21.7726 40.8478 20.8869 41.4171C20.2454 41.8227 19.7106 42.3764 19.3275 43.0316L19.292 43.0959L19.1988 43.0465C18.4865 42.5451 17.6521 42.245 16.7836 42.1777L16.6904 42.1712L16.5972 42.1777C15.7283 42.2444 14.8935 42.5446 14.1811 43.0465C14.1714 43.0555 14.1599 43.0622 14.1473 43.0661C14.1346 43.07 14.1213 43.0709 14.1083 43.0688C14.0952 43.0668 14.0828 43.0617 14.072 43.0541C14.0612 43.0466 14.0523 43.0366 14.0459 43.025C13.6648 42.3746 13.1348 41.8239 12.4995 41.418C11.5484 40.8064 10.4135 40.5466 9.29104 40.6835C9.23418 40.6835 9.19783 40.6649 9.18851 40.6015C9.15962 39.8451 8.95131 39.1064 8.58075 38.4463C8.48845 38.2806 8.38667 38.1203 8.27594 37.9663C7.8314 37.3492 7.24761 36.8455 6.57197 36.4963C6.47876 36.4488 6.38554 36.4031 6.28767 36.3639L6.14132 36.3024C6.1031 36.2866 6.04158 36.2744 6.0276 36.2297C6.02505 36.2186 6.02507 36.207 6.02765 36.1958C6.03024 36.1847 6.03532 36.1743 6.04251 36.1654C6.05542 36.1441 6.06694 36.122 6.077 36.0992C6.10062 36.0495 6.12299 35.9995 6.14412 35.9491C6.187 35.8491 6.22646 35.7475 6.2625 35.6443C6.33456 35.4391 6.39249 35.2292 6.43588 35.016C6.47956 34.8008 6.50852 34.5828 6.52257 34.3635C6.53127 34.2337 6.53469 34.1038 6.53282 33.9739C6.51454 32.84 6.09964 31.7483 5.36018 30.8885C5.35319 30.8788 5.34824 30.8678 5.34562 30.8561C5.343 30.8444 5.34277 30.8324 5.34495 30.8206C5.34713 30.8088 5.35167 30.7976 5.35829 30.7877C5.36491 30.7777 5.37348 30.7692 5.38349 30.7627L5.38442 30.7683Z" fill="#2533CC"/>
<path d="M48.3008 25.1445H32.6957C32.3853 25.1445 32.0876 25.2678 31.8682 25.4873C31.6487 25.7068 31.5254 26.0045 31.5254 26.3148C31.5254 26.6252 31.6487 26.9229 31.8682 27.1424C32.0876 27.3619 32.3853 27.4852 32.6957 27.4852H48.3008C48.6111 27.4852 48.9088 27.3619 49.1283 27.1424C49.3478 26.9229 49.4711 26.6252 49.4711 26.3148C49.4711 26.0045 49.3478 25.7068 49.1283 25.4873C48.9088 25.2678 48.6111 25.1445 48.3008 25.1445Z" fill="#2533CC"/>
<path d="M48.2996 34.7656H33.9398C33.6295 34.7656 33.3318 34.8889 33.1123 35.1084C32.8928 35.3279 32.7695 35.6256 32.7695 35.9359C32.7695 36.2463 32.8928 36.544 33.1123 36.7635C33.3318 36.9829 33.6295 37.1062 33.9398 37.1062H48.2996C48.6099 37.1062 48.9076 36.9829 49.1271 36.7635C49.3466 36.544 49.4699 36.2463 49.4699 35.9359C49.4699 35.6256 49.3466 35.3279 49.1271 35.1084C48.9076 34.8889 48.6099 34.7656 48.2996 34.7656Z" fill="#2533CC"/>
<path d="M57.4613 13.3349C57.3994 13.0833 57.2534 12.8603 57.0474 12.7029C56.971 12.6032 56.9057 12.4997 56.8181 12.4056L47.0669 1.70921C46.6453 1.24551 46.1313 0.875114 45.5581 0.621798C44.9848 0.368482 44.365 0.237847 43.7382 0.238282H21.5065C19.9182 0.240009 18.3954 0.871747 17.2722 1.99489C16.1491 3.11802 15.5174 4.64083 15.5156 6.22919V15.1219C15.5156 15.4323 15.6389 15.7299 15.8584 15.9494C16.0779 16.1689 16.3756 16.2922 16.6859 16.2922C16.9963 16.2922 17.294 16.1689 17.5135 15.9494C17.7329 15.7299 17.8562 15.4323 17.8562 15.1219V6.22919C17.8575 5.26145 18.2425 4.3337 18.9268 3.64941C19.611 2.96511 20.5388 2.58014 21.5065 2.5789H43.7382C44.0388 2.57834 44.3362 2.64076 44.6112 2.76214C44.8863 2.88351 45.1328 3.06115 45.335 3.2836L53.6889 12.4429H49.374C48.407 12.4429 47.4795 12.0592 46.7951 11.376C46.1108 10.6929 45.7254 9.7661 45.7237 8.79912V6.47714C45.7237 6.16675 45.6004 5.86908 45.3809 5.6496C45.1614 5.43013 44.8638 5.30683 44.5534 5.30683C44.243 5.30683 43.9453 5.43013 43.7259 5.6496C43.5064 5.86908 43.3831 6.16675 43.3831 6.47714V8.8075C43.3848 10.3947 44.016 11.9164 45.1383 13.0388C46.2605 14.1613 47.7821 14.7927 49.3693 14.7947H55.5429C55.6113 15.0055 55.6468 15.2256 55.6483 15.4472V43.831C55.6483 44.7952 55.2653 45.7199 54.5835 46.4016C53.9017 47.0834 52.9771 47.4664 52.0129 47.4664H30.5577C30.2473 47.4664 29.9496 47.5897 29.7301 47.8092C29.5107 48.0287 29.3874 48.3263 29.3874 48.6367C29.3874 48.9471 29.5107 49.2448 29.7301 49.4643C29.9496 49.6837 30.2473 49.807 30.5577 49.807H52.0213C53.6047 49.8053 55.1228 49.1755 56.2424 48.0559C57.362 46.9362 57.9918 45.4182 57.9935 43.8348V15.4407C57.9915 14.7057 57.8087 13.9826 57.4613 13.3349Z" fill="#2533CC"/>
</svg>
