<svg id="download_12_" data-name="download (12)" xmlns="http://www.w3.org/2000/svg" width="64.898" height="55.43" viewBox="0 0 64.898 55.43">
  <g id="download_13_" data-name="download (13)">
    <path id="Path_223" data-name="Path 223" d="M57.07,20.861a25.533,25.533,0,0,0-48.9,0,8.153,8.153,0,1,0,.31,16.3c.068,0,.131-.017.2-.018A25.5,25.5,0,0,0,26.9,53.109a5.77,5.77,0,1,0,.325-2.806A22.728,22.728,0,1,1,55.356,28.234v7.525a1.405,1.405,0,0,0,1.4,1.4h.006a8.153,8.153,0,1,0,.3-16.3ZM32.622,49.389a2.985,2.985,0,1,1-2.985,2.985,2.984,2.984,0,0,1,2.985-2.985ZM3.126,29A5.359,5.359,0,0,1,7.5,23.739a24.655,24.655,0,0,0,.323,10.547A5.345,5.345,0,0,1,3.126,29Zm55.04,5.148V28.234a25.507,25.507,0,0,0-.421-4.495,5.337,5.337,0,0,1,.421,10.406Z" transform="translate(-0.174 -2.69)" fill="#fff"/>
    <path id="Path_224" data-name="Path 224" d="M22.773,8.714a13.3,13.3,0,1,0,13.3,13.3,13.3,13.3,0,0,0-13.3-13.3Zm0,24.105A10.81,10.81,0,1,1,33.582,22.011,10.81,10.81,0,0,1,22.773,32.82Z" transform="translate(9.947 3.569)" fill="#ff8f3e"/>
    <path id="Path_225" data-name="Path 225" d="M20.7,12.376a1.244,1.244,0,0,0-1.243,1.243V18.36H13.882a1.243,1.243,0,0,0,0,2.486H20.7A1.244,1.244,0,0,0,21.94,19.6V13.619A1.244,1.244,0,0,0,20.7,12.375Z" transform="translate(12.026 5.977)" fill="#ff8f3e"/>
  </g>
</svg>
