<svg width="56" height="55" viewBox="0 0 56 55" fill="none" xmlns="http://www.w3.org/2000/svg">
<path d="M11.7214 12.9966V12.4056H3.31641L6.11641 4.00564C6.27603 3.52611 6.58295 3.1092 6.99344 2.81436C7.40392 2.51951 7.89701 2.36178 8.40241 2.36364H13.3644C13.5184 2.00964 13.6834 1.65464 13.8644 1.30664L49.5294 1.77364L54.2464 12.9966H11.7214Z" fill="#E9EBEF"/>
<path d="M52.037 3.13101C51.7339 2.21821 51.1506 1.42427 50.3701 0.862134C49.5897 0.300003 48.6518 -0.00168072 47.69 7.04314e-06H8.4C7.40007 -0.000930656 6.42522 0.312989 5.61373 0.897241C4.80224 1.48149 4.1953 2.30642 3.879 3.25501L0.5 13V23.4C0.5 24.6799 1.00845 25.9075 1.9135 26.8125C2.81855 27.7176 4.04607 28.226 5.326 28.226H50.608C51.8879 28.226 53.1154 27.7176 54.0205 26.8125C54.9255 25.9075 55.434 24.6799 55.434 23.4V13L52.037 3.13101ZM6.117 4.00001C6.27731 3.5219 6.58415 3.10643 6.99396 2.81258C7.40377 2.51873 7.89573 2.36143 8.4 2.36301H47.53C48.0348 2.3608 48.5274 2.5178 48.9378 2.8117C49.3482 3.10559 49.6555 3.52141 49.816 4.00001L52.616 12.4H3.318L6.117 4.00001ZM53.071 23.4C53.071 24.0532 52.8115 24.6797 52.3496 25.1416C51.8877 25.6035 51.2612 25.863 50.608 25.863H5.326C4.67277 25.863 4.0463 25.6035 3.5844 25.1416C3.12249 24.6797 2.863 24.0532 2.863 23.4V14.77H53.071V23.4Z" fill="#2533CC"/>
<path d="M36.5315 4.74805H9.36053C9.03413 4.74805 8.76953 5.01242 8.76953 5.33855C8.76953 5.66467 9.03413 5.92905 9.36053 5.92905H36.5315C36.8579 5.92905 37.1225 5.66467 37.1225 5.33855C37.1225 5.01242 36.8579 4.74805 36.5315 4.74805Z" fill="#2533CC"/>
<path d="M46.5724 4.74805H40.0754C39.749 4.74805 39.4844 5.01242 39.4844 5.33855C39.4844 5.66467 39.749 5.92905 40.0754 5.92905H46.5724C46.8988 5.92905 47.1634 5.66467 47.1634 5.33855C47.1634 5.01242 46.8988 4.74805 46.5724 4.74805Z" fill="#2533CC"/>
<path d="M34.7594 20.278C34.7594 20.4347 34.6971 20.5851 34.5863 20.6959C34.4755 20.8067 34.3252 20.869 34.1684 20.869H19.4024C19.3228 20.8723 19.2434 20.8594 19.1689 20.8312C19.0944 20.803 19.0264 20.7601 18.9689 20.7049C18.9114 20.6498 18.8657 20.5835 18.8345 20.5103C18.8032 20.437 18.7871 20.3582 18.7871 20.2785C18.7871 20.1988 18.8032 20.12 18.8345 20.0467C18.8657 19.9735 18.9114 19.9072 18.9689 19.8521C19.0264 19.7969 19.0944 19.754 19.1689 19.7258C19.2434 19.6976 19.3228 19.6847 19.4024 19.688H34.1694C34.3258 19.6883 34.4757 19.7505 34.5863 19.8611C34.6969 19.9717 34.7592 20.1216 34.7594 20.278Z" fill="#2533CC"/>
<path d="M8.17905 18.2112V22.3462C8.17277 22.4986 8.10782 22.6427 7.99776 22.7483C7.88771 22.8539 7.74108 22.9129 7.58855 22.9129C7.43601 22.9129 7.28938 22.8539 7.17933 22.7483C7.06928 22.6427 7.00432 22.4986 6.99805 22.3462V18.2112C7.00432 18.0588 7.06928 17.9147 7.17933 17.8091C7.28938 17.7035 7.43601 17.6445 7.58855 17.6445C7.74108 17.6445 7.88771 17.7035 7.99776 17.8091C8.10782 17.9147 8.17277 18.0588 8.17905 18.2112Z" fill="#2533CC"/>
<path d="M11.724 18.2112V22.3462C11.7177 22.4986 11.6527 22.6427 11.5427 22.7483C11.4326 22.8539 11.286 22.9129 11.1335 22.9129C10.9809 22.9129 10.8343 22.8539 10.7243 22.7483C10.6142 22.6427 10.5492 22.4986 10.543 22.3462V18.2112C10.5492 18.0588 10.6142 17.9147 10.7243 17.8091C10.8343 17.7035 10.9809 17.6445 11.1335 17.6445C11.286 17.6445 11.4326 17.7035 11.5427 17.8091C11.6527 17.9147 11.7177 18.0588 11.724 18.2112Z" fill="#2533CC"/>
<path d="M15.2674 18.211V22.346C15.2612 22.4984 15.1962 22.6425 15.0862 22.7481C14.9761 22.8537 14.8295 22.9127 14.6769 22.9127C14.5244 22.9127 14.3778 22.8537 14.2677 22.7481C14.1577 22.6425 14.0927 22.4984 14.0864 22.346V18.211C14.0832 18.1314 14.096 18.052 14.1242 17.9775C14.1524 17.903 14.1954 17.835 14.2505 17.7775C14.3057 17.72 14.3719 17.6743 14.4452 17.643C14.5184 17.6118 14.5973 17.5957 14.6769 17.5957C14.7566 17.5957 14.8354 17.6118 14.9087 17.643C14.982 17.6743 15.0482 17.72 15.1033 17.7775C15.1585 17.835 15.2015 17.903 15.2297 17.9775C15.2579 18.052 15.2707 18.1314 15.2674 18.211Z" fill="#2533CC"/>
<path d="M39.1899 21.7567C40.0056 21.7567 40.6669 21.0955 40.6669 20.2797C40.6669 19.464 40.0056 18.8027 39.1899 18.8027C38.3742 18.8027 37.7129 19.464 37.7129 20.2797C37.7129 21.0955 38.3742 21.7567 39.1899 21.7567Z" fill="#2533CC"/>
<path d="M43.3247 21.7567C44.1404 21.7567 44.8017 21.0955 44.8017 20.2797C44.8017 19.464 44.1404 18.8027 43.3247 18.8027C42.5089 18.8027 41.8477 19.464 41.8477 20.2797C41.8477 21.0955 42.5089 21.7567 43.3247 21.7567Z" fill="#2533CC"/>
<path d="M47.4594 21.7567C48.2751 21.7567 48.9364 21.0955 48.9364 20.2797C48.9364 19.464 48.2751 18.8027 47.4594 18.8027C46.6437 18.8027 45.9824 19.464 45.9824 20.2797C45.9824 21.0955 46.6437 21.7567 47.4594 21.7567Z" fill="#2533CC"/>
<path d="M12.314 41.3474C12.784 41.3474 13.2347 41.5341 13.567 41.8664C13.8993 42.1987 14.086 42.6494 14.086 43.1194V50.7984C14.086 51.2683 13.8993 51.7191 13.567 52.0514C13.2347 52.3837 12.784 52.5704 12.314 52.5704H4.635C4.16504 52.5704 3.71432 52.3837 3.38201 52.0514C3.04969 51.7191 2.863 51.2683 2.863 50.7984V43.1194C2.863 42.6494 3.04969 42.1987 3.38201 41.8664C3.71432 41.5341 4.16504 41.3474 4.635 41.3474H12.314ZM12.314 38.9844H4.635C3.53833 38.9844 2.48658 39.42 1.71111 40.1955C0.935651 40.971 0.5 42.0227 0.5 43.1194L0.5 50.7984C0.5 51.895 0.935651 52.9468 1.71111 53.7223C2.48658 54.4977 3.53833 54.9334 4.635 54.9334H12.314C13.4107 54.9334 14.4624 54.4977 15.2379 53.7223C16.0133 52.9468 16.449 51.895 16.449 50.7984V43.1194C16.449 42.0227 16.0133 40.971 15.2379 40.1955C14.4624 39.42 13.4107 38.9844 12.314 38.9844Z" fill="#2533CC"/>
<path d="M31.8062 41.3474C32.2762 41.3474 32.7269 41.5341 33.0592 41.8664C33.3915 42.1987 33.5782 42.6494 33.5782 43.1194V50.7984C33.5782 51.2683 33.3915 51.7191 33.0592 52.0514C32.7269 52.3837 32.2762 52.5704 31.8062 52.5704H24.1272C23.6572 52.5704 23.2065 52.3837 22.8742 52.0514C22.5419 51.7191 22.3552 51.2683 22.3552 50.7984V43.1194C22.3552 42.6494 22.5419 42.1987 22.8742 41.8664C23.2065 41.5341 23.6572 41.3474 24.1272 41.3474H31.8062ZM31.8062 38.9844H24.1272C23.0305 38.9844 21.9788 39.42 21.2033 40.1955C20.4278 40.971 19.9922 42.0227 19.9922 43.1194V50.7984C19.9922 51.895 20.4278 52.9468 21.2033 53.7223C21.9788 54.4977 23.0305 54.9334 24.1272 54.9334H31.8062C32.9029 54.9334 33.9546 54.4977 34.7301 53.7223C35.5055 52.9468 35.9412 51.895 35.9412 50.7984V43.1194C35.9412 42.0227 35.5055 40.971 34.7301 40.1955C33.9546 39.42 32.9029 38.9844 31.8062 38.9844Z" fill="#2533CC"/>
<path d="M51.2984 41.3474C51.7683 41.3474 52.2191 41.5341 52.5514 41.8664C52.8837 42.1987 53.0704 42.6494 53.0704 43.1194V50.7984C53.0704 51.2683 52.8837 51.7191 52.5514 52.0514C52.2191 52.3837 51.7683 52.5704 51.2984 52.5704H43.6194C43.1494 52.5704 42.6987 52.3837 42.3664 52.0514C42.0341 51.7191 41.8474 51.2683 41.8474 50.7984V43.1194C41.8474 42.6494 42.0341 42.1987 42.3664 41.8664C42.6987 41.5341 43.1494 41.3474 43.6194 41.3474H51.2984ZM51.2984 38.9844H43.6194C42.5227 38.9844 41.471 39.42 40.6955 40.1955C39.92 40.971 39.4844 42.0227 39.4844 43.1194V50.7984C39.4844 51.895 39.92 52.9468 40.6955 53.7223C41.471 54.4977 42.5227 54.9334 43.6194 54.9334H51.2984C52.395 54.9334 53.4468 54.4977 54.2223 53.7223C54.9977 52.9468 55.4334 51.895 55.4334 50.7984V43.1194C55.4334 42.5764 55.3264 42.0387 55.1186 41.537C54.9108 41.0353 54.6062 40.5795 54.2223 40.1955C53.8383 39.8115 53.3824 39.5069 52.8808 39.2991C52.3791 39.0913 51.8414 38.9844 51.2984 38.9844Z" fill="#2533CC"/>
<path d="M28.8532 27.1953H26.4902V40.1903H28.8532V27.1953Z" fill="#2533CC"/>
<path d="M9.36105 40.1653H6.99805V36.0303C6.99805 35.0904 7.37143 34.189 8.03606 33.5243C8.70069 32.8597 9.60212 32.4863 10.542 32.4863H27.672V34.8493H10.542C10.2288 34.8493 9.92843 34.9738 9.70695 35.1952C9.48547 35.4167 9.36105 35.7171 9.36105 36.0303V40.1653Z" fill="#2533CC"/>
<path d="M48.3459 40.1653H45.9829V36.0303C45.9829 35.7171 45.8584 35.4167 45.637 35.1952C45.4155 34.9738 45.1151 34.8493 44.8019 34.8493H27.6719V32.4863H44.8019C45.7418 32.4863 46.6432 32.8597 47.3079 33.5243C47.9725 34.189 48.3459 35.0904 48.3459 36.0303V40.1653Z" fill="#2533CC"/>
<path d="M30.0336 44.916H25.8996C25.5732 44.916 25.3086 45.1804 25.3086 45.5065C25.3086 45.8326 25.5732 46.097 25.8996 46.097H30.0336C30.36 46.097 30.6246 45.8326 30.6246 45.5065C30.6246 45.1804 30.36 44.916 30.0336 44.916Z" fill="#2533CC"/>
<path d="M30.0336 47.8691H25.8996C25.5732 47.8691 25.3086 48.1335 25.3086 48.4596C25.3086 48.7858 25.5732 49.0501 25.8996 49.0501H30.0336C30.36 49.0501 30.6246 48.7858 30.6246 48.4596C30.6246 48.1335 30.36 47.8691 30.0336 47.8691Z" fill="#2533CC"/>
<path d="M10.5414 44.916H6.40741C6.08101 44.916 5.81641 45.1804 5.81641 45.5065C5.81641 45.8326 6.08101 46.097 6.40741 46.097H10.5414C10.8678 46.097 11.1324 45.8326 11.1324 45.5065C11.1324 45.1804 10.8678 44.916 10.5414 44.916Z" fill="#2533CC"/>
<path d="M10.5414 47.8691H6.40741C6.08101 47.8691 5.81641 48.1335 5.81641 48.4596C5.81641 48.7858 6.08101 49.0501 6.40741 49.0501H10.5414C10.8678 49.0501 11.1324 48.7858 11.1324 48.4596C11.1324 48.1335 10.8678 47.8691 10.5414 47.8691Z" fill="#2533CC"/>
<path d="M49.5258 44.916H45.3918C45.0654 44.916 44.8008 45.1804 44.8008 45.5065C44.8008 45.8326 45.0654 46.097 45.3918 46.097H49.5258C49.8522 46.097 50.1168 45.8326 50.1168 45.5065C50.1168 45.1804 49.8522 44.916 49.5258 44.916Z" fill="#2533CC"/>
<path d="M49.5258 47.8691H45.3918C45.0654 47.8691 44.8008 48.1335 44.8008 48.4596C44.8008 48.7858 45.0654 49.0501 45.3918 49.0501H49.5258C49.8522 49.0501 50.1168 48.7858 50.1168 48.4596C50.1168 48.1335 49.8522 47.8691 49.5258 47.8691Z" fill="#2533CC"/>
</svg>
