<svg width="422" height="307" viewBox="0 0 422 307" fill="none" xmlns="http://www.w3.org/2000/svg">
<path d="M422 278.252H0V278.464H422V278.252Z" fill="#EEF0F6"/>
<path d="M271.363 290.084H243.41V290.296H271.363V290.084Z" fill="#EEF0F6"/>
<path d="M350.908 287.783H343.574V287.995H350.908V287.783Z" fill="#EEF0F6"/>
<path d="M334.723 284.033H276.555V284.245H334.723V284.033Z" fill="#EEF0F6"/>
<path d="M190.018 289.041H164.445V289.253H190.018V289.041Z" fill="#EEF0F6"/>
<path d="M156.933 289.041H140.711V289.253H156.933V289.041Z" fill="#EEF0F6"/>
<path d="M83.8103 285.459H44.2773V285.671H83.8103V285.459Z" fill="#EEF0F6"/>
<path d="M200.029 240.395H37.061C35.7806 240.389 34.5549 239.875 33.6528 238.966C32.7508 238.058 32.2463 236.828 32.25 235.548V5.14766C32.2587 3.87539 32.7687 2.65787 33.6694 1.75925C34.57 0.860634 35.7887 0.353418 37.061 0.347656H200.029C200.664 0.349492 201.292 0.476319 201.877 0.720898C202.463 0.965476 202.995 1.32302 203.442 1.7731C203.89 2.22319 204.244 2.75701 204.486 3.34408C204.727 3.93115 204.85 4.55998 204.848 5.19466V235.548C204.85 236.182 204.727 236.811 204.486 237.398C204.244 237.985 203.89 238.519 203.442 238.969C202.995 239.419 202.463 239.777 201.877 240.021C201.292 240.266 200.664 240.393 200.029 240.395ZM37.061 0.517654C35.8368 0.523477 34.6648 1.01479 33.8024 1.88377C32.94 2.75274 32.4576 3.92838 32.461 5.15266V235.548C32.4576 236.772 32.94 237.948 33.8024 238.817C34.6648 239.686 35.8368 240.177 37.061 240.183H200.029C201.255 240.178 202.428 239.687 203.292 238.818C204.157 237.949 204.641 236.773 204.64 235.548V5.14766C204.641 3.92264 204.157 2.74702 203.293 1.87828C202.43 1.00953 201.257 0.518477 200.032 0.512657L37.061 0.517654Z" fill="#EEF0F6"/>
<path d="M382.597 240.395H219.616C218.335 240.389 217.108 239.875 216.205 238.967C215.302 238.058 214.796 236.829 214.797 235.548V5.14766C214.808 3.87466 215.319 2.65714 216.221 1.75875C217.123 0.860352 218.343 0.353396 219.616 0.347656H382.597C383.867 0.356301 385.083 0.864788 385.981 1.7631C386.88 2.6614 387.388 3.87729 387.397 5.14766V235.548C387.401 236.826 386.898 238.054 385.998 238.963C385.098 239.871 383.875 240.386 382.597 240.395ZM219.616 0.517654C218.391 0.523474 217.218 1.01453 216.354 1.88328C215.491 2.75202 215.007 3.92764 215.008 5.15266V235.548C215.007 236.773 215.491 237.948 216.354 238.817C217.218 239.686 218.391 240.177 219.616 240.183H382.597C383.82 240.175 384.991 239.683 385.853 238.814C386.715 237.946 387.198 236.771 387.197 235.548V5.14766C387.197 3.92488 386.713 2.75175 385.851 1.88431C384.99 1.01688 383.82 0.525577 382.597 0.517654H219.616Z" fill="#EEF0F6"/>
<path d="M370.247 97.207C370.247 96.2827 369.881 95.396 369.23 94.7402C368.578 94.0845 367.694 93.7131 366.77 93.707H258.45C257.525 93.7131 256.641 94.0845 255.99 94.7402C255.338 95.396 254.973 96.2827 254.973 97.207V108.462H370.247V97.207Z" fill="#E9EBEF"/>
<path d="M344.758 101.085C344.756 101.606 344.6 102.114 344.31 102.545C344.019 102.977 343.608 103.313 343.126 103.51C342.645 103.708 342.116 103.758 341.606 103.655C341.096 103.552 340.628 103.3 340.261 102.931C339.895 102.562 339.645 102.093 339.545 101.583C339.445 101.072 339.499 100.543 339.699 100.063C339.899 99.5831 340.237 99.1732 340.671 98.8852C341.104 98.5972 341.613 98.4441 342.133 98.4453C342.83 98.4516 343.496 98.7323 343.988 99.2264C344.479 99.7206 344.756 100.388 344.758 101.085Z" fill="white"/>
<path d="M354.074 101.085C354.073 101.605 353.917 102.113 353.627 102.544C353.337 102.976 352.925 103.312 352.445 103.509C351.964 103.707 351.435 103.758 350.925 103.656C350.416 103.553 349.948 103.302 349.581 102.934C349.214 102.566 348.964 102.097 348.863 101.588C348.762 101.078 348.814 100.549 349.013 100.069C349.212 99.5885 349.549 99.178 349.981 98.8891C350.413 98.6001 350.922 98.4457 351.441 98.4453C352.14 98.4493 352.808 98.7289 353.301 99.2233C353.795 99.7178 354.072 100.387 354.074 101.085Z" fill="white"/>
<path d="M360.758 103.734C362.212 103.734 363.391 102.548 363.391 101.086C363.391 99.623 362.212 98.4375 360.758 98.4375C359.304 98.4375 358.125 99.623 358.125 101.086C358.125 102.548 359.304 103.734 360.758 103.734Z" fill="white"/>
<path d="M258.45 184.278H366.773C367.697 184.272 368.581 183.9 369.233 183.245C369.884 182.589 370.25 181.702 370.25 180.778V108.461H254.973V180.781C254.973 181.705 255.338 182.592 255.99 183.248C256.641 183.903 257.525 184.275 258.45 184.281V184.278Z" fill="#EEF0F6"/>
<path d="M379.041 123.682C379.041 122.757 378.675 121.871 378.024 121.215C377.372 120.559 376.488 120.188 375.564 120.182H267.247C266.322 120.188 265.438 120.559 264.786 121.215C264.135 121.871 263.77 122.757 263.77 123.682V134.937H379.041V123.682Z" fill="#EEF0F6"/>
<path d="M353.559 127.562C353.556 128.082 353.399 128.59 353.108 129.021C352.817 129.452 352.405 129.787 351.923 129.984C351.442 130.181 350.913 130.231 350.403 130.128C349.893 130.024 349.426 129.772 349.059 129.404C348.692 129.035 348.443 128.566 348.342 128.055C348.242 127.545 348.295 127.016 348.495 126.536C348.695 126.056 349.032 125.645 349.465 125.357C349.897 125.068 350.406 124.914 350.926 124.914C351.626 124.916 352.297 125.196 352.791 125.693C353.284 126.189 353.561 126.862 353.559 127.562Z" fill="#E9EBEF"/>
<path d="M362.871 127.562C362.868 128.082 362.711 128.589 362.419 129.02C362.128 129.45 361.715 129.785 361.234 129.981C360.753 130.178 360.224 130.227 359.715 130.123C359.205 130.019 358.738 129.767 358.372 129.397C358.006 129.028 357.757 128.559 357.658 128.048C357.559 127.538 357.612 127.01 357.813 126.53C358.014 126.051 358.352 125.641 358.785 125.353C359.218 125.066 359.726 124.913 360.246 124.914C360.945 124.92 361.612 125.202 362.104 125.698C362.595 126.194 362.871 126.864 362.871 127.562Z" fill="#E9EBEF"/>
<path d="M372.203 127.562C372.2 128.082 372.043 128.589 371.751 129.02C371.46 129.45 371.047 129.785 370.566 129.981C370.085 130.178 369.556 130.227 369.047 130.123C368.537 130.019 368.07 129.767 367.704 129.397C367.338 129.028 367.089 128.559 366.99 128.048C366.891 127.538 366.944 127.01 367.145 126.53C367.346 126.051 367.684 125.641 368.117 125.353C368.55 125.066 369.058 124.913 369.578 124.914C370.277 124.92 370.944 125.202 371.436 125.698C371.928 126.194 372.203 126.864 372.203 127.562Z" fill="#E9EBEF"/>
<path d="M267.246 210.755H375.579C376.503 210.748 377.387 210.377 378.039 209.721C378.69 209.066 379.056 208.179 379.056 207.255V134.938H263.766V207.258C263.766 208.182 264.133 209.068 264.785 209.723C265.437 210.379 266.321 210.749 267.246 210.755Z" fill="#EEF0F6"/>
<path d="M41.9141 15.9741C41.9162 15.0986 42.2642 14.2594 42.8823 13.6394C43.5005 13.0194 44.3386 12.6688 45.2141 12.6641H187.369C188.245 12.6688 189.083 13.0194 189.701 13.6394C190.319 14.2594 190.667 15.0986 190.669 15.9741V26.6611H41.9141V15.9741Z" fill="#E9EBEF"/>
<path d="M68.5848 22.4175C68.0453 22.4207 67.517 22.2637 67.0669 21.9664C66.6168 21.6691 66.265 21.2448 66.0562 20.7474C65.8474 20.25 65.7909 19.7018 65.8939 19.1723C65.9969 18.6427 66.2548 18.1557 66.6348 17.7728C67.0149 17.39 67.5 17.1285 68.0288 17.0216C68.5575 16.9147 69.1061 16.9672 69.6051 17.1723C70.104 17.3775 70.5308 17.7261 70.8314 18.1741C71.132 18.622 71.293 19.1491 71.2938 19.6886C71.2953 20.0457 71.2265 20.3996 71.0911 20.7301C70.9558 21.0606 70.7566 21.3612 70.505 21.6147C70.2534 21.8682 69.9543 22.0695 69.6248 22.2073C69.2953 22.3451 68.9419 22.4165 68.5848 22.4175ZM68.5848 17.4006C68.5892 17.6505 68.6922 17.8885 68.8713 18.0628C69.0504 18.2372 69.2912 18.3338 69.5411 18.3315C69.791 18.3293 70.03 18.2284 70.2059 18.0509C70.3819 17.8733 70.4806 17.6335 70.4806 17.3836C70.4806 17.1336 70.3819 16.8938 70.2059 16.7162C70.03 16.5387 69.791 16.4378 69.5411 16.4356C69.2912 16.4333 69.0504 16.5299 68.8713 16.7043C68.6922 16.8786 68.5892 17.1166 68.5848 17.3665V17.4006Z" fill="white"/>
<path d="M59.7478 22.4175C59.1197 22.4192 58.5105 22.2033 58.0237 21.8065C57.5369 21.4096 57.2026 20.8564 57.0777 20.2409C56.9528 19.6254 57.045 18.9857 57.3386 18.4305C57.6322 17.8753 58.109 17.4389 58.6881 17.1956C59.2671 16.9524 59.9125 16.9172 60.5145 17.0962C61.1165 17.2751 61.638 17.6571 61.9901 18.1771C62.3423 18.6971 62.5034 19.3231 62.4461 19.9485C62.3888 20.5739 62.1166 21.1602 61.6758 21.6076C61.4238 21.8632 61.1237 22.0664 60.7928 22.2055C60.4619 22.3445 60.1067 22.4166 59.7478 22.4175ZM59.7478 17.4006C59.7522 17.6505 59.8552 17.8885 60.0344 18.0628C60.2135 18.2372 60.4542 18.3338 60.7041 18.3315C60.9541 18.3293 61.193 18.2284 61.369 18.0509C61.5449 17.8733 61.6436 17.6335 61.6436 17.3836C61.6436 17.1336 61.5449 16.8938 61.369 16.7162C61.193 16.5387 60.9541 16.4378 60.7041 16.4356C60.4542 16.4333 60.2135 16.5299 60.0344 16.7043C59.8552 16.8786 59.7522 17.1166 59.7478 17.3665V17.4006Z" fill="white"/>
<path d="M50.909 22.4175C50.3695 22.4207 49.8413 22.2637 49.3911 21.9664C48.941 21.6691 48.5892 21.2448 48.3804 20.7474C48.1716 20.25 48.1151 19.7018 48.2181 19.1723C48.3211 18.6427 48.579 18.1557 48.959 17.7728C49.3391 17.39 49.8242 17.1285 50.353 17.0216C50.8818 16.9147 51.4304 16.9672 51.9293 17.1723C52.4282 17.3775 52.855 17.7261 53.1556 18.1741C53.4563 18.622 53.6172 19.1491 53.618 19.6886C53.6195 20.0457 53.5507 20.3996 53.4154 20.7301C53.28 21.0606 53.0809 21.3612 52.8293 21.6147C52.5776 21.8682 52.2785 22.0695 51.949 22.2073C51.6195 22.3451 51.2661 22.4165 50.909 22.4175ZM50.909 17.4006C50.9135 17.6505 51.0164 17.8885 51.1956 18.0628C51.3747 18.2372 51.6154 18.3338 51.8653 18.3315C52.1153 18.3293 52.3542 18.2284 52.5301 18.0509C52.7061 17.8733 52.8048 17.6335 52.8048 17.3836C52.8048 17.1336 52.7061 16.8938 52.5301 16.7162C52.3542 16.5387 52.1153 16.4378 51.8653 16.4356C51.6154 16.4333 51.3747 16.5299 51.1956 16.7043C51.0164 16.8786 50.9135 17.1166 50.909 17.3665V17.4006Z" fill="white"/>
<path d="M45.2141 115.413H187.369C188.246 115.408 189.086 115.057 189.704 114.435C190.322 113.813 190.669 112.971 190.669 112.094V26.6602H41.9141V112.094C41.9138 112.971 42.2608 113.813 42.8792 114.435C43.4975 115.057 44.337 115.408 45.2141 115.413Z" fill="#EEF0F6"/>
<path d="M77.5703 38.3823C77.5724 37.5068 77.9204 36.6676 78.5386 36.0476C79.1567 35.4276 79.9948 35.077 80.8703 35.0723H223C223.876 35.077 224.714 35.4276 225.332 36.0476C225.95 36.6676 226.298 37.5068 226.3 38.3823V49.0623H77.5703V38.3823Z" fill="#EEF0F6"/>
<path d="M104.241 44.7917C103.701 44.7949 103.173 44.6378 102.723 44.3403C102.273 44.0428 101.921 43.6183 101.712 43.1207C101.503 42.6231 101.447 42.0747 101.55 41.545C101.654 41.0154 101.912 40.5283 102.292 40.1456C102.673 39.7629 103.158 39.5018 103.687 39.3953C104.217 39.2889 104.765 39.3419 105.264 39.5477C105.763 39.7535 106.189 40.1027 106.49 40.5512C106.79 40.9996 106.95 41.5271 106.95 42.0668C106.951 42.4236 106.882 42.7771 106.746 43.1071C106.611 43.4372 106.411 43.7373 106.16 43.9903C105.908 44.2433 105.609 44.4444 105.28 44.5819C104.951 44.7194 104.598 44.7907 104.241 44.7917ZM104.241 39.7748C103.787 39.7722 103.343 39.9044 102.964 40.1547C102.585 40.405 102.29 40.762 102.114 41.1806C101.939 41.5992 101.892 42.0604 101.978 42.5059C102.065 42.9513 102.283 43.3609 102.603 43.6828C102.923 44.0046 103.331 44.2242 103.776 44.3137C104.221 44.4032 104.683 44.3586 105.102 44.1855C105.522 44.0124 105.88 43.7186 106.133 43.3415C106.385 42.9643 106.52 42.5206 106.52 42.0668C106.521 41.7667 106.462 41.4694 106.348 41.1919C106.234 40.9143 106.067 40.662 105.855 40.4493C105.643 40.2365 105.392 40.0675 105.115 39.952C104.838 39.8364 104.541 39.7765 104.241 39.7758V39.7748Z" fill="#E9EBEF"/>
<path d="M95.3738 44.7917C94.8342 44.7949 94.3058 44.6378 93.8555 44.3403C93.4053 44.0428 93.0536 43.6183 92.8449 43.1207C92.6362 42.6231 92.5799 42.0747 92.6832 41.545C92.7866 41.0154 93.0448 40.5283 93.4253 40.1456C93.8057 39.7629 94.2912 39.5018 94.8203 39.3953C95.3493 39.2889 95.898 39.3419 96.3969 39.5477C96.8958 39.7535 97.3223 40.1027 97.6224 40.5512C97.9226 40.9996 98.0828 41.5271 98.0828 42.0668C98.0839 42.4236 98.0146 42.7771 97.8791 43.1071C97.7435 43.4372 97.5442 43.7373 97.2927 43.9903C97.0411 44.2433 96.7422 44.4444 96.413 44.5819C96.0837 44.7194 95.7306 44.7907 95.3738 44.7917ZM95.3738 39.7748C94.92 39.7722 94.4756 39.9044 94.0969 40.1547C93.7183 40.405 93.4225 40.762 93.247 41.1806C93.0716 41.5992 93.0243 42.0604 93.1113 42.5059C93.1982 42.9513 93.4155 43.3609 93.7355 43.6828C94.0555 44.0046 94.4639 44.2242 94.9089 44.3137C95.3538 44.4032 95.8153 44.3586 96.2349 44.1855C96.6545 44.0124 97.0132 43.7186 97.2656 43.3415C97.518 42.9643 97.6528 42.5206 97.6528 42.0668C97.6536 41.7667 97.5953 41.4694 97.4812 41.1919C97.3671 40.9143 97.1994 40.662 96.9878 40.4493C96.7762 40.2365 96.5247 40.0675 96.2478 39.952C95.9709 39.8364 95.6739 39.7765 95.3738 39.7758V39.7748Z" fill="#E9EBEF"/>
<path d="M86.5691 44.7917C86.0295 44.7949 85.5011 44.6378 85.0509 44.3403C84.6006 44.0428 84.2489 43.6183 84.0402 43.1207C83.8315 42.6231 83.7752 42.0747 83.8786 41.545C83.9819 41.0154 84.2401 40.5283 84.6206 40.1456C85.001 39.7629 85.4866 39.5018 86.0156 39.3953C86.5446 39.2889 87.0934 39.3419 87.5922 39.5477C88.0911 39.7535 88.5176 40.1027 88.8177 40.5512C89.1179 40.9996 89.2781 41.5271 89.2781 42.0668C89.2792 42.4236 89.2099 42.7771 89.0744 43.1071C88.9388 43.4372 88.7395 43.7373 88.488 43.9903C88.2364 44.2433 87.9375 44.4444 87.6083 44.5819C87.279 44.7194 86.9259 44.7907 86.5691 44.7917ZM86.5691 39.7748C86.1153 39.7722 85.6709 39.9044 85.2922 40.1547C84.9136 40.405 84.6178 40.762 84.4423 41.1806C84.2669 41.5992 84.2196 42.0604 84.3066 42.5059C84.3936 42.9513 84.6108 43.3609 84.9308 43.6828C85.2509 44.0046 85.6592 44.2242 86.1042 44.3137C86.5491 44.4032 87.0106 44.3586 87.4302 44.1855C87.8498 44.0124 88.2085 43.7186 88.4609 43.3415C88.7134 42.9643 88.8481 42.5206 88.8481 42.0668C88.8489 41.7667 88.7906 41.4694 88.6765 41.1919C88.5624 40.9143 88.3947 40.662 88.1831 40.4493C87.9715 40.2365 87.72 40.0675 87.4431 39.952C87.1662 39.8364 86.8692 39.7765 86.5691 39.7758V39.7748Z" fill="#E9EBEF"/>
<path d="M80.8703 154.673H223C223.877 154.668 224.717 154.316 225.335 153.694C225.954 153.072 226.301 152.231 226.3 151.354V49.0625H77.5703V151.354C77.57 152.231 77.917 153.072 78.5354 153.694C79.1538 154.316 79.9933 154.668 80.8703 154.673Z" fill="#F5F5F5"/>
<path d="M294.438 56.6152H244.71C243.992 56.6152 243.41 57.1973 243.41 57.9152V65.7982C243.41 66.5162 243.992 67.0982 244.71 67.0982H294.438C295.156 67.0982 295.738 66.5162 295.738 65.7982V57.9152C295.738 57.1973 295.156 56.6152 294.438 56.6152Z" fill="#E9EBEF"/>
<path d="M331.895 38.8419L244.51 39.3919C244.366 39.3919 244.223 39.4203 244.089 39.4756C243.956 39.5309 243.834 39.6119 243.732 39.714C243.63 39.8162 243.549 39.9374 243.494 40.0709C243.439 40.2044 243.41 40.3474 243.41 40.4919V48.7759C243.414 49.067 243.532 49.3451 243.739 49.55C243.946 49.7548 244.225 49.8701 244.516 49.8709L331.904 49.3189C332.194 49.316 332.471 49.1988 332.675 48.9928C332.879 48.7868 332.993 48.5087 332.993 48.2189V39.9339C332.993 39.6424 332.877 39.363 332.671 39.1569C332.569 39.0556 332.448 38.9755 332.315 38.9215C332.182 38.8674 332.039 38.8403 331.895 38.8419Z" fill="#EEF0F6"/>
<path d="M312.533 21.6113H244.71C243.992 21.6113 243.41 22.1934 243.41 22.9113V30.7943C243.41 31.5123 243.992 32.0943 244.71 32.0943H312.533C313.251 32.0943 313.833 31.5123 313.833 30.7943V22.9113C313.833 22.1934 313.251 21.6113 312.533 21.6113Z" fill="#EEF0F6"/>
<path d="M69.1274 191.426H51.9464C51.5985 191.426 51.3164 191.708 51.3164 192.056V197.756C51.3164 198.104 51.5985 198.386 51.9464 198.386H69.1274C69.4753 198.386 69.7574 198.104 69.7574 197.756V192.056C69.7574 191.708 69.4753 191.426 69.1274 191.426Z" fill="#E9EBEF"/>
<path d="M82.5005 179.934L51.7005 180.299C51.4815 180.299 51.3125 180.63 51.3125 181.029V186.529C51.3125 186.929 51.4895 187.259 51.7005 187.259L82.5065 186.885C82.7175 186.885 82.8945 186.554 82.8945 186.155V180.655C82.8885 180.299 82.7145 179.934 82.5005 179.934Z" fill="#EEF0F6"/>
<path d="M75.5084 168.814H51.9464C51.5985 168.814 51.3164 169.097 51.3164 169.444V175.144C51.3164 175.492 51.5985 175.774 51.9464 175.774H75.5084C75.8563 175.774 76.1384 175.492 76.1384 175.144V169.444C76.1384 169.097 75.8563 168.814 75.5084 168.814Z" fill="#EEF0F6"/>
<path d="M82.5005 213.859L51.7005 214.249C51.4815 214.249 51.3125 214.58 51.3125 214.979V220.479C51.3125 220.879 51.4895 221.209 51.7005 221.209L82.5065 220.835C82.7175 220.835 82.8945 220.504 82.8945 220.105V214.605C82.8885 214.19 82.7145 213.859 82.5005 213.859Z" fill="#EEF0F6"/>
<path d="M75.5084 202.74H51.9464C51.5985 202.74 51.3164 203.022 51.3164 203.37V209.07C51.3164 209.418 51.5985 209.7 51.9464 209.7H75.5084C75.8563 209.7 76.1384 209.418 76.1384 209.07V203.37C76.1384 203.022 75.8563 202.74 75.5084 202.74Z" fill="#EEF0F6"/>
<path d="M370.855 24.209H211.457V183.719H370.855V24.209Z" fill="#3D51D2"/>
<path opacity="0.1" d="M263.49 32.1445H211.457V62.1675H263.49V32.1445Z" fill="#364163"/>
<path opacity="0.2" d="M263.49 92.1914H211.457V122.214H263.49V92.1914Z" fill="#364163"/>
<path opacity="0.1" d="M263.49 122.215H211.457V152.238H263.49V122.215Z" fill="#364163"/>
<path d="M263.488 32.1445H368.212V177.752C368.214 178.261 368.115 178.765 367.921 179.236C367.728 179.707 367.443 180.135 367.085 180.496C366.726 180.857 366.299 181.144 365.829 181.34C365.359 181.536 364.855 181.638 364.346 181.64H267.354C266.326 181.636 265.341 181.225 264.617 180.496C263.892 179.767 263.486 178.78 263.489 177.752L263.488 32.1445Z" fill="white"/>
<path opacity="0.3" d="M370.855 24.209H211.457V32.145H370.855V24.209Z" fill="#364163"/>
<path opacity="0.8" d="M217.67 29.7944C218.556 29.7944 219.274 29.0722 219.274 28.1814C219.274 27.2905 218.556 26.5684 217.67 26.5684C216.785 26.5684 216.066 27.2905 216.066 28.1814C216.066 29.0722 216.785 29.7944 217.67 29.7944Z" fill="#3D51D2"/>
<path opacity="0.8" d="M224.987 29.7944C225.873 29.7944 226.591 29.0722 226.591 28.1814C226.591 27.2905 225.873 26.5684 224.987 26.5684C224.101 26.5684 223.383 27.2905 223.383 28.1814C223.383 29.0722 224.101 29.7944 224.987 29.7944Z" fill="#3D51D2"/>
<path opacity="0.8" d="M232.295 29.7944C233.181 29.7944 233.899 29.0722 233.899 28.1814C233.899 27.2905 233.181 26.5684 232.295 26.5684C231.41 26.5684 230.691 27.2905 230.691 28.1814C230.691 29.0722 231.41 29.7944 232.295 29.7944Z" fill="#3D51D2"/>
<path opacity="0.2" d="M334.564 47.1094H274.424C272.85 47.1094 271.574 48.3854 271.574 49.9594V97.3444C271.574 98.9184 272.85 100.194 274.424 100.194H334.564C336.138 100.194 337.414 98.9184 337.414 97.3444V49.9594C337.414 48.3854 336.138 47.1094 334.564 47.1094Z" fill="#3D51D2"/>
<path opacity="0.2" d="M359.734 42.8926H313.542C312.332 42.8926 311.352 43.8731 311.352 45.0826V81.4796C311.352 82.6891 312.332 83.6696 313.542 83.6696H359.734C360.943 83.6696 361.924 82.6891 361.924 81.4796V45.0826C361.924 43.8731 360.943 42.8926 359.734 42.8926Z" fill="#3D51D2"/>
<path opacity="0.2" d="M333.511 117.324H287.319C286.109 117.324 285.129 118.305 285.129 119.514V155.911C285.129 157.121 286.109 158.101 287.319 158.101H333.511C334.72 158.101 335.701 157.121 335.701 155.911V119.514C335.701 118.305 334.72 117.324 333.511 117.324Z" fill="#3D51D2"/>
<path opacity="0.7" d="M370.855 24.209H211.457V183.719H370.855V24.209Z" fill="white"/>
<path d="M356.218 38.9277H196.82V198.438H356.218V38.9277Z" fill="#3D51D2"/>
<path opacity="0.1" d="M248.853 46.8633H196.82V76.8863H248.853V46.8633Z" fill="#364163"/>
<path opacity="0.2" d="M248.853 106.9H196.82V136.923H248.853V106.9Z" fill="#364163"/>
<path opacity="0.1" d="M248.853 136.924H196.82V166.947H248.853V136.924Z" fill="#364163"/>
<path d="M248.855 46.8633H353.579V192.463C353.582 193.491 353.177 194.478 352.452 195.208C351.727 195.937 350.743 196.348 349.714 196.351H252.729C252.22 196.35 251.716 196.248 251.247 196.052C250.777 195.856 250.35 195.569 249.991 195.208C249.632 194.847 249.348 194.419 249.154 193.948C248.961 193.477 248.862 192.972 248.863 192.463V46.8633H248.855Z" fill="white"/>
<path opacity="0.3" d="M356.218 38.9277H196.82V46.8637H356.218V38.9277Z" fill="#364163"/>
<path opacity="0.8" d="M203.034 44.5053C203.92 44.5053 204.638 43.7831 204.638 42.8923C204.638 42.0015 203.92 41.2793 203.034 41.2793C202.148 41.2793 201.43 42.0015 201.43 42.8923C201.43 43.7831 202.148 44.5053 203.034 44.5053Z" fill="#3D51D2"/>
<path opacity="0.8" d="M210.35 44.5053C211.236 44.5053 211.954 43.7831 211.954 42.8923C211.954 42.0015 211.236 41.2793 210.35 41.2793C209.464 41.2793 208.746 42.0015 208.746 42.8923C208.746 43.7831 209.464 44.5053 210.35 44.5053Z" fill="#3D51D2"/>
<path opacity="0.8" d="M217.67 44.5053C218.556 44.5053 219.274 43.7831 219.274 42.8923C219.274 42.0015 218.556 41.2793 217.67 41.2793C216.785 41.2793 216.066 42.0015 216.066 42.8923C216.066 43.7831 216.785 44.5053 217.67 44.5053Z" fill="#3D51D2"/>
<path opacity="0.2" d="M319.939 61.8281H259.799C258.225 61.8281 256.949 63.1041 256.949 64.6781V112.063C256.949 113.637 258.225 114.913 259.799 114.913H319.939C321.513 114.913 322.789 113.637 322.789 112.063V64.6781C322.789 63.1041 321.513 61.8281 319.939 61.8281Z" fill="#3D51D2"/>
<path opacity="0.2" d="M345.874 103.77H299.682C298.473 103.77 297.492 104.75 297.492 105.96V142.357C297.492 143.566 298.473 144.547 299.682 144.547H345.874C347.084 144.547 348.064 143.566 348.064 142.357V105.96C348.064 104.75 347.084 103.77 345.874 103.77Z" fill="#3D51D2"/>
<path opacity="0.2" d="M318.886 132.043H272.694C271.484 132.043 270.504 133.023 270.504 134.233V170.63C270.504 171.839 271.484 172.82 272.694 172.82H318.886C320.095 172.82 321.076 171.839 321.076 170.63V134.233C321.076 133.023 320.095 132.043 318.886 132.043Z" fill="#3D51D2"/>
<path opacity="0.5" d="M356.218 38.9277H196.82V198.438H356.218V38.9277Z" fill="white"/>
<path d="M341.593 53.6387H182.195V213.149H341.593V53.6387Z" fill="#3D51D2"/>
<path opacity="0.1" d="M234.228 61.5742H182.195V91.5972H234.228V61.5742Z" fill="#364163"/>
<path opacity="0.2" d="M234.228 121.619H182.195V151.642H234.228V121.619Z" fill="#364163"/>
<path opacity="0.1" d="M234.228 151.643H182.195V181.666H234.228V151.643Z" fill="#364163"/>
<path d="M234.227 61.5742H338.951V207.181C338.952 207.69 338.853 208.195 338.66 208.666C338.466 209.137 338.182 209.565 337.823 209.926C337.464 210.287 337.037 210.574 336.567 210.77C336.098 210.966 335.594 211.068 335.085 211.069H238.092C237.064 211.066 236.079 210.655 235.354 209.926C234.629 209.196 234.224 208.209 234.227 207.181V61.5742Z" fill="white"/>
<path opacity="0.3" d="M341.593 53.6387H182.195V61.5747H341.593V53.6387Z" fill="#364163"/>
<path opacity="0.8" d="M188.409 59.2221C189.295 59.2221 190.013 58.4999 190.013 57.6091C190.013 56.7183 189.295 55.9961 188.409 55.9961C187.523 55.9961 186.805 56.7183 186.805 57.6091C186.805 58.4999 187.523 59.2221 188.409 59.2221Z" fill="#3D51D2"/>
<path opacity="0.8" d="M197.324 57.6091C197.323 57.9276 197.228 58.2388 197.051 58.5035C196.874 58.7681 196.622 58.9743 196.328 59.096C196.034 59.2176 195.71 59.2493 195.397 59.187C195.085 59.1247 194.798 58.9712 194.573 58.7459C194.348 58.5206 194.195 58.2337 194.132 57.9213C194.07 57.6089 194.102 57.2851 194.224 56.9908C194.346 56.6966 194.552 56.445 194.817 56.268C195.082 56.0909 195.393 55.9963 195.712 55.9961C195.923 55.9952 196.133 56.0361 196.328 56.1166C196.524 56.1971 196.701 56.3156 196.851 56.4651C197.153 56.7684 197.324 57.1795 197.324 57.6081V57.6091Z" fill="#3D51D2"/>
<path opacity="0.8" d="M203.034 59.2221C203.92 59.2221 204.638 58.4999 204.638 57.6091C204.638 56.7183 203.92 55.9961 203.034 55.9961C202.148 55.9961 201.43 56.7183 201.43 57.6091C201.43 58.4999 202.148 59.2221 203.034 59.2221Z" fill="#3D51D2"/>
<path opacity="0.2" d="M268.02 49.7246H177.655C175.291 49.7246 173.375 51.6408 173.375 54.0046V125.209C173.375 127.572 175.291 129.489 177.655 129.489H268.02C270.384 129.489 272.3 127.572 272.3 125.209V54.0046C272.3 51.6408 270.384 49.7246 268.02 49.7246Z" fill="#3D51D2"/>
<path opacity="0.2" d="M317.777 88.6934H248.372C246.555 88.6934 245.082 90.1663 245.082 91.9834V146.671C245.082 148.488 246.555 149.961 248.372 149.961H317.777C319.594 149.961 321.067 148.488 321.067 146.671V91.9834C321.067 90.1663 319.594 88.6934 317.777 88.6934Z" fill="#3D51D2"/>
<path opacity="0.2" d="M343.199 164.365H273.794C271.977 164.365 270.504 165.838 270.504 167.655V222.343C270.504 224.16 271.977 225.633 273.794 225.633H343.199C345.016 225.633 346.489 224.16 346.489 222.343V167.655C346.489 165.838 345.016 164.365 343.199 164.365Z" fill="#3D51D2"/>
<path d="M135.341 96.3999L129.214 109.328C127.188 113.64 125.205 117.977 123.441 122.273L122.808 123.873C122.715 124.119 122.69 124.173 122.622 124.382C122.555 124.585 122.498 124.792 122.453 125.002C122.23 126.016 122.063 127.042 121.953 128.075C121.717 130.29 121.582 132.633 121.497 134.984C121.328 139.695 121.286 144.525 121.227 149.304L116.602 149.822C115.543 144.997 114.775 140.114 114.302 135.197C114.048 132.659 113.93 130.109 113.947 127.558C113.952 126.178 114.048 124.8 114.234 123.433C114.276 123.077 114.361 122.669 114.445 122.279C114.529 121.889 114.673 121.371 114.766 121.048L115.348 119.24C116.926 114.461 118.766 109.903 120.699 105.413C122.632 100.923 124.699 96.5129 126.928 92.1289L135.341 96.3999Z" fill="#FFC3BD"/>
<path d="M121.16 147.848L123.321 151.914L116.421 153.849C116.421 153.849 115.104 150.581 116.666 148.009L121.16 147.848Z" fill="#FFC3BD"/>
<path d="M125.969 157.778L119.622 158.278L116.422 153.847L123.322 151.912L125.969 157.778Z" fill="#FFC3BD"/>
<path d="M155.992 62.8369C156.092 63.3289 156.431 63.6859 156.752 63.6089C157.073 63.5319 157.252 63.0909 157.157 62.5989C157.062 62.1069 156.718 61.7499 156.397 61.8269C156.076 61.9039 155.891 62.3109 155.992 62.8369Z" fill="#3D51D2"/>
<path d="M156.387 63.6855C157.274 65.0706 158.348 66.3274 159.577 67.4205C159.293 67.7299 158.945 67.9732 158.557 68.133C158.169 68.2929 157.751 68.3654 157.332 68.3456L156.387 63.6855Z" fill="#ED847E"/>
<path d="M153.611 60.4695C153.694 60.4678 153.772 60.4345 153.83 60.3765C154.071 60.0959 154.375 59.8768 154.717 59.7376C155.059 59.5984 155.429 59.5432 155.797 59.5765C155.87 59.5789 155.941 59.555 155.997 59.5092C156.053 59.4633 156.091 59.3987 156.103 59.3272C156.115 59.2557 156.101 59.1822 156.063 59.1203C156.026 59.0584 155.967 59.0123 155.897 58.9905C155.428 58.9355 154.952 58.9955 154.511 59.1656C154.07 59.3356 153.677 59.6105 153.365 59.9665C153.326 60.0088 153.3 60.0614 153.29 60.1181C153.28 60.1749 153.286 60.2334 153.308 60.2865C153.331 60.3392 153.368 60.3842 153.416 60.4162C153.463 60.4483 153.519 60.4661 153.576 60.4675L153.611 60.4695Z" fill="#3D51D2"/>
<path d="M142.03 69.7715C142.916 74.3295 143.811 82.6905 140.637 85.7295C140.637 85.7295 141.878 90.3645 150.301 90.3645C159.585 90.3645 154.732 85.7385 154.732 85.7385C149.668 84.5165 149.803 80.7475 150.681 77.1995L142.03 69.7715Z" fill="#FFC3BD"/>
<path d="M138.526 87.3488C137.792 86.0248 136.973 84.5138 138.661 84.0488C140.509 83.5228 150.661 82.9958 154.161 83.9728C157.661 84.9498 156.693 87.6228 156.693 87.6228L138.526 87.3488Z" fill="#3D51D2"/>
<path d="M112.348 294.362C112.87 294.486 113.419 294.397 113.876 294.116C113.957 294.02 114.006 293.901 114.018 293.776C114.03 293.652 114.004 293.526 113.943 293.416C113.905 293.325 113.847 293.243 113.774 293.175C113.702 293.108 113.615 293.057 113.521 293.026C112.677 292.712 110.821 293.705 110.736 293.747C110.711 293.76 110.691 293.781 110.677 293.806C110.664 293.831 110.658 293.859 110.661 293.887C110.663 293.915 110.674 293.942 110.692 293.964C110.71 293.986 110.734 294.002 110.761 294.01C111.277 294.18 111.809 294.298 112.348 294.362ZM113.248 293.262L113.425 293.304C113.483 293.326 113.535 293.36 113.579 293.404C113.623 293.447 113.657 293.499 113.68 293.557C113.703 293.614 113.714 293.675 113.712 293.737C113.711 293.799 113.696 293.859 113.67 293.915C113.37 294.229 112.109 294.102 111.206 293.839C111.835 293.497 112.533 293.3 113.248 293.262Z" fill="#3D51D2"/>
<path d="M110.792 294.038C110.814 294.047 110.838 294.047 110.86 294.038C111.535 293.758 112.919 292.538 112.86 291.831C112.851 291.721 112.804 291.618 112.727 291.539C112.65 291.46 112.548 291.41 112.438 291.398C112.329 291.37 112.215 291.365 112.104 291.386C111.993 291.406 111.889 291.451 111.797 291.517C111.021 292.026 110.674 293.8 110.666 293.877C110.662 293.902 110.664 293.928 110.673 293.952C110.682 293.976 110.697 293.997 110.717 294.013C110.727 294.023 110.739 294.03 110.752 294.034C110.765 294.038 110.778 294.04 110.792 294.038ZM112.202 291.857H112.261C112.447 291.916 112.447 292.001 112.447 292.044C112.447 292.46 111.485 293.334 110.759 293.691C110.928 293.002 111.302 292.38 111.831 291.908C111.885 291.871 111.945 291.846 112.009 291.833C112.073 291.82 112.138 291.819 112.202 291.832V291.857Z" fill="#3D51D2"/>
<path d="M157.129 300.302C157.922 300.302 158.69 300.192 158.944 299.827C159.013 299.733 159.05 299.62 159.05 299.504C159.05 299.388 159.013 299.275 158.944 299.182C158.842 299.009 158.675 298.884 158.48 298.834C157.45 298.554 155.28 299.802 155.188 299.853C155.161 299.863 155.137 299.882 155.12 299.906C155.103 299.93 155.094 299.959 155.094 299.989C155.094 300.018 155.103 300.047 155.12 300.072C155.137 300.096 155.161 300.115 155.188 300.125C155.829 300.241 156.479 300.3 157.129 300.302ZM158.108 299.088C158.204 299.074 158.3 299.074 158.395 299.088C158.455 299.099 158.511 299.123 158.56 299.157C158.61 299.192 158.651 299.236 158.682 299.288C158.782 299.475 158.75 299.568 158.682 299.619C158.395 300.019 156.825 300.026 155.682 299.865C156.437 299.463 157.263 299.212 158.113 299.126L158.108 299.088Z" fill="#3D51D2"/>
<path d="M155.296 300.126C156.039 299.786 157.524 298.426 157.414 297.732C157.414 297.571 157.271 297.359 156.865 297.316C156.714 297.299 156.562 297.313 156.417 297.356C156.271 297.4 156.137 297.473 156.021 297.571C155.461 298.252 155.125 299.091 155.059 299.971C155.058 299.996 155.062 300.022 155.073 300.045C155.083 300.069 155.098 300.09 155.118 300.107C155.144 300.124 155.173 300.135 155.204 300.138C155.235 300.141 155.267 300.137 155.296 300.126ZM156.807 297.58H156.891C157.161 297.58 157.178 297.716 157.178 297.75C157.246 298.166 156.241 299.227 155.49 299.694C155.569 298.98 155.863 298.308 156.334 297.767C156.458 297.671 156.607 297.612 156.764 297.597L156.807 297.58Z" fill="#3D51D2"/>
<path d="M148.438 299.981H154.638L155.254 285.543H149.053L148.438 299.981Z" fill="#FFC3BD"/>
<path d="M103.746 293.096L109.907 293.767L114.557 279.753L108.396 279.082L103.746 293.096Z" fill="#FFC3BD"/>
<path d="M110.421 293.096L103.502 292.341C103.379 292.328 103.255 292.357 103.151 292.423C103.047 292.49 102.968 292.589 102.928 292.706L101.122 298.088C101.078 298.218 101.064 298.357 101.081 298.493C101.099 298.63 101.147 298.76 101.222 298.876C101.296 298.991 101.396 299.088 101.513 299.158C101.631 299.229 101.763 299.272 101.9 299.284C104.322 299.513 105.512 299.496 108.559 299.827C110.433 300.027 114.273 300.676 116.859 300.927C119.445 301.178 120.059 298.678 119.028 298.327C114.386 296.765 112.757 295.127 111.381 293.582C111.13 293.306 110.788 293.132 110.419 293.09L110.421 293.096Z" fill="#3D51D2"/>
<path d="M154.596 299.26H147.844C147.722 299.259 147.603 299.301 147.507 299.379C147.412 299.456 147.346 299.564 147.321 299.684L146.097 305.227C146.067 305.36 146.066 305.499 146.097 305.633C146.127 305.766 146.187 305.892 146.272 305.999C146.357 306.106 146.466 306.192 146.589 306.251C146.712 306.31 146.847 306.34 146.983 306.339C149.431 306.297 152.959 306.152 156.031 306.152C159.618 306.152 162.715 306.352 166.931 306.352C169.463 306.352 170.18 303.763 169.117 303.525C164.264 302.464 160.306 302.345 156.117 299.748C155.666 299.447 155.14 299.28 154.598 299.264L154.596 299.26Z" fill="#3D51D2"/>
<path d="M163.841 88.922C165.597 89.474 167.563 90.076 169.441 90.622C171.319 91.168 173.256 91.632 175.172 92.048C178.901 92.9312 182.699 93.4906 186.524 93.72C187.436 93.72 188.339 93.779 189.208 93.72H189.74C189.891 93.7252 190.041 93.7111 190.187 93.678C190.525 93.627 190.913 93.542 191.318 93.44C193.115 92.943 194.878 92.3276 196.593 91.598C200.222 90.104 203.944 88.355 207.624 86.666L210.198 90.566C207.001 93.4074 203.561 95.9634 199.918 98.205C197.996 99.4112 195.971 100.445 193.867 101.295C193.267 101.535 192.652 101.739 192.027 101.906C191.673 101.991 191.352 102.076 190.955 102.144L190.39 102.237L189.951 102.288C188.769 102.441 187.613 102.5 186.465 102.534C182.041 102.572 177.625 102.145 173.29 101.261C171.172 100.837 169.07 100.412 167.002 99.801C164.934 99.19 162.925 98.655 160.773 97.874L163.841 88.922Z" fill="#FFC3BD"/>
<path d="M129.533 87.1482C123.726 88.4812 117.852 105.576 117.852 105.576L129.811 114.2C129.811 114.2 133.187 106.247 136.436 99.2862C139.88 92.0222 135.475 85.7732 129.533 87.1482Z" fill="#3D51D2"/>
<path d="M164.27 87.4626C164.27 87.4626 170.87 94.9625 164.633 141.363H131.472C131.244 136.27 134.443 111.272 129.531 87.1485C133.199 86.4338 136.909 85.9601 140.638 85.7305C145.333 85.4544 150.039 85.4544 154.733 85.7305C157.952 86.0593 161.141 86.6384 164.27 87.4626Z" fill="#3D51D2"/>
<path opacity="0.3" d="M164.269 87.4625C164.269 87.4625 163.526 87.2625 162.319 86.9785C158.673 87.3605 156.901 91.5785 157.88 95.9595C158.606 99.2185 163.315 103.676 167.316 106.995C167.223 90.8235 164.269 87.4625 164.269 87.4625Z" fill="#364163"/>
<path d="M156.141 97.0376C159.103 102.199 175.3 107.224 175.3 107.224L180.735 92.5726C180.735 92.5726 171.451 90.0266 164.252 87.4796C155.348 84.2626 152.908 91.3666 156.141 97.0376Z" fill="#3D51D2"/>
<path d="M206.57 88.077L207.6 81.584L213.322 83.231C213.322 83.231 214.166 89.011 209.997 90.718L206.57 88.077Z" fill="#FFC3BD"/>
<path d="M210.066 75.8574L214.894 79.9404L213.324 83.2334L207.602 81.5864L210.066 75.8574Z" fill="#FFC3BD"/>
<path opacity="0.2" d="M155.246 285.543L154.934 292.987H148.734L149.046 285.543H155.246Z" fill="#364163"/>
<path opacity="0.2" d="M108.397 279.082L114.558 279.761L112.158 286.985L105.988 286.306L108.397 279.082Z" fill="#364163"/>
<path d="M139.433 65.1286C141.033 71.1126 141.661 74.6946 145.341 77.1736C150.861 80.9166 157.731 76.6216 157.941 70.2896C158.135 64.5896 155.502 55.7666 149.121 54.5606C147.715 54.2985 146.267 54.3988 144.911 54.8522C143.555 55.3055 142.337 56.0969 141.373 57.1516C140.404 58.2102 139.718 59.4965 139.378 60.891C139.039 62.2854 139.057 63.743 139.432 65.1286H139.433Z" fill="#FFC3BD"/>
<path d="M153.415 47.1507C153.377 47.5524 153.249 47.9404 153.041 48.2864C152.834 48.6324 152.552 48.9277 152.215 49.1507C151.936 46.0097 150.696 42.9887 147.915 41.5117C148.371 42.8447 147.071 44.9577 145.164 47.1117C144.953 46.3237 144.582 45.5876 144.074 44.9494C143.565 44.3112 142.931 43.7847 142.21 43.4027C140.944 48.3347 136.893 49.1497 133.677 52.1877C132.98 52.8782 132.506 53.7614 132.315 54.7237C132.124 55.6859 132.225 56.6834 132.605 57.5877C131.761 57.2057 130.757 57.2987 130.031 59.2007C130.727 58.7581 131.528 58.5092 132.352 58.4797C131.778 59.0227 131.331 59.9647 131.66 62.0867C132.234 65.6777 139.568 76.3467 144.202 75.8117C149.266 75.2257 150.194 69.3267 150.313 64.0047L150.507 63.9047C154.022 62.0307 158.361 51.9977 153.415 47.1507Z" fill="#2B3149"/>
<path d="M147.916 65.2308C148.548 66.628 149.621 67.7789 150.971 68.5068C152.76 69.4408 153.756 68.0738 153.36 66.2828C152.997 64.6618 151.672 62.2338 149.79 62.0388C147.908 61.8438 147.17 63.5328 147.916 65.2308Z" fill="#FFC3BD"/>
<path d="M152.874 141.361C152.874 141.361 145.835 189.014 141.974 206.873C137.754 226.396 115.498 286.28 115.498 286.28L104.332 284.217C104.332 284.217 120.959 228 123.373 208.672C125.998 187.664 131.473 141.394 131.473 141.394L152.874 141.361Z" fill="#556DD7"/>
<path opacity="0.2" d="M148.429 158.338C140.293 159.938 141.154 190.457 142.129 206.152C144.475 195.058 147.91 173.71 150.257 158.559C149.69 158.278 149.044 158.2 148.426 158.338H148.429Z" fill="#364163"/>
<path d="M164.632 141.361C164.632 141.361 165.476 187.987 164.818 207C164.118 226.777 157.218 291.543 157.218 291.543H146.739C146.739 291.543 146.351 227.932 145.895 208.511C145.389 187.333 142.84 141.361 142.84 141.361H164.632Z" fill="#556DD7"/>
<path opacity="0.2" d="M155.476 283.893L155.02 283.842C156.868 265.923 161.24 222.566 161.772 207.024C162.337 191.1 161.823 155.517 161.654 144.992L162.11 144.941C162.279 155.466 162.794 191.066 162.228 207.015C161.696 222.585 157.324 265.968 155.476 283.893Z" fill="#364163"/>
</svg>
