<svg width="45" height="41" viewBox="0 0 45 41" fill="none" xmlns="http://www.w3.org/2000/svg">
<path d="M15.1504 19.2087L13.4924 17.5557L17.5384 13.5057L21.5844 17.5557L19.9274 19.2137L18.7084 17.9917V24.9977H27.1244V17.9917L25.9084 19.2087L24.2524 17.5557L28.2984 13.5057L32.3434 17.5557L30.6864 19.2137L29.4704 17.9967V25.0027H34.2164C36.4549 25.0428 38.6226 24.2185 40.2688 22.701C41.915 21.1836 42.9128 19.09 43.0547 16.8557C43.1967 14.6214 42.4718 12.4183 41.0309 10.7048C39.59 8.99131 37.5439 7.89923 35.3184 7.65575C35.0824 5.80962 34.2609 4.08775 32.9744 2.74277C31.688 1.39779 30.0044 0.500523 28.1706 0.182623C26.3368 -0.135277 24.4494 0.142928 22.7853 0.976416C21.1212 1.8099 19.7681 3.15479 18.9244 4.81375C17.8825 4.58338 16.8041 4.57328 15.7581 4.78409C14.7121 4.9949 13.7217 5.42197 12.8504 6.03791C11.9791 6.65385 11.2462 7.44508 10.6986 8.36085C10.1509 9.27662 9.80073 10.2967 9.6704 11.3557C7.88085 11.394 6.17803 12.134 4.92912 13.4163C3.68022 14.6985 2.9853 16.4203 2.99423 18.2102C3.00315 20.0001 3.71519 21.7148 4.97682 22.9846C6.23844 24.2543 7.94856 24.9773 9.7384 24.9977H16.3664V17.9917L15.1504 19.2087Z" fill="#2533CC"/>
<path d="M27.1259 24.998V28.3391H18.7099V24.998H16.3659V28.3391H8.29688V40.058H37.5389V28.3391H29.4699V24.998H27.1259ZM16.0259 35.3701H13.6739V33.0261H16.0229L16.0259 35.3701ZM32.1649 35.3701H22.9179V33.0261H32.1579L32.1649 35.3701Z" fill="#2533CC"/>
</svg>
