<svg width="127" height="24" viewBox="0 0 127 24" fill="none" xmlns="http://www.w3.org/2000/svg">
<g clip-path="url(#clip0_537_6693)">
<path d="M102.807 23.9774H109.332C110.138 23.9898 110.921 23.7073 111.533 23.1831C112.127 22.6569 112.533 21.952 112.691 21.1746L113.043 19.3477H103.817L102.807 23.9774Z" fill="#2533CC"/>
<path d="M11.7207 4.62988L8.47528 19.359H1.08806L0.0894775 24.0001H7.06819C8.54525 23.9998 9.97959 23.5044 11.1419 22.593C12.2781 21.6853 13.0609 20.4087 13.3547 18.9845L16.3958 4.64123L11.7207 4.62988Z" fill="#2533CC"/>
<path d="M127 0H122.336L118.773 16.5447C120.1 16.4438 121.364 15.9367 122.393 15.0922C123.482 14.1859 124.234 12.9385 124.526 11.5518L127 0Z" fill="#2533CC"/>
<path d="M96.2029 11.5518L98.6993 0H94.0128L90.4384 16.5447C91.7632 16.4426 93.0257 15.94 94.0582 15.1035C95.1527 14.195 95.9084 12.9435 96.2029 11.5518Z" fill="#2533CC"/>
<path d="M22.7165 4.61877C21.6764 4.61469 20.6664 4.96729 19.8549 5.61776C19.0433 6.26823 18.4793 7.17725 18.2569 8.19324L17.315 12.4713C17.2088 12.9695 17.2149 13.4851 17.333 13.9806C17.4511 14.4762 17.6782 14.9392 17.9977 15.3359C18.3173 15.7326 18.7213 16.0531 19.1803 16.274C19.6393 16.495 20.1418 16.6108 20.6512 16.6131H23.1817L23.159 16.5904H24.2257L25.1902 12.0174H22.0697L22.6597 9.24855H27.2668L25.0881 19.3365H15.7945L14.7959 23.9776H23.7831C25.2923 23.9095 26.6087 23.4216 27.6413 22.5932C28.6739 21.7649 29.4342 20.5847 29.8087 19.1322L32.9746 4.60742H22.7165V4.61877Z" fill="#2533CC"/>
<path d="M75.4257 9.1917H80.0554L81.1108 4.62999H78.0242C77.5671 4.6251 77.1228 4.78179 76.7699 5.07244C76.417 5.36308 76.178 5.76902 76.0952 6.21865L75.4257 9.1917Z" fill="#FB8D04"/>
<path d="M73.1901 19.3472H82.4837L85.661 4.61816H90.4156L87.3632 18.8253C87.059 20.2159 86.3114 21.4701 85.2329 22.3993C84.1544 23.3284 82.8034 23.8821 81.383 23.977H67.505L70.6823 9.24795H75.3915L73.1901 19.3472Z" fill="#2533CC"/>
<path d="M49.7008 4.61816L48.0781 12.0167H38.7051L40.3051 4.61816H35.6412L31.4767 23.9657C32.27 23.9006 33.0458 23.6971 33.7689 23.3643C34.7117 22.9407 35.5373 22.2943 36.1746 21.4806C36.6238 20.8861 36.9375 20.2006 37.0937 19.4721L37.7178 16.5784H46.4781C47.9831 16.591 49.4491 16.0997 50.6426 15.1827C51.8071 14.2838 52.6152 13.0012 52.9235 11.5628V11.5401L54.3987 4.62951L49.7008 4.61816Z" fill="#2533CC"/>
<path d="M56.9859 4.62988L55.4199 12.0171H52.8213L51.8228 16.5902H53.888C55.454 16.5788 56.8837 16.0795 57.9845 15.1944C59.1257 14.2845 59.9125 13.0038 60.2086 11.5746L60.2426 11.4157L61.7064 4.62988H56.9859Z" fill="#2533CC"/>
<path d="M64.3391 4.62988L62.7732 12.0171H60.1746L59.176 16.5902H61.2413C62.8072 16.5788 64.237 16.0795 65.3377 15.1944C66.479 14.2845 67.2658 13.0038 67.5618 11.5746L67.5959 11.4157L69.0597 4.62988H64.3391Z" fill="#2533CC"/>
<path d="M114.053 4.64123L112.475 12.0625L103.375 12.0285L104.975 4.62988H100.367L97.1107 19.359H89.837L88.8497 24.0001H95.976C97.4852 23.7845 98.688 23.2965 99.6299 22.559C100.572 21.8214 101.264 20.8568 101.729 19.654L102.41 16.5788L110.864 16.6129C113.871 16.5788 116.322 14.7405 117.184 12.1079L118.75 4.64123H114.053Z" fill="#2533CC"/>
</g>
<defs>
<clipPath id="clip0_537_6693">
<rect width="126.911" height="24" fill="white" transform="translate(0.0894775)"/>
</clipPath>
</defs>
</svg>
