<svg width="478" height="412" viewBox="0 0 478 412" fill="none" xmlns="http://www.w3.org/2000/svg">
<path d="M136.473 257.258C135.907 257.565 125.452 260.533 121.573 255.417C117.694 250.301 124.127 242.327 120.493 239.388C116.859 236.449 106.679 239.405 104.228 233.213C101.777 227.021 109.042 224.369 104.959 218.138C102.388 214.213 96.0731 212.015 95.5171 208.387C94.5871 202.323 104.636 199.537 113.23 205.261C121.824 210.985 127.021 208.361 129.748 207.979C132.475 207.597 138.354 208.442 138.165 218.015C137.976 227.588 136.473 257.258 136.473 257.258Z" fill="#0DBF66"/>
<path d="M137.163 243.644C137.028 243.644 136.897 243.596 136.794 243.509C136.692 243.421 136.623 243.3 136.601 243.167C133.609 225.002 112.492 210.217 101.513 207.044C101.368 207.002 101.245 206.904 101.172 206.772C101.099 206.64 101.082 206.484 101.124 206.339C101.166 206.194 101.264 206.072 101.396 205.999C101.528 205.926 101.684 205.908 101.829 205.95C113.057 209.195 134.654 224.344 137.729 242.982C137.753 243.131 137.717 243.284 137.629 243.407C137.541 243.529 137.408 243.612 137.259 243.637C137.227 243.642 137.195 243.644 137.163 243.644Z" fill="white"/>
<path d="M112.267 228.435C112.142 228.435 112.02 228.395 111.921 228.319C111.821 228.244 111.749 228.137 111.716 228.017C111.683 227.896 111.69 227.768 111.737 227.652C111.784 227.536 111.867 227.439 111.975 227.376C112.317 227.176 120.441 222.424 128.446 224.645C128.518 224.665 128.586 224.699 128.645 224.745C128.704 224.791 128.753 224.848 128.79 224.913C128.827 224.979 128.851 225.051 128.86 225.125C128.869 225.199 128.864 225.275 128.844 225.347C128.824 225.419 128.79 225.487 128.743 225.546C128.697 225.605 128.64 225.654 128.575 225.691C128.509 225.728 128.438 225.752 128.363 225.761C128.289 225.77 128.213 225.765 128.141 225.745C120.611 223.655 112.641 228.312 112.557 228.358C112.469 228.409 112.369 228.435 112.267 228.435V228.435Z" fill="white"/>
<path d="M140.527 264.235C140.634 265.689 141.082 267.098 141.834 268.347C142.586 269.596 143.623 270.651 144.858 271.425L266.183 341.472C267.525 342.153 269.009 342.508 270.514 342.508C272.019 342.508 273.502 342.153 274.844 341.472L440.851 245.628C442.159 244.936 443.253 243.901 444.016 242.634C444.779 241.367 445.182 239.916 445.182 238.437C445.182 236.958 444.779 235.507 444.016 234.24C443.253 232.973 442.159 231.938 440.851 231.247L319.525 161.2C318.184 160.519 316.7 160.164 315.195 160.164C313.691 160.164 312.207 160.519 310.865 161.2L144.857 257.044C143.622 257.818 142.586 258.873 141.833 260.122C141.081 261.371 140.634 262.78 140.527 264.235V264.235Z" fill="#E9EBEF"/>
<path d="M270.514 333.134V342.504C269.006 342.536 267.516 342.182 266.184 341.474L144.854 271.424C143.585 270.756 142.516 269.763 141.756 268.547C140.996 267.331 140.572 265.936 140.527 264.502C140.483 263.069 140.819 261.65 141.502 260.389C142.184 259.128 143.189 258.07 144.414 257.324C142.474 258.714 142.625 260.754 144.854 262.044L266.184 332.094C267.515 332.805 269.005 333.163 270.514 333.134V333.134Z" fill="#A3ACC0"/>
<path d="M136.464 257.198C135.258 256.379 134.262 255.287 133.556 254.011C132.85 252.735 132.455 251.31 132.402 249.853V105.068C132.484 103.566 132.918 102.103 133.67 100.8C134.423 99.497 135.472 98.3897 136.732 97.5681L302.739 1.72405C304.028 1.04104 305.459 0.67109 306.917 0.644162C308.375 0.617233 309.819 0.934087 311.131 1.56905C312.338 2.38788 313.336 3.47959 314.042 4.7557C314.748 6.03182 315.144 7.45642 315.197 8.91405V153.699C315.116 155.202 314.681 156.664 313.929 157.967C313.177 159.27 312.128 160.377 310.867 161.199L144.856 257.043C143.568 257.726 142.137 258.096 140.679 258.123C139.221 258.15 137.777 257.833 136.464 257.198V257.198Z" fill="#E9EBEF"/>
<path d="M144.346 257.305C143.105 257.864 141.756 258.144 140.395 258.125C139.033 258.106 137.692 257.789 136.467 257.195C135.261 256.376 134.265 255.285 133.56 254.01C132.854 252.735 132.459 251.311 132.406 249.855V105.065C132.456 103.559 132.893 102.092 133.676 100.805L141.796 105.485V105.495C141.018 106.784 140.581 108.25 140.526 109.755V254.545C140.526 257.105 142.199 258.255 144.346 257.305Z" fill="#E9EBEF"/>
<path d="M140.527 109.758V254.543C140.527 257.304 142.465 258.424 144.857 257.043L310.865 161.199C312.126 160.377 313.175 159.269 313.927 157.966C314.679 156.663 315.114 155.201 315.195 153.699V8.91371C315.195 6.15271 313.256 5.03271 310.865 6.41371L144.857 102.258C143.597 103.079 142.548 104.187 141.796 105.49C141.043 106.793 140.609 108.255 140.527 109.758V109.758Z" fill="white"/>
<path d="M144.856 262.044L266.183 332.091C267.525 332.772 269.008 333.127 270.513 333.127C272.018 333.127 273.502 332.772 274.844 332.091L440.85 236.247C443.242 234.866 443.242 232.628 440.85 231.247L319.525 161.2C318.183 160.519 316.699 160.164 315.195 160.164C313.69 160.164 312.206 160.519 310.865 161.2L144.856 257.044C142.464 258.425 142.464 260.663 144.856 262.044Z" fill="#E9EBEF"/>
<path d="M147.186 110.293L307.239 17.9113C308.674 17.0833 309.839 17.7543 309.839 19.4113V144.745C309.79 145.647 309.529 146.524 309.077 147.306C308.626 148.088 307.996 148.753 307.239 149.245L147.186 241.626C145.751 242.454 144.586 241.782 144.586 240.126V114.793C144.635 113.892 144.896 113.014 145.348 112.232C145.8 111.451 146.429 110.786 147.186 110.293V110.293Z" fill="white"/>
<path opacity="0.6" d="M147.186 110.293L307.239 17.9113C308.674 17.0833 309.839 17.7543 309.839 19.4113V144.745C309.79 145.647 309.529 146.524 309.077 147.306C308.626 148.088 307.996 148.753 307.239 149.245L147.186 241.626C145.751 242.454 144.586 241.782 144.586 240.126V114.793C144.635 113.892 144.896 113.014 145.348 112.232C145.8 111.451 146.429 110.786 147.186 110.293V110.293Z" fill="#E9EBEF"/>
<path d="M226.872 102.369C231.133 99.9076 234.588 101.903 234.588 106.823C234.443 109.5 233.669 112.105 232.328 114.427C230.988 116.749 229.118 118.722 226.872 120.187C222.611 122.647 219.156 120.653 219.156 115.732C219.301 113.055 220.076 110.449 221.416 108.128C222.757 105.806 224.626 103.833 226.872 102.369Z" fill="#2343A3"/>
<path d="M242.077 128.683C242.077 120.599 236.401 117.01 229.401 121.052L225.024 123.579C218.024 127.621 212.348 137.451 212.348 145.535V147.71L242.077 130.558V128.683Z" fill="#2343A3"/>
<path d="M257.111 132.679C256.828 132.027 256.111 131.863 255.297 132.328L203.379 162.284C202.821 162.649 202.357 163.141 202.023 163.719C201.69 164.297 201.498 164.945 201.461 165.611V171.72C201.461 172.759 202.081 173.268 202.92 173.032C203.007 173.007 203.057 172.989 203.057 172.989C203.168 172.945 203.276 172.892 203.379 172.831L255.299 142.875C255.858 142.511 256.324 142.02 256.658 141.442C256.992 140.863 257.184 140.215 257.22 139.548V133.435C257.224 133.179 257.188 132.923 257.111 132.679V132.679Z" fill="#2343A3"/>
<path d="M208.07 163.04C209.077 162.458 209.893 162.93 209.893 164.093C209.859 164.726 209.676 165.342 209.359 165.891C209.042 166.44 208.601 166.906 208.07 167.252C207.063 167.833 206.246 167.362 206.246 166.199C206.28 165.566 206.463 164.95 206.78 164.402C207.097 163.853 207.539 163.386 208.07 163.04V163.04Z" fill="white"/>
<path d="M214.101 159.558C215.108 158.976 215.924 159.448 215.924 160.611C215.89 161.244 215.707 161.859 215.39 162.408C215.074 162.957 214.632 163.424 214.101 163.77C213.093 164.351 212.277 163.88 212.277 162.717C212.311 162.084 212.494 161.468 212.811 160.919C213.128 160.37 213.57 159.904 214.101 159.558V159.558Z" fill="white"/>
<path d="M220.137 156.076C221.144 155.494 221.96 155.965 221.96 157.129C221.925 157.761 221.742 158.377 221.426 158.926C221.109 159.474 220.667 159.941 220.137 160.287C219.129 160.869 218.312 160.398 218.312 159.234C218.347 158.601 218.53 157.985 218.847 157.436C219.163 156.888 219.605 156.421 220.137 156.076V156.076Z" fill="white"/>
<path d="M226.168 152.591C227.175 152.01 227.991 152.481 227.991 153.645C227.957 154.277 227.774 154.893 227.457 155.442C227.14 155.99 226.699 156.457 226.168 156.803C225.16 157.385 224.344 156.913 224.344 155.75C224.378 155.117 224.561 154.501 224.878 153.952C225.195 153.403 225.637 152.937 226.168 152.591Z" fill="white"/>
<path d="M232.199 149.108C233.206 148.527 234.022 148.998 234.022 150.161C233.988 150.794 233.805 151.41 233.488 151.959C233.172 152.508 232.73 152.974 232.199 153.32C231.191 153.902 230.375 153.43 230.375 152.267C230.409 151.634 230.592 151.018 230.909 150.47C231.226 149.921 231.668 149.454 232.199 149.108V149.108Z" fill="white"/>
<path d="M238.233 145.626C239.241 145.045 240.057 145.516 240.057 146.679C240.023 147.312 239.84 147.928 239.523 148.477C239.206 149.025 238.764 149.492 238.233 149.838C237.226 150.42 236.41 149.948 236.41 148.785C236.444 148.152 236.627 147.536 236.944 146.987C237.261 146.439 237.702 145.972 238.233 145.626V145.626Z" fill="white"/>
<path d="M244.268 142.141C245.275 141.56 246.092 142.031 246.092 143.194C246.058 143.827 245.875 144.443 245.558 144.992C245.241 145.541 244.799 146.007 244.268 146.353C243.261 146.935 242.445 146.463 242.445 145.3C242.48 144.668 242.662 144.052 242.979 143.503C243.296 142.954 243.738 142.488 244.268 142.141V142.141Z" fill="white"/>
<path d="M250.296 138.659C251.304 138.078 252.12 138.549 252.12 139.712C252.085 140.345 251.902 140.961 251.586 141.51C251.269 142.059 250.827 142.525 250.296 142.871C249.289 143.452 248.473 142.981 248.473 141.818C248.507 141.185 248.69 140.569 249.006 140.021C249.323 139.472 249.765 139.005 250.296 138.659V138.659Z" fill="white"/>
<path d="M158.938 258.294L313.029 169.334C313.7 168.994 314.441 168.816 315.194 168.816C315.946 168.816 316.688 168.994 317.359 169.334L325.24 173.885C325.501 173.973 325.729 174.141 325.89 174.365C326.051 174.59 326.138 174.859 326.138 175.135C326.138 175.411 326.051 175.68 325.89 175.905C325.729 176.129 325.501 176.297 325.24 176.385L171.126 265.334C170.455 265.674 169.713 265.851 168.961 265.851C168.208 265.851 167.467 265.674 166.796 265.334L158.938 260.797C158.675 260.709 158.446 260.542 158.284 260.317C158.122 260.092 158.035 259.822 158.035 259.545C158.035 259.269 158.122 258.999 158.284 258.774C158.446 258.549 158.675 258.381 158.938 258.294V258.294Z" fill="#A3ACC0"/>
<path d="M179.252 270.02L333.341 181.055C334.012 180.714 334.753 180.537 335.506 180.537C336.258 180.537 337 180.714 337.671 181.055L386.148 209.044C386.409 209.132 386.636 209.301 386.797 209.525C386.957 209.749 387.044 210.018 387.044 210.294C387.044 210.57 386.957 210.838 386.797 211.063C386.636 211.287 386.409 211.455 386.148 211.544L232.235 300.386C231.563 300.726 230.821 300.904 230.068 300.905C229.315 300.906 228.572 300.73 227.9 300.392L179.256 272.513C178.994 272.426 178.766 272.259 178.605 272.035C178.443 271.812 178.356 271.543 178.355 271.268C178.355 270.992 178.441 270.723 178.602 270.499C178.763 270.275 178.99 270.107 179.252 270.02Z" fill="#A3ACC0"/>
<path d="M317.379 221.081L322.203 218.296C322.403 218.177 322.396 217.978 322.176 217.851L316.598 214.634C316.48 214.571 316.349 214.537 316.215 214.535C316.082 214.532 315.949 214.561 315.829 214.619L311.004 217.404C310.799 217.522 310.811 217.721 311.032 217.848L316.61 221.069C316.728 221.131 316.86 221.165 316.993 221.167C317.127 221.169 317.259 221.14 317.379 221.081V221.081ZM307.858 210.013L303.033 212.799C302.833 212.917 302.841 213.116 303.061 213.243L308.64 216.464C308.758 216.527 308.889 216.561 309.023 216.564C309.156 216.567 309.289 216.538 309.409 216.48L314.234 213.694C314.439 213.576 314.427 213.377 314.207 213.25L308.628 210.034C308.51 209.971 308.379 209.936 308.246 209.932C308.112 209.928 307.979 209.956 307.858 210.013V210.013ZM292.271 219.013L284.106 223.727C283.906 223.845 283.914 224.044 284.134 224.171L289.713 227.391C289.831 227.454 289.962 227.489 290.096 227.491C290.229 227.494 290.362 227.465 290.482 227.407L298.647 222.694C298.852 222.575 298.84 222.376 298.619 222.249L293.041 219.028C292.923 218.965 292.792 218.931 292.658 218.929C292.524 218.926 292.392 218.955 292.271 219.013V219.013ZM300.807 214.084L295.982 216.87C295.782 216.988 295.789 217.187 296.01 217.314L301.589 220.535C301.707 220.598 301.838 220.632 301.972 220.635C302.105 220.638 302.238 220.609 302.358 220.551L307.182 217.766C307.387 217.647 307.376 217.448 307.155 217.321L301.576 214.101C301.458 214.038 301.327 214.004 301.194 214.001C301.06 213.998 300.928 214.026 300.807 214.084ZM281.88 225.012L277.055 227.797C276.85 227.916 276.863 228.115 277.082 228.242L282.662 231.463C282.78 231.526 282.911 231.56 283.045 231.563C283.178 231.566 283.311 231.537 283.431 231.479L288.256 228.693C288.456 228.575 288.448 228.376 288.228 228.249L282.649 225.028C282.531 224.966 282.4 224.931 282.267 224.929C282.133 224.926 282.001 224.954 281.88 225.012ZM274.828 229.083L270.004 231.869C269.799 231.987 269.811 232.186 270.031 232.313L275.61 235.533C275.728 235.597 275.859 235.631 275.993 235.634C276.127 235.637 276.26 235.608 276.38 235.549L281.204 232.764C281.409 232.645 281.397 232.447 281.177 232.32L275.598 229.099C275.48 229.037 275.349 229.002 275.215 229C275.081 228.997 274.949 229.025 274.828 229.083V229.083ZM296.772 242.183L301.598 239.395C301.798 239.277 301.791 239.078 301.57 238.951L295.992 235.73C295.874 235.667 295.743 235.633 295.609 235.631C295.475 235.628 295.343 235.657 295.222 235.715L290.398 238.5C290.193 238.618 290.205 238.817 290.425 238.944L296.004 242.165C296.122 242.228 296.253 242.262 296.386 242.265C296.52 242.268 296.652 242.239 296.772 242.181V242.183ZM289.721 246.254L294.546 243.469C294.751 243.35 294.738 243.151 294.518 243.024L288.94 239.803C288.822 239.741 288.691 239.706 288.557 239.704C288.423 239.701 288.291 239.73 288.17 239.787L283.345 242.573C283.145 242.691 283.153 242.89 283.372 243.017L288.951 246.238C289.069 246.301 289.201 246.335 289.335 246.337C289.468 246.339 289.601 246.31 289.721 246.252V246.254ZM282.67 250.325L287.498 247.534C287.703 247.416 287.691 247.218 287.471 247.09L281.892 243.869C281.774 243.807 281.643 243.772 281.51 243.77C281.376 243.767 281.244 243.795 281.123 243.853L276.298 246.639C276.093 246.758 276.105 246.956 276.326 247.083L281.904 250.304C282.022 250.367 282.152 250.401 282.285 250.405C282.418 250.408 282.55 250.38 282.67 250.323V250.325ZM275.618 254.396L280.443 251.611C280.648 251.492 280.636 251.293 280.415 251.166L274.837 247.946C274.719 247.883 274.588 247.849 274.454 247.846C274.32 247.843 274.188 247.872 274.067 247.93L269.243 250.715C269.038 250.833 269.05 251.032 269.27 251.16L274.849 254.38C274.967 254.443 275.098 254.477 275.232 254.479C275.366 254.482 275.498 254.453 275.618 254.394V254.396ZM310.328 225.154L315.152 222.369C315.357 222.25 315.345 222.051 315.125 221.924L309.546 218.704C309.428 218.641 309.297 218.607 309.164 218.604C309.03 218.601 308.898 218.63 308.777 218.688L303.952 221.473C303.747 221.592 303.759 221.79 303.979 221.918L309.558 225.139C309.677 225.202 309.808 225.235 309.942 225.238C310.075 225.24 310.208 225.211 310.328 225.152V225.154ZM303.828 238.112L314.59 231.898C314.79 231.78 314.783 231.581 314.563 231.454L301.01 223.634C300.892 223.572 300.761 223.537 300.628 223.535C300.494 223.532 300.362 223.56 300.241 223.618L294.674 226.832C294.469 226.95 294.481 227.149 294.701 227.276L301.874 231.417C302.094 231.544 302.106 231.743 301.901 231.862L297.448 234.434C297.243 234.552 297.255 234.751 297.475 234.878L303.054 238.099C303.173 238.161 303.304 238.195 303.438 238.197C303.572 238.198 303.704 238.169 303.824 238.11L303.828 238.112ZM267.781 233.156L262.956 235.942C262.756 236.06 262.764 236.259 262.984 236.386L268.563 239.607C268.681 239.67 268.812 239.704 268.946 239.707C269.079 239.71 269.212 239.681 269.332 239.623L274.157 236.837C274.362 236.719 274.35 236.52 274.129 236.393L268.551 233.172C268.433 233.109 268.301 233.074 268.166 233.071C268.032 233.067 267.899 233.096 267.777 233.154L267.781 233.156ZM260.73 237.227L255.905 240.013C255.705 240.131 255.712 240.33 255.933 240.457L261.511 243.678C261.629 243.741 261.761 243.775 261.894 243.778C262.028 243.781 262.161 243.752 262.281 243.694L267.105 240.908C267.311 240.79 267.298 240.591 267.078 240.464L261.499 237.243C261.381 237.18 261.249 237.145 261.115 237.142C260.981 237.138 260.847 237.167 260.726 237.225L260.73 237.227ZM225.494 282.878C225.612 282.941 225.743 282.975 225.877 282.978C226.01 282.981 226.143 282.952 226.263 282.894L231.088 280.108C231.293 279.99 231.281 279.79 231.06 279.664L225.482 276.443C225.364 276.381 225.233 276.346 225.099 276.344C224.965 276.341 224.833 276.369 224.712 276.427L219.888 279.212C219.683 279.331 219.695 279.53 219.915 279.657L225.494 282.878ZM204.315 269.794L199.491 272.579C199.286 272.697 199.298 272.896 199.518 273.024L205.097 276.244C205.215 276.307 205.346 276.342 205.48 276.344C205.614 276.347 205.747 276.318 205.867 276.26L210.691 273.475C210.896 273.356 210.884 273.157 210.664 273.03L205.085 269.81C204.967 269.747 204.836 269.713 204.702 269.71C204.568 269.707 204.436 269.736 204.315 269.794V269.794ZM215.664 279.346C215.782 279.409 215.914 279.443 216.047 279.446C216.181 279.449 216.314 279.42 216.434 279.362L221.259 276.576C221.459 276.458 221.451 276.259 221.231 276.132L215.653 272.911C215.535 272.849 215.404 272.814 215.27 272.812C215.136 272.809 215.004 272.837 214.883 272.895L210.058 275.681C209.853 275.799 209.866 275.998 210.086 276.125L215.664 279.346ZM237.94 285.346L242.765 282.561C242.965 282.442 242.957 282.243 242.738 282.116L237.159 278.895C237.041 278.833 236.91 278.799 236.776 278.796C236.642 278.793 236.51 278.822 236.389 278.88L231.564 281.665C231.364 281.783 231.372 281.983 231.592 282.11L237.17 285.33C237.288 285.394 237.419 285.429 237.553 285.432C237.687 285.436 237.819 285.408 237.94 285.35V285.346ZM230.119 289.401C230.237 289.464 230.368 289.499 230.502 289.501C230.636 289.504 230.769 289.475 230.889 289.417L235.713 286.634C235.918 286.515 235.906 286.317 235.686 286.19L230.107 282.969C229.989 282.906 229.858 282.872 229.725 282.869C229.591 282.866 229.459 282.895 229.338 282.953L224.513 285.738C224.313 285.857 224.32 286.055 224.541 286.182L230.119 289.401ZM211.367 265.719L206.542 268.504C206.337 268.623 206.35 268.821 206.57 268.948L212.148 272.169C212.266 272.232 212.398 272.266 212.531 272.269C212.665 272.272 212.798 272.243 212.918 272.185L217.742 269.4C217.948 269.281 217.935 269.083 217.715 268.955L212.137 265.735C212.019 265.673 211.887 265.639 211.754 265.637C211.62 265.635 211.487 265.664 211.367 265.723V265.719ZM246.623 245.363L241.798 248.149C241.598 248.267 241.606 248.466 241.826 248.593L247.405 251.814C247.523 251.877 247.654 251.911 247.788 251.914C247.921 251.917 248.054 251.888 248.174 251.83L252.999 249.044C253.204 248.926 253.191 248.727 252.972 248.6L247.393 245.379C247.275 245.317 247.143 245.284 247.01 245.282C246.876 245.28 246.744 245.309 246.623 245.367V245.363ZM218.423 261.648L213.598 264.434C213.393 264.552 213.405 264.752 213.625 264.878L219.203 268.099C219.321 268.162 219.452 268.197 219.586 268.199C219.72 268.202 219.853 268.173 219.973 268.115L224.798 265.334C225.003 265.215 224.99 265.016 224.77 264.889L219.192 261.668C219.074 261.605 218.942 261.57 218.807 261.568C218.673 261.565 218.539 261.594 218.418 261.652L218.423 261.648ZM253.679 241.292L248.855 244.078C248.65 244.196 248.662 244.395 248.883 244.522L254.461 247.743C254.579 247.806 254.711 247.84 254.844 247.843C254.978 247.846 255.111 247.817 255.231 247.759L260.055 244.973C260.26 244.855 260.248 244.656 260.028 244.529L254.449 241.308C254.33 241.245 254.198 241.211 254.063 241.209C253.928 241.207 253.795 241.237 253.674 241.296L253.679 241.292ZM239.579 249.435L234.755 252.22C234.549 252.338 234.561 252.537 234.782 252.664L240.361 255.885C240.479 255.948 240.61 255.982 240.744 255.985C240.877 255.988 241.01 255.959 241.13 255.901L245.955 253.115C246.155 252.997 246.148 252.798 245.927 252.671L240.348 249.45C240.229 249.386 240.097 249.351 239.962 249.348C239.827 249.346 239.693 249.375 239.572 249.434L239.579 249.435ZM232.528 253.505L227.703 256.291C227.498 256.409 227.51 256.608 227.73 256.735L233.309 259.956C233.427 260.019 233.559 260.053 233.692 260.056C233.826 260.059 233.959 260.03 234.079 259.972L238.904 257.187C239.104 257.068 239.096 256.869 238.876 256.742L233.298 253.521C233.179 253.458 233.046 253.424 232.911 253.422C232.776 253.42 232.642 253.45 232.521 253.509L232.528 253.505ZM225.477 257.577L220.652 260.362C220.447 260.48 220.459 260.679 220.679 260.806L226.258 264.027C226.376 264.09 226.508 264.124 226.641 264.127C226.775 264.13 226.908 264.101 227.028 264.043L231.852 261.258C232.057 261.139 232.045 260.94 231.825 260.813L226.246 257.592C226.127 257.529 225.994 257.495 225.86 257.493C225.725 257.491 225.591 257.521 225.47 257.581L225.477 257.577ZM261.523 262.532L266.347 259.747C266.552 259.629 266.54 259.429 266.32 259.303L260.741 256.082C260.623 256.019 260.492 255.985 260.359 255.982C260.225 255.979 260.093 256.008 259.972 256.066L255.147 258.851C254.942 258.97 254.954 259.168 255.175 259.296L260.753 262.517C260.87 262.579 261 262.613 261.133 262.616C261.265 262.619 261.396 262.591 261.516 262.534L261.523 262.532ZM323.452 201.01L318.628 203.796C318.423 203.914 318.435 204.113 318.655 204.24L324.234 207.461C324.352 207.524 324.484 207.558 324.617 207.561C324.751 207.564 324.884 207.535 325.004 207.477L329.828 204.691C330.033 204.573 330.021 204.374 329.801 204.247L324.222 201.026C324.103 200.963 323.97 200.929 323.835 200.927C323.7 200.925 323.566 200.955 323.445 201.014L323.452 201.01ZM314.916 205.938L310.092 208.724C309.887 208.842 309.899 209.041 310.119 209.168L315.698 212.389C315.816 212.452 315.947 212.486 316.081 212.489C316.214 212.492 316.347 212.463 316.467 212.405L321.292 209.619C321.492 209.501 321.485 209.302 321.265 209.175L315.686 205.954C315.567 205.891 315.434 205.857 315.299 205.855C315.164 205.853 315.03 205.883 314.909 205.942L314.916 205.938ZM330.503 196.938L325.679 199.724C325.474 199.842 325.486 200.041 325.706 200.168L331.285 203.389C331.403 203.452 331.534 203.486 331.668 203.489C331.802 203.492 331.934 203.463 332.054 203.404L336.879 200.619C337.084 200.501 337.072 200.302 336.852 200.175L331.273 196.954C331.154 196.891 331.022 196.858 330.887 196.856C330.752 196.854 330.619 196.884 330.498 196.943L330.503 196.938ZM294.003 234.575L298.828 231.79C299.028 231.671 299.021 231.472 298.8 231.345L293.222 228.124C293.104 228.062 292.973 228.027 292.839 228.025C292.705 228.022 292.573 228.05 292.452 228.108L287.628 230.894C287.428 231.012 287.435 231.211 287.655 231.338L293.234 234.559C293.351 234.622 293.481 234.657 293.614 234.66C293.746 234.664 293.878 234.637 293.998 234.58L294.003 234.575ZM338.322 192.883C338.204 192.821 338.073 192.786 337.94 192.784C337.806 192.781 337.674 192.809 337.553 192.867L332.729 195.652C332.524 195.771 332.536 195.97 332.756 196.097L338.335 199.318C338.453 199.381 338.584 199.415 338.718 199.418C338.851 199.421 338.984 199.392 339.104 199.334L343.928 196.548C344.128 196.43 344.122 196.231 343.901 196.104L338.322 192.883ZM268.572 258.46L273.397 255.675C273.597 255.556 273.589 255.357 273.369 255.23L267.791 252.009C267.673 251.947 267.542 251.912 267.408 251.91C267.274 251.907 267.142 251.935 267.021 251.993L262.196 254.779C261.991 254.898 262.004 255.097 262.224 255.223L267.802 258.444C267.919 258.507 268.049 258.542 268.182 258.546C268.315 258.549 268.447 258.522 268.567 258.465L268.572 258.46ZM355.043 208.536L359.868 205.751C360.068 205.632 360.06 205.433 359.84 205.306L354.261 202.085C354.143 202.022 354.012 201.988 353.878 201.986C353.745 201.983 353.613 202.012 353.492 202.07L348.667 204.855C348.467 204.973 348.475 205.172 348.695 205.3L354.273 208.52C354.39 208.583 354.52 208.618 354.653 208.621C354.786 208.625 354.918 208.598 355.038 208.541L355.043 208.536ZM340.023 208.006L344.847 205.22C345.052 205.102 345.04 204.903 344.819 204.776L339.241 201.555C339.123 201.493 338.992 201.458 338.858 201.456C338.724 201.453 338.592 201.481 338.471 201.539L333.647 204.325C333.442 204.443 333.454 204.642 333.674 204.769L339.253 207.99C339.37 208.053 339.5 208.088 339.633 208.091C339.766 208.095 339.898 208.068 340.018 208.011L340.023 208.006ZM346.292 197.484C346.174 197.422 346.043 197.387 345.909 197.385C345.775 197.382 345.643 197.41 345.522 197.468L340.698 200.254C340.498 200.372 340.505 200.571 340.725 200.698L346.304 203.919C346.422 203.982 346.553 204.016 346.687 204.019C346.82 204.022 346.953 203.993 347.073 203.935L351.898 201.149C352.098 201.031 352.091 200.832 351.871 200.705L346.292 197.484ZM347.777 196.627L361.325 204.449C361.443 204.512 361.574 204.546 361.708 204.549C361.841 204.552 361.974 204.523 362.094 204.465L366.919 201.68C367.119 201.561 367.112 201.362 366.892 201.235L353.343 193.413C353.225 193.351 353.094 193.316 352.96 193.314C352.826 193.311 352.694 193.339 352.573 193.397L347.749 196.183C347.539 196.306 347.551 196.505 347.772 196.634L347.777 196.627ZM331.42 205.611L326.595 208.396C326.39 208.514 326.402 208.713 326.623 208.84L332.202 212.061C332.32 212.124 332.451 212.158 332.585 212.161C332.718 212.164 332.851 212.135 332.971 212.077L337.796 209.291C337.996 209.173 337.989 208.974 337.768 208.847L332.185 205.634C332.067 205.571 331.936 205.536 331.802 205.533C331.669 205.53 331.536 205.559 331.415 205.616L331.42 205.611ZM278.35 236.25L273.525 239.036C273.32 239.154 273.332 239.353 273.553 239.48L279.131 242.701C279.249 242.764 279.381 242.798 279.514 242.801C279.648 242.804 279.781 242.775 279.901 242.717L284.725 239.932C284.931 239.813 284.918 239.614 284.698 239.487L279.119 236.266C279 236.203 278.868 236.17 278.734 236.168C278.599 236.166 278.466 236.196 278.345 236.255L278.35 236.25ZM347.223 212.591C347.341 212.654 347.472 212.688 347.606 212.691C347.739 212.694 347.872 212.665 347.992 212.607L352.817 209.822C353.017 209.703 353.01 209.504 352.789 209.377L347.21 206.156C347.092 206.094 346.961 206.059 346.828 206.057C346.694 206.054 346.562 206.082 346.441 206.14L341.616 208.926C341.416 209.044 341.423 209.244 341.644 209.37L347.223 212.591ZM285.398 232.185L280.573 234.97C280.368 235.088 280.381 235.287 280.601 235.414L286.177 238.634C286.295 238.697 286.427 238.731 286.56 238.734C286.694 238.737 286.827 238.708 286.947 238.65L291.772 235.864C291.977 235.746 291.964 235.547 291.744 235.42L286.166 232.199C286.048 232.137 285.917 232.103 285.784 232.101C285.65 232.098 285.518 232.127 285.398 232.185V232.185ZM232.543 278.805C232.661 278.868 232.793 278.902 232.926 278.905C233.06 278.908 233.193 278.879 233.313 278.82L238.137 276.035C238.342 275.917 238.33 275.718 238.11 275.591L232.531 272.37C232.413 272.308 232.282 272.273 232.149 272.271C232.015 272.268 231.883 272.296 231.762 272.354L226.937 275.14C226.732 275.258 226.745 275.457 226.964 275.584L232.543 278.805ZM221.936 268.824L217.112 271.61C216.912 271.728 216.919 271.927 217.139 272.054L222.718 275.275C222.836 275.338 222.967 275.372 223.101 275.375C223.234 275.378 223.367 275.349 223.487 275.291L228.312 272.505C228.517 272.387 228.505 272.188 228.284 272.061L222.706 268.84C222.588 268.777 222.456 268.743 222.322 268.74C222.188 268.737 222.055 268.766 221.934 268.824H221.936ZM240.364 274.749L245.188 271.964C245.393 271.846 245.381 271.647 245.161 271.52L239.582 268.299C239.464 268.236 239.333 268.202 239.199 268.199C239.065 268.196 238.933 268.225 238.812 268.283L233.988 271.068C233.783 271.187 233.795 271.386 234.016 271.513L239.594 274.733C239.712 274.796 239.843 274.83 239.976 274.833C240.11 274.836 240.242 274.807 240.362 274.749H240.364ZM247.415 270.679L252.24 267.893C252.445 267.775 252.433 267.576 252.213 267.449L246.633 264.228C246.515 264.166 246.384 264.131 246.251 264.129C246.117 264.126 245.985 264.154 245.864 264.212L241.039 266.997C240.839 267.116 240.847 267.315 241.067 267.442L246.646 270.663C246.764 270.726 246.895 270.76 247.028 270.763C247.161 270.765 247.293 270.737 247.413 270.679H247.415ZM254.466 266.607L259.291 263.822C259.496 263.703 259.483 263.505 259.264 263.377L253.685 260.156C253.567 260.094 253.436 260.06 253.302 260.057C253.168 260.054 253.036 260.083 252.915 260.141L248.091 262.926C247.886 263.044 247.898 263.244 248.118 263.37L253.697 266.591C253.815 266.654 253.946 266.688 254.079 266.691C254.212 266.694 254.344 266.665 254.464 266.607H254.466ZM228.987 264.753L224.163 267.538C223.958 267.657 223.97 267.856 224.19 267.983L229.769 271.203C229.887 271.267 230.018 271.301 230.152 271.304C230.286 271.307 230.419 271.278 230.539 271.219L235.363 268.434C235.568 268.316 235.556 268.117 235.336 267.989L229.757 264.769C229.639 264.706 229.507 264.672 229.373 264.669C229.239 264.666 229.106 264.695 228.985 264.753H228.987ZM236.039 260.682L231.214 263.467C231.009 263.586 231.021 263.784 231.241 263.912L236.82 267.133C236.938 267.196 237.07 267.23 237.203 267.233C237.337 267.236 237.47 267.207 237.59 267.149L242.415 264.363C242.615 264.244 242.607 264.046 242.387 263.919L236.808 260.698C236.69 260.635 236.559 260.601 236.425 260.598C236.291 260.595 236.158 260.624 236.037 260.682H236.039ZM264.244 244.398L259.419 247.183C259.214 247.302 259.227 247.5 259.447 247.628L265.025 250.848C265.143 250.911 265.274 250.946 265.408 250.948C265.542 250.951 265.675 250.922 265.795 250.864L270.62 248.079C270.825 247.961 270.812 247.761 270.593 247.634L265.014 244.414C264.896 244.351 264.764 244.317 264.63 244.314C264.496 244.311 264.363 244.34 264.242 244.398H264.244ZM257.193 248.469L252.368 251.254C252.163 251.372 252.175 251.572 252.396 251.698L257.974 254.919C258.092 254.982 258.223 255.017 258.357 255.019C258.491 255.022 258.624 254.993 258.744 254.935L263.568 252.15C263.773 252.031 263.761 251.833 263.541 251.705L257.962 248.484C257.844 248.421 257.713 248.387 257.578 248.384C257.444 248.381 257.312 248.411 257.191 248.469H257.193ZM271.293 240.326L266.469 243.112C266.264 243.23 266.276 243.429 266.496 243.556L272.075 246.777C272.193 246.84 272.324 246.875 272.458 246.877C272.591 246.88 272.724 246.851 272.844 246.793L277.669 244.007C277.874 243.889 277.862 243.69 277.641 243.563L272.063 240.342C271.946 240.28 271.815 240.247 271.683 240.244C271.55 240.241 271.418 240.269 271.298 240.326H271.293ZM243.088 256.611L238.264 259.396C238.059 259.515 238.071 259.714 238.291 259.84L243.87 263.061C243.988 263.124 244.119 263.159 244.253 263.161C244.386 263.164 244.519 263.135 244.639 263.077L249.464 260.292C249.669 260.173 249.657 259.975 249.436 259.847L243.858 256.627C243.74 256.564 243.609 256.53 243.475 256.527C243.341 256.524 243.209 256.553 243.088 256.611V256.611ZM250.139 252.54L245.315 255.325C245.11 255.444 245.122 255.643 245.342 255.77L250.921 258.991C251.039 259.054 251.17 259.088 251.304 259.091C251.437 259.094 251.57 259.065 251.69 259.007L256.515 256.221C256.715 256.102 256.708 255.903 256.488 255.777L250.909 252.556C250.791 252.494 250.66 252.459 250.526 252.457C250.392 252.454 250.26 252.482 250.139 252.54V252.54ZM244.991 281.279L249.816 278.494C250.021 278.375 250.008 278.177 249.789 278.049L244.21 274.828C244.092 274.765 243.961 274.731 243.827 274.729C243.693 274.726 243.561 274.755 243.44 274.813L238.616 277.598C238.411 277.717 238.423 277.915 238.643 278.042L244.222 281.264C244.34 281.327 244.471 281.361 244.605 281.363C244.738 281.366 244.871 281.337 244.991 281.279V281.279ZM203.613 277.101L198.034 273.881C197.916 273.818 197.785 273.784 197.651 273.781C197.517 273.778 197.385 273.807 197.264 273.865L192.44 276.65C192.234 276.769 192.247 276.967 192.467 277.095L198.045 280.316C198.163 280.379 198.295 280.413 198.428 280.416C198.562 280.418 198.695 280.389 198.815 280.331L203.64 277.546C203.845 277.427 203.832 277.234 203.613 277.101V277.101ZM214.18 280.201L208.598 276.982C208.48 276.92 208.349 276.885 208.216 276.883C208.082 276.88 207.95 276.908 207.829 276.966L200.406 281.252C200.201 281.37 200.214 281.569 200.434 281.696L206.012 284.917C206.13 284.98 206.262 285.014 206.395 285.017C206.529 285.02 206.662 284.991 206.782 284.932L214.204 280.647C214.412 280.529 214.398 280.334 214.18 280.203V280.201ZM195.053 270.872L189.475 267.652C189.357 267.589 189.226 267.555 189.092 267.552C188.958 267.549 188.826 267.578 188.705 267.636L182.767 271.064C182.562 271.182 182.574 271.381 182.795 271.508L188.373 274.729C188.491 274.792 188.623 274.826 188.756 274.829C188.89 274.832 189.023 274.803 189.143 274.745L195.081 271.317C195.286 271.201 195.273 271.001 195.053 270.874V270.872ZM199.606 268.244C199.724 268.307 199.855 268.341 199.989 268.344C200.122 268.347 200.255 268.318 200.375 268.26L205.2 265.474C205.405 265.356 205.393 265.157 205.173 265.03L199.598 261.811C199.48 261.749 199.349 261.714 199.215 261.712C199.081 261.709 198.949 261.737 198.828 261.795L194.004 264.581C193.804 264.699 193.811 264.898 194.031 265.025L199.606 268.244ZM224.006 283.731L218.428 280.51C218.31 280.448 218.179 280.413 218.045 280.411C217.911 280.408 217.779 280.436 217.658 280.494L208.38 285.851C208.175 285.969 208.187 286.168 208.407 286.295L213.986 289.516C214.104 289.579 214.235 289.613 214.369 289.616C214.502 289.619 214.635 289.59 214.755 289.532L224.034 284.175C224.238 284.059 224.225 283.86 224.005 283.734L224.006 283.731ZM228.636 290.26L223.057 287.04C222.939 286.977 222.808 286.943 222.675 286.94C222.541 286.937 222.409 286.966 222.288 287.024L216.35 290.452C216.144 290.57 216.157 290.77 216.377 290.896L221.956 294.117C222.074 294.18 222.205 294.214 222.339 294.217C222.472 294.22 222.605 294.191 222.725 294.133L228.663 290.705C228.867 290.589 228.854 290.389 228.635 290.262L228.636 290.26ZM252.036 237.975C252.154 238.038 252.285 238.072 252.419 238.075C252.552 238.078 252.685 238.049 252.805 237.991L257.63 235.205C257.83 235.087 257.823 234.889 257.603 234.762L252.024 231.54C251.906 231.478 251.775 231.443 251.641 231.441C251.507 231.438 251.375 231.467 251.254 231.524L246.43 234.31C246.225 234.429 246.237 234.627 246.457 234.754L252.036 237.975ZM237.936 246.117C238.054 246.18 238.185 246.215 238.319 246.217C238.453 246.22 238.586 246.191 238.706 246.133L243.53 243.347C243.735 243.229 243.723 243.031 243.503 242.903L237.924 239.683C237.806 239.62 237.675 239.586 237.542 239.583C237.408 239.58 237.276 239.609 237.155 239.667L232.33 242.452C232.125 242.571 232.138 242.769 232.357 242.897L237.936 246.117ZM206.663 264.173C206.781 264.236 206.912 264.27 207.046 264.273C207.179 264.276 207.312 264.247 207.432 264.189L212.257 261.403C212.462 261.285 212.45 261.086 212.23 260.959L206.651 257.738C206.533 257.676 206.402 257.641 206.268 257.639C206.134 257.636 206.002 257.665 205.881 257.722L201.057 260.508C200.852 260.626 200.864 260.825 201.084 260.952L206.663 264.173ZM244.987 242.046C245.105 242.109 245.236 242.144 245.37 242.146C245.504 242.149 245.637 242.12 245.757 242.062L250.582 239.277C250.787 239.158 250.774 238.959 250.554 238.832L244.976 235.611C244.858 235.549 244.727 235.515 244.593 235.512C244.459 235.509 244.327 235.538 244.206 235.596L239.382 238.381C239.177 238.499 239.189 238.698 239.409 238.826L244.987 242.046ZM230.887 250.189C231.005 250.252 231.137 250.286 231.27 250.289C231.404 250.291 231.537 250.262 231.657 250.204L236.481 247.419C236.686 247.301 236.674 247.101 236.454 246.974L230.875 243.754C230.757 243.691 230.626 243.657 230.492 243.654C230.358 243.651 230.226 243.68 230.105 243.738L225.281 246.523C225.076 246.642 225.088 246.841 225.308 246.968L230.887 250.189ZM232.518 290.789C232.4 290.726 232.269 290.692 232.135 290.689C232.001 290.686 231.869 290.715 231.748 290.773L224.326 295.058C224.121 295.176 224.134 295.376 224.354 295.503L229.932 298.723C230.05 298.786 230.181 298.821 230.315 298.823C230.449 298.826 230.582 298.797 230.702 298.739L238.124 294.454C238.329 294.336 238.317 294.137 238.097 294.01L232.518 290.789ZM220.76 256.034C220.878 256.097 221.009 256.131 221.143 256.134C221.277 256.137 221.409 256.108 221.529 256.049L226.354 253.264C226.559 253.146 226.546 252.947 226.326 252.82L220.748 249.599C220.63 249.537 220.499 249.502 220.365 249.5C220.231 249.497 220.099 249.525 219.978 249.583L215.154 252.369C214.948 252.487 214.961 252.686 215.181 252.813L220.76 256.034ZM213.708 260.105C213.826 260.168 213.958 260.202 214.091 260.205C214.225 260.208 214.358 260.179 214.478 260.121L219.298 257.334C219.503 257.216 219.491 257.017 219.271 256.89L213.692 253.669C213.574 253.607 213.443 253.572 213.31 253.57C213.176 253.567 213.044 253.596 212.923 253.653L208.098 256.434C207.893 256.552 207.905 256.751 208.126 256.878L213.708 260.105ZM363.145 215.365C363.027 215.303 362.896 215.268 362.762 215.266C362.628 215.263 362.496 215.291 362.375 215.349L350.498 222.205C350.298 222.323 350.305 222.522 350.525 222.649L356.105 225.87C356.223 225.933 356.354 225.967 356.488 225.97C356.621 225.973 356.754 225.944 356.874 225.886L368.75 219.029C368.95 218.911 368.943 218.712 368.722 218.585L363.145 215.365ZM347.558 224.365C347.44 224.303 347.309 224.268 347.175 224.266C347.041 224.263 346.909 224.291 346.788 224.349L341.963 227.135C341.763 227.253 341.771 227.452 341.991 227.579L347.569 230.8C347.687 230.863 347.819 230.897 347.952 230.9C348.086 230.903 348.219 230.874 348.339 230.816L353.164 228.03C353.364 227.912 353.356 227.713 353.136 227.586L347.558 224.365ZM252.043 277.21L256.867 274.425C257.072 274.306 257.06 274.107 256.84 273.98L251.261 270.759C251.143 270.696 251.012 270.662 250.878 270.66C250.745 270.657 250.613 270.686 250.492 270.744L245.667 273.529C245.462 273.647 245.474 273.846 245.694 273.973L251.273 277.194C251.391 277.257 251.523 277.291 251.657 277.293C251.79 277.295 251.923 277.266 252.043 277.208V277.21ZM333.455 232.51C333.337 232.448 333.206 232.413 333.072 232.411C332.938 232.408 332.806 232.436 332.685 232.494L327.861 235.28C327.661 235.399 327.668 235.597 327.888 235.724L333.467 238.945C333.585 239.008 333.716 239.042 333.85 239.045C333.983 239.048 334.116 239.019 334.236 238.961L339.061 236.175C339.261 236.057 339.254 235.858 339.034 235.731L333.455 232.51ZM370.198 211.293C370.08 211.231 369.949 211.196 369.815 211.194C369.681 211.191 369.549 211.219 369.428 211.277L364.598 214.063C364.398 214.181 364.405 214.38 364.625 214.507L370.204 217.728C370.322 217.791 370.453 217.825 370.587 217.828C370.72 217.831 370.853 217.802 370.973 217.744L375.798 214.958C375.998 214.84 375.991 214.641 375.771 214.514L370.198 211.293ZM382.828 210.443L369.28 202.62C369.162 202.558 369.031 202.523 368.897 202.521C368.763 202.518 368.631 202.546 368.51 202.604L363.685 205.39C363.485 205.508 363.493 205.708 363.713 205.834L377.261 213.657C377.379 213.72 377.511 213.754 377.644 213.757C377.778 213.76 377.911 213.731 378.031 213.673L382.855 210.887C383.058 210.769 383.046 210.57 382.826 210.443H382.828ZM307.107 247.718C306.989 247.655 306.858 247.621 306.724 247.619C306.591 247.616 306.458 247.645 306.338 247.703L300.398 251.134C300.193 251.252 300.205 251.451 300.425 251.578L306.004 254.799C306.122 254.862 306.254 254.896 306.387 254.899C306.521 254.902 306.654 254.873 306.774 254.814L312.711 251.386C312.911 251.268 312.904 251.069 312.684 250.942L307.107 247.718ZM324.919 237.434C324.801 237.371 324.67 237.337 324.536 237.335C324.403 237.332 324.271 237.361 324.15 237.419L316.727 241.704C316.522 241.822 316.535 242.021 316.754 242.148L322.333 245.369C322.451 245.432 322.583 245.466 322.716 245.469C322.85 245.472 322.983 245.443 323.103 245.385L330.525 241.1C330.725 240.981 330.718 240.783 330.498 240.655L324.919 237.434ZM290.776 257.147C290.658 257.085 290.527 257.05 290.393 257.048C290.259 257.045 290.127 257.073 290.006 257.131L250.298 280.057C250.093 280.175 250.105 280.374 250.325 280.501L255.904 283.722C256.022 283.785 256.153 283.819 256.287 283.822C256.42 283.825 256.553 283.796 256.673 283.738L296.383 260.811C296.588 260.693 296.576 260.494 296.356 260.367L290.776 257.147ZM248.84 281.359C248.722 281.297 248.591 281.262 248.457 281.26C248.323 281.257 248.191 281.286 248.07 281.343L242.132 284.771C241.927 284.89 241.939 285.089 242.159 285.216L247.738 288.437C247.856 288.5 247.987 288.534 248.121 288.537C248.255 288.54 248.387 288.511 248.507 288.452L254.446 285.024C254.646 284.906 254.638 284.707 254.418 284.58L248.84 281.359ZM298.94 252.433C298.822 252.371 298.691 252.336 298.557 252.334C298.423 252.331 298.291 252.359 298.17 252.417L292.232 255.845C292.027 255.964 292.039 256.163 292.259 256.29L297.838 259.51C297.956 259.573 298.087 259.608 298.221 259.611C298.355 259.614 298.488 259.585 298.608 259.527L304.546 256.098C304.751 255.98 304.738 255.781 304.518 255.654L298.94 252.433ZM240.674 286.073C240.556 286.011 240.425 285.976 240.291 285.974C240.157 285.971 240.025 285.999 239.904 286.057L233.966 289.485C233.761 289.604 233.774 289.803 233.994 289.93L239.572 293.151C239.69 293.214 239.822 293.248 239.955 293.251C240.089 293.254 240.222 293.225 240.342 293.167L246.28 289.738C246.485 289.62 246.473 289.421 246.253 289.294L240.674 286.073ZM315.274 243.006C315.156 242.943 315.025 242.909 314.892 242.906C314.758 242.903 314.626 242.932 314.505 242.99L308.566 246.418C308.366 246.536 308.374 246.735 308.594 246.862L314.173 250.083C314.291 250.146 314.422 250.18 314.556 250.183C314.689 250.186 314.822 250.157 314.942 250.099L320.88 246.67C321.08 246.552 321.073 246.353 320.853 246.226L315.274 243.006ZM340.506 228.434C340.388 228.372 340.257 228.337 340.124 228.335C339.99 228.332 339.858 228.36 339.737 228.418L334.912 231.204C334.712 231.322 334.719 231.521 334.94 231.648L340.518 234.869C340.636 234.932 340.768 234.966 340.901 234.969C341.035 234.972 341.168 234.943 341.288 234.885L346.112 232.1C346.312 231.981 346.305 231.782 346.085 231.655L340.506 228.434ZM355.956 217.213L360.781 214.428C360.981 214.309 360.974 214.11 360.754 213.983L355.175 210.763C355.057 210.7 354.926 210.666 354.792 210.663C354.658 210.66 354.526 210.689 354.405 210.747L349.581 213.532C349.381 213.65 349.388 213.85 349.608 213.977L355.187 217.197C355.305 217.26 355.436 217.295 355.57 217.297C355.703 217.3 355.836 217.271 355.956 217.213V217.213ZM324.43 217.013L329.255 214.228C329.455 214.109 329.447 213.91 329.228 213.783L323.649 210.563C323.531 210.5 323.4 210.466 323.266 210.463C323.132 210.46 323 210.489 322.879 210.547L318.055 213.332C317.849 213.451 317.862 213.649 318.082 213.776L323.66 216.997C323.779 217.06 323.91 217.093 324.044 217.096C324.177 217.098 324.31 217.069 324.43 217.01V217.013ZM308.453 244.643L322.553 236.5C322.753 236.382 322.745 236.183 322.525 236.056L316.947 232.835C316.829 232.773 316.698 232.738 316.564 232.736C316.43 232.733 316.298 232.761 316.177 232.819L302.077 240.962C301.872 241.08 301.885 241.279 302.105 241.406L307.683 244.626C307.801 244.689 307.933 244.723 308.067 244.725C308.2 244.728 308.333 244.699 308.453 244.64V244.643ZM348.136 221.272C348.254 221.335 348.385 221.369 348.519 221.372C348.653 221.375 348.785 221.346 348.905 221.287L353.73 218.502C353.935 218.384 353.923 218.185 353.702 218.058L348.123 214.836C348.005 214.774 347.874 214.74 347.74 214.737C347.607 214.735 347.475 214.764 347.354 214.821L342.529 217.607C342.329 217.725 342.337 217.924 342.557 218.051L348.136 221.272ZM340.936 216.686L345.761 213.901C345.961 213.782 345.953 213.583 345.733 213.457L340.154 210.236C340.036 210.173 339.905 210.139 339.772 210.136C339.638 210.133 339.506 210.162 339.385 210.22L334.56 213.005C334.355 213.124 334.367 213.322 334.587 213.449L340.166 216.67C340.285 216.733 340.416 216.766 340.55 216.769C340.683 216.771 340.816 216.742 340.936 216.683V216.686ZM301.398 248.711L306.222 245.925C306.422 245.807 306.415 245.608 306.195 245.481L300.616 242.26C300.498 242.198 300.367 242.163 300.234 242.161C300.1 242.158 299.968 242.186 299.847 242.244L295.022 245.03C294.822 245.148 294.829 245.347 295.05 245.474L300.628 248.695C300.746 248.758 300.878 248.792 301.011 248.795C301.145 248.798 301.278 248.769 301.398 248.711V248.711ZM332.544 230.268C332.662 230.331 332.794 230.365 332.927 230.368C333.061 230.371 333.194 230.342 333.314 230.284L338.139 227.498C338.339 227.38 338.331 227.181 338.111 227.054L332.533 223.833C332.415 223.771 332.284 223.736 332.15 223.734C332.016 223.731 331.884 223.759 331.763 223.817L326.938 226.602C326.738 226.721 326.746 226.92 326.966 227.047L332.544 230.268ZM266.144 269.068L270.968 266.282C271.173 266.164 271.161 265.965 270.941 265.838L265.362 262.617C265.244 262.555 265.113 262.52 264.979 262.518C264.845 262.515 264.713 262.543 264.592 262.601L259.768 265.387C259.563 265.505 259.575 265.704 259.795 265.831L265.374 269.052C265.493 269.115 265.624 269.149 265.759 269.152C265.893 269.154 266.025 269.125 266.146 269.066L266.144 269.068ZM273.195 264.997L278.019 262.211C278.224 262.093 278.212 261.894 277.992 261.767L272.413 258.546C272.295 258.483 272.164 258.449 272.03 258.447C271.897 258.444 271.764 258.473 271.644 258.531L266.819 261.316C266.614 261.434 266.626 261.633 266.846 261.76L272.425 264.981C272.544 265.044 272.676 265.079 272.81 265.081C272.944 265.084 273.077 265.054 273.198 264.995L273.195 264.997ZM259.098 273.134L263.923 270.348C264.128 270.23 264.115 270.031 263.895 269.904L258.317 266.683C258.199 266.62 258.068 266.586 257.934 266.584C257.8 266.581 257.668 266.61 257.547 266.668L252.722 269.453C252.517 269.571 252.53 269.77 252.75 269.897L258.328 273.119C258.446 273.182 258.578 273.216 258.711 273.218C258.845 273.221 258.978 273.192 259.098 273.134V273.134ZM287.298 256.853L292.123 254.068C292.328 253.949 292.316 253.75 292.095 253.623L286.517 250.402C286.399 250.34 286.268 250.305 286.134 250.303C286 250.3 285.868 250.329 285.747 250.386L280.922 253.172C280.722 253.29 280.73 253.489 280.95 253.616L286.528 256.837C286.646 256.9 286.778 256.934 286.911 256.937C287.045 256.94 287.178 256.911 287.298 256.853V256.853ZM280.247 260.923L285.071 258.138C285.276 258.02 285.264 257.821 285.044 257.694L279.465 254.473C279.347 254.411 279.216 254.376 279.082 254.374C278.948 254.371 278.816 254.399 278.695 254.457L273.871 257.243C273.666 257.361 273.678 257.56 273.899 257.687L279.478 260.908C279.596 260.971 279.728 261.006 279.861 261.008C279.995 261.011 280.128 260.982 280.248 260.923H280.247ZM294.347 252.782L299.172 249.996C299.377 249.878 299.365 249.679 299.145 249.552L293.566 246.331C293.448 246.269 293.317 246.234 293.183 246.232C293.049 246.229 292.917 246.257 292.796 246.315L287.972 249.101C287.767 249.219 287.779 249.418 287.999 249.545L293.578 252.766C293.697 252.83 293.828 252.864 293.962 252.867C294.096 252.87 294.229 252.841 294.35 252.782H294.347ZM326.607 192.557C326.725 192.62 326.857 192.654 326.99 192.657C327.124 192.66 327.257 192.631 327.377 192.573L332.201 189.787C332.406 189.668 332.394 189.47 332.174 189.343L330.689 188.485C330.571 188.423 330.44 188.388 330.306 188.386C330.172 188.383 330.04 188.411 329.919 188.469L325.094 191.255C324.894 191.373 324.902 191.572 325.122 191.699L326.607 192.557ZM291.913 214.95C292.031 215.014 292.162 215.048 292.296 215.051C292.43 215.054 292.563 215.025 292.683 214.966L297.507 212.181C297.712 212.063 297.7 211.864 297.48 211.737L291.901 208.516C291.783 208.453 291.652 208.419 291.519 208.416C291.385 208.413 291.253 208.442 291.132 208.5L286.307 211.285C286.102 211.404 286.114 211.603 286.334 211.73L291.913 214.95ZM306.013 206.809C306.131 206.872 306.262 206.906 306.396 206.909C306.529 206.911 306.662 206.882 306.782 206.824L311.607 204.039C311.812 203.92 311.799 203.722 311.58 203.594L306 200.373C305.882 200.31 305.751 200.276 305.618 200.274C305.484 200.271 305.351 200.3 305.231 200.358L300.406 203.143C300.206 203.262 300.214 203.461 300.434 203.587L306.013 206.809ZM283.3 219.922C283.418 219.985 283.549 220.019 283.683 220.022C283.817 220.024 283.949 219.996 284.069 219.937L288.894 217.152C289.099 217.034 289.087 216.835 288.866 216.708L283.288 213.487C283.17 213.425 283.039 213.39 282.905 213.388C282.771 213.385 282.639 213.413 282.518 213.471L277.694 216.257C277.489 216.375 277.501 216.574 277.721 216.701L283.3 219.922ZM298.961 210.88C299.079 210.943 299.211 210.977 299.344 210.98C299.478 210.983 299.611 210.954 299.731 210.896L304.556 208.11C304.756 207.992 304.748 207.792 304.528 207.666L298.949 204.445C298.831 204.383 298.7 204.348 298.567 204.346C298.433 204.343 298.301 204.371 298.18 204.429L293.355 207.214C293.15 207.333 293.162 207.532 293.382 207.659L298.961 210.88ZM269.198 228.064C269.316 228.127 269.448 228.161 269.581 228.164C269.715 228.167 269.848 228.138 269.968 228.079L274.792 225.294C274.997 225.176 274.985 224.977 274.765 224.85L269.186 221.629C269.068 221.567 268.937 221.532 268.804 221.53C268.67 221.527 268.538 221.556 268.417 221.613L263.598 224.399C263.398 224.517 263.406 224.716 263.626 224.843L269.198 228.064ZM276.249 223.993C276.367 224.056 276.499 224.09 276.632 224.093C276.766 224.096 276.899 224.067 277.019 224.009L281.844 221.223C282.044 221.105 282.036 220.906 281.816 220.779L276.238 217.558C276.12 217.496 275.989 217.461 275.855 217.459C275.721 217.456 275.589 217.484 275.468 217.542L270.644 220.327C270.438 220.446 270.451 220.645 270.671 220.772L276.249 223.993ZM312.502 200.699C312.62 200.762 312.752 200.796 312.885 200.799C313.019 200.802 313.152 200.773 313.272 200.715L318.097 197.929C318.302 197.811 318.289 197.612 318.069 197.485L316.584 196.627C316.466 196.565 316.335 196.53 316.202 196.528C316.068 196.525 315.936 196.554 315.815 196.611L310.99 199.397C310.785 199.515 310.797 199.714 311.017 199.841L312.502 200.699ZM333.656 188.485C333.774 188.548 333.906 188.583 334.039 188.585C334.173 188.588 334.306 188.559 334.426 188.501L339.251 185.716C339.456 185.597 339.443 185.399 339.223 185.271L337.738 184.414C337.62 184.351 337.489 184.317 337.355 184.315C337.222 184.312 337.089 184.341 336.969 184.399L332.144 187.184C331.944 187.302 331.951 187.501 332.171 187.628L333.656 188.485ZM345.375 195.252C345.493 195.315 345.625 195.349 345.758 195.352C345.892 195.354 346.025 195.325 346.145 195.267L350.97 192.482C351.17 192.363 351.162 192.165 350.943 192.038L345.364 188.817C345.246 188.754 345.115 188.72 344.981 188.717C344.847 188.714 344.715 188.743 344.594 188.801L339.769 191.587C339.569 191.705 339.577 191.904 339.797 192.03L345.375 195.252ZM363.003 213.142L367.827 210.356C368.027 210.239 368.02 210.04 367.8 209.913L362.221 206.692C362.103 206.63 361.972 206.595 361.839 206.593C361.705 206.59 361.573 206.619 361.452 206.676L356.627 209.461C356.427 209.58 356.434 209.778 356.655 209.905L362.233 213.127C362.352 213.191 362.484 213.226 362.619 213.228C362.754 213.231 362.887 213.201 363.008 213.142H363.003ZM319.554 196.627C319.672 196.691 319.803 196.725 319.937 196.728C320.07 196.731 320.203 196.702 320.323 196.643L325.148 193.858C325.353 193.74 325.341 193.541 325.12 193.413L323.635 192.556C323.517 192.493 323.386 192.459 323.252 192.457C323.119 192.454 322.986 192.483 322.866 192.541L318.041 195.326C317.841 195.444 317.848 195.643 318.069 195.77L319.554 196.627ZM262.152 232.134C262.27 232.197 262.401 232.231 262.535 232.234C262.668 232.237 262.801 232.208 262.921 232.15L267.746 229.364C267.951 229.246 267.939 229.047 267.719 228.92L262.14 225.699C262.022 225.637 261.891 225.602 261.757 225.6C261.623 225.597 261.491 225.625 261.37 225.683L256.546 228.469C256.341 228.587 256.353 228.786 256.573 228.913L262.152 232.134Z" fill="#EEF0F6"/>
<path d="M293.42 274.46L341.03 246.972C341.836 246.563 342.727 246.35 343.63 246.35C344.534 246.35 345.425 246.563 346.23 246.972L373.53 262.734C374.965 263.562 374.965 264.905 373.53 265.734L325.917 293.222C325.111 293.631 324.22 293.844 323.316 293.844C322.413 293.844 321.522 293.631 320.716 293.222L293.417 277.46C291.986 276.634 291.985 275.288 293.42 274.46Z" fill="#A3ACC0"/>
<g filter="url(#filter0_d_453_50061)">
<path d="M380.976 142.272C380.976 142.27 380.977 142.267 380.979 142.265C380.981 142.263 380.983 142.262 380.986 142.262L380.926 142.222L372.798 137.54C372.328 137.33 371.638 137.53 370.808 138.16C363.244 143.949 353.079 145.743 344.768 143.099C344.232 142.602 343.724 142.076 343.246 141.522C343.196 141.462 343.146 141.402 343.096 141.352H343.086C342.848 141.076 342.563 140.842 342.246 140.662L342.106 140.582L333.968 135.91C333.038 135.47 332.198 135.91 331.638 137.29C323.778 156.82 307.028 176.61 295.858 181.56C295.013 181.939 294.262 182.499 293.658 183.2C292.855 184.072 292.412 185.215 292.418 186.4L294.028 230.25C294.028 242.92 299.378 256.3 310.288 262.81L318.706 267.672L318.856 267.752C323.408 270.308 328.556 271.616 333.776 271.542C334.946 271.542 336.136 271.492 337.366 271.372C339.758 270.976 341.974 269.868 343.726 268.192C368.136 242.982 380.006 208.862 380.006 189.982L381.616 144.112C381.656 143.122 381.416 142.512 380.976 142.272Z" fill="white"/>
</g>
<path d="M381.617 144.111L380.007 189.981C380.007 208.861 368.137 242.981 343.727 268.191C341.975 269.866 339.759 270.975 337.367 271.371C336.137 271.491 334.947 271.541 333.777 271.541C328.557 271.614 323.409 270.307 318.857 267.751L318.707 267.671L318.417 267.491C307.507 260.981 302.157 247.601 302.157 234.931L300.547 191.081C300.541 189.895 300.984 188.752 301.787 187.881C302.391 187.179 303.142 186.619 303.987 186.241C315.157 181.291 331.907 161.501 339.767 141.971C340.327 140.591 341.177 140.141 342.107 140.581L342.247 140.661C342.564 140.841 342.848 141.074 343.087 141.351H343.097C343.147 141.401 343.197 141.461 343.247 141.521C351.587 151.231 367.987 151.221 378.937 142.841C379.767 142.211 380.457 142.011 380.927 142.221L380.987 142.261C380.984 142.261 380.982 142.262 380.98 142.263C380.978 142.265 380.977 142.268 380.977 142.271C381.417 142.511 381.657 143.121 381.617 144.111Z" fill="#0DBF66"/>
<path opacity="0.4" d="M380.929 142.215C380.458 142.005 379.769 142.205 378.939 142.835C368.629 150.725 353.478 151.195 344.789 143.095C353.099 145.745 363.248 143.945 370.808 138.155C371.638 137.525 372.328 137.325 372.798 137.535L380.929 142.215Z" fill="white"/>
<path opacity="0.4" d="M342.109 140.576C341.179 140.136 340.328 140.586 339.769 141.966C331.908 161.496 315.158 181.286 303.988 186.236C303.144 186.615 302.393 187.175 301.788 187.876C301.579 188.116 301.392 188.373 301.228 188.646L293.109 183.956C293.271 183.688 293.455 183.434 293.658 183.196C293.771 183.066 293.892 182.942 294.019 182.826L294.029 182.816C294.078 182.776 294.118 182.726 294.169 182.676C294.219 182.636 294.265 182.592 294.309 182.546C294.772 182.139 295.295 181.805 295.859 181.556C307.029 176.606 323.779 156.816 331.638 137.286C332.199 135.906 333.038 135.466 333.968 135.906L342.109 140.576Z" fill="white"/>
<path d="M294.028 182.806C294.069 182.757 294.116 182.713 294.168 182.676C294.117 182.726 294.077 182.776 294.028 182.816C294.028 182.816 294.018 182.806 294.028 182.806Z" fill="#27DEBF"/>
<path opacity="0.15" d="M294.168 182.676C294.117 182.726 294.077 182.776 294.028 182.816C294.028 182.816 294.018 182.806 294.028 182.806C294.069 182.757 294.116 182.713 294.168 182.676V182.676Z" fill="#2343A3"/>
<path opacity="0.15" d="M318.859 267.747L318.708 267.677L310.288 262.807C299.379 256.297 294.029 242.917 294.029 230.247L292.419 186.397C292.401 185.533 292.641 184.683 293.109 183.957L301.228 188.647C300.769 189.373 300.533 190.218 300.549 191.077L302.158 234.927C302.158 247.597 307.509 260.977 318.419 267.487L318.708 267.667L318.859 267.747Z" fill="#2343A3"/>
<path d="M347.582 227.399L334.582 234.899L336.6 211.393C335.045 210.571 334.055 208.549 334.055 205.645C334.055 200.468 337.202 194.455 341.085 192.213C344.968 189.971 348.114 192.351 348.114 197.528C348.034 200.595 347.157 203.589 345.569 206.215L347.582 227.399Z" fill="#2343A3"/>
<path d="M347.583 227.4L335.811 220.6L334.586 234.9L347.583 227.4Z" fill="#373A4A"/>
<path d="M341.085 192.212C338.544 193.678 336.326 196.762 335.09 200.167L345.569 206.217C347.157 203.592 348.034 200.598 348.114 197.53C348.114 192.35 344.967 189.971 341.085 192.212Z" fill="#373A4A"/>
<path d="M178.516 363.968V367.877C178.5 372.47 181.527 377.066 187.596 380.57C196.737 385.848 210.162 387.135 221.404 384.443L231.845 390.471L239.867 388.658L245.342 391.819L245.642 398.436L248.591 400.136L255.999 400.787L261.323 403.757V407.487L268.004 411.344H284.998L291.088 407.83V403.885L236.75 376.458C239.06 374.203 240.408 371.142 240.513 367.916V363.965C239.696 360.151 236.513 358.183 231.445 355.254C219.338 348.264 199.708 348.264 187.601 355.254C182.153 358.4 179.065 359.859 178.516 363.968ZM195.159 359.402C197.083 358.426 199.211 357.917 201.369 357.917C203.527 357.917 205.654 358.426 207.579 359.402C211.009 361.382 211.009 364.593 207.579 366.573C205.654 367.549 203.527 368.058 201.369 368.058C199.211 368.058 197.083 367.549 195.159 366.573C191.729 364.593 191.729 361.382 195.159 359.402Z" fill="#E9EBEF"/>
<path opacity="0.1" d="M178.516 363.968V367.877C178.5 372.47 181.527 377.066 187.596 380.57C196.737 385.848 210.162 387.135 221.404 384.443L231.845 390.471L239.867 388.658L245.342 391.819L245.642 398.436L248.591 400.136L255.999 400.787L261.323 403.757V407.487L268.004 411.344H284.998L291.088 407.83V403.885L236.75 376.458C239.06 374.203 240.408 371.142 240.513 367.916V363.965C239.696 360.151 236.513 358.183 231.445 355.254C219.338 348.264 199.708 348.264 187.601 355.254C182.153 358.4 179.065 359.859 178.516 363.968ZM195.159 359.402C197.083 358.426 199.211 357.917 201.369 357.917C203.527 357.917 205.654 358.426 207.579 359.402C211.009 361.382 211.009 364.593 207.579 366.573C205.654 367.549 203.527 368.058 201.369 368.058C199.211 368.058 197.083 367.549 195.159 366.573C191.729 364.593 191.729 361.382 195.159 359.402Z" fill="#0BA659"/>
<path d="M187.599 376.626C196.74 381.903 210.165 383.19 221.407 380.499L231.848 386.527L239.87 384.713L245.345 387.874L245.645 394.492L248.594 396.192L256.002 396.843L261.778 400.065L261.326 403.543L268.007 407.4H284.999L291.089 403.886L236.751 372.513C243.151 365.724 241.394 357.053 231.446 351.313C219.339 344.323 199.709 344.323 187.602 351.313C175.495 358.303 175.49 369.634 187.599 376.626ZM195.162 355.458C197.086 354.481 199.214 353.972 201.372 353.972C203.53 353.972 205.658 354.481 207.582 355.458C211.012 357.438 211.012 360.648 207.582 362.629C205.658 363.605 203.53 364.114 201.372 364.114C199.214 364.114 197.087 363.605 195.162 362.629C191.73 360.648 191.73 357.434 195.16 355.458H195.162Z" fill="#FCC729"/>
<path opacity="0.3" d="M209.516 378.433C201.831 378.433 194.655 376.733 189.316 373.651C184.637 370.951 181.953 367.419 181.953 363.968C181.953 360.517 184.637 356.988 189.316 354.286C194.659 351.202 201.835 349.504 209.516 349.504C217.197 349.504 224.377 351.204 229.716 354.286C234.395 356.986 237.079 360.518 237.079 363.968C237.079 367.418 234.395 370.948 229.716 373.651C224.377 376.733 217.202 378.433 209.516 378.433ZM209.516 350.878C202.068 350.878 195.137 352.511 189.999 355.478C185.757 357.928 183.323 361.024 183.323 363.97C183.323 366.916 185.757 370.012 189.999 372.463C195.137 375.428 202.068 377.063 209.516 377.063C216.964 377.063 223.896 375.43 229.034 372.463C233.276 370.012 235.709 366.917 235.709 363.97C235.709 361.023 233.276 357.928 229.033 355.478C223.896 352.511 216.965 350.878 209.516 350.878Z" fill="#2343A3"/>
<path opacity="0.1" d="M198.359 380.663V384.607C205.958 386.257 213.829 386.2 221.403 384.442V380.498C213.829 382.256 205.958 382.313 198.359 380.663V380.663Z" fill="#2343A3"/>
<path opacity="0.1" d="M231.844 386.527V390.472L239.866 388.658V384.713L231.844 386.527Z" fill="#2343A3"/>
<path opacity="0.1" d="M245.34 387.873V391.818L245.64 398.435V394.49L245.34 387.873Z" fill="#2343A3"/>
<path opacity="0.1" d="M248.59 396.195V400.14L255.998 400.791V396.846L248.59 396.195Z" fill="#2343A3"/>
<path opacity="0.1" d="M284.994 407.402H268.004V411.347H284.994V407.402Z" fill="#2343A3"/>
<path opacity="0.15" d="M291.082 403.889V407.834L284.992 411.348V407.403L287.661 405.862V407.562L289.134 406.712V404.992L291.082 403.889Z" fill="#2343A3"/>
<path d="M289.133 404.994L287.66 405.862V407.562L289.133 406.712V404.994Z" fill="#27DEBF"/>
<path opacity="0.15" d="M289.135 404.994V406.714L233.41 374.534L234.884 373.666L289.135 404.994Z" fill="#2343A3"/>
<path opacity="0.15" d="M234.884 373.67V375.391L233.41 374.538L234.884 373.67Z" fill="#2343A3"/>
<path d="M12.1961 151.395H1.86407C1.54581 151.395 1.24058 151.269 1.01553 151.044C0.79049 150.819 0.664062 150.514 0.664062 150.195C0.664062 149.877 0.79049 149.572 1.01553 149.347C1.24058 149.122 1.54581 148.995 1.86407 148.995H11.0641C11.2279 147.572 11.6807 146.197 12.3948 144.955C13.1089 143.713 14.0692 142.63 15.2169 141.773C16.3645 140.915 17.6752 140.301 19.0686 139.969C20.4621 139.636 21.9088 139.591 23.3201 139.837C24.3796 138.284 25.8773 137.082 27.6225 136.383C29.3677 135.684 31.2815 135.52 33.1201 135.912C33.6047 133.301 34.8701 130.898 36.7491 129.02C38.6281 127.143 41.0323 125.88 43.6443 125.398C46.2562 124.916 48.953 125.237 51.3784 126.32C53.8039 127.402 55.8439 129.195 57.2291 131.461C58.4228 131.195 59.6587 131.179 60.8589 131.415C62.059 131.65 63.1972 132.133 64.2014 132.831C65.2057 133.529 66.0542 134.428 66.6932 135.471C67.3322 136.513 67.748 137.678 67.9141 138.889H78.2621C78.4196 138.889 78.5757 138.92 78.7213 138.981C78.8669 139.041 78.9992 139.129 79.1106 139.241C79.222 139.352 79.3104 139.484 79.3707 139.63C79.431 139.776 79.4621 139.932 79.4621 140.089C79.4621 140.247 79.431 140.403 79.3707 140.549C79.3104 140.694 79.222 140.826 79.1106 140.938C78.9992 141.049 78.8669 141.138 78.7213 141.198C78.5757 141.258 78.4196 141.289 78.2621 141.289H66.7991C66.4808 141.289 66.1756 141.163 65.9505 140.938C65.7255 140.713 65.5991 140.408 65.5991 140.089C65.5989 139.062 65.3529 138.049 64.8817 137.136C64.4104 136.223 63.7275 135.435 62.89 134.84C62.0524 134.245 61.0846 133.858 60.0673 133.713C59.05 133.568 58.0127 133.668 57.0421 134.005C56.7689 134.1 56.4707 134.093 56.2023 133.986C55.9338 133.878 55.7132 133.677 55.5811 133.42C54.5139 131.334 52.7931 129.654 50.6815 128.638C48.5699 127.622 46.1837 127.325 43.8875 127.793C41.5913 128.261 39.5114 129.468 37.9655 131.229C36.4197 132.99 35.493 135.209 35.3271 137.546C35.3137 137.734 35.2566 137.915 35.1604 138.076C35.0642 138.238 34.9314 138.374 34.7729 138.474C34.6143 138.575 34.4344 138.637 34.2476 138.655C34.0607 138.674 33.8722 138.648 33.6971 138.58C32.0997 137.961 30.3318 137.942 28.722 138.529C27.1121 139.115 25.77 140.266 24.9451 141.767C24.816 142.001 24.6123 142.186 24.3665 142.291C24.1206 142.396 23.8467 142.416 23.5881 142.348C22.3865 142.03 21.128 141.993 19.9096 142.238C18.6911 142.483 17.5453 143.005 16.5604 143.763C15.5754 144.521 14.7776 145.495 14.2285 146.61C13.6794 147.725 13.3935 148.951 13.3931 150.194C13.3933 150.512 13.2674 150.817 13.043 151.042C12.8186 151.268 12.514 151.395 12.1961 151.395V151.395Z" fill="#A3ACC0"/>
<path d="M463.953 90.1924H476.368C476.75 90.1924 477.116 90.0407 477.386 89.7705C477.656 89.5004 477.808 89.134 477.808 88.7519C477.808 88.3699 477.656 88.0035 477.386 87.7333C477.116 87.4632 476.75 87.3114 476.368 87.3114H465.312C465.115 85.6018 464.571 83.9504 463.713 82.4586C462.855 80.9667 461.701 79.6659 460.323 78.6358C458.944 77.6058 457.37 76.8683 455.696 76.4686C454.022 76.0689 452.284 76.0154 450.589 76.3114C449.316 74.4455 447.516 73.0006 445.419 72.161C443.322 71.3213 441.023 71.1248 438.814 71.5964C438.232 68.4591 436.712 65.5722 434.454 63.317C432.197 61.0618 429.309 59.5443 426.171 58.9651C423.033 58.3859 419.793 58.7722 416.88 60.0729C413.966 61.3737 411.515 63.5277 409.852 66.2504C408.418 65.9302 406.933 65.9111 405.491 66.1942C404.049 66.4773 402.682 67.0565 401.476 67.8951C400.269 68.7338 399.25 69.8137 398.482 71.0665C397.714 72.3193 397.215 73.7177 397.016 75.1734H384.587C384.211 75.1833 383.854 75.3394 383.592 75.6085C383.33 75.8776 383.184 76.2383 383.184 76.6139C383.184 76.9895 383.33 77.3503 383.592 77.6194C383.854 77.8884 384.211 78.0446 384.587 78.0544H398.361C398.743 78.0544 399.109 77.9026 399.38 77.6324C399.65 77.3621 399.802 76.9956 399.802 76.6134C399.802 75.379 400.097 74.1625 400.663 73.0656C401.23 71.9686 402.05 71.023 403.056 70.3078C404.062 69.5925 405.225 69.1283 406.447 68.9539C407.669 68.7796 408.915 68.9001 410.081 69.3054C410.408 69.4197 410.766 69.4118 411.089 69.2832C411.411 69.1546 411.677 68.9139 411.836 68.6054C413.118 66.0994 415.185 64.082 417.722 62.8615C420.258 61.641 423.125 61.2845 425.883 61.8465C428.641 62.4084 431.14 63.858 432.997 65.9736C434.854 68.0892 435.967 70.7545 436.167 73.5624C436.182 73.7875 436.251 74.0057 436.366 74.1996C436.482 74.3934 436.641 74.5573 436.832 74.6782C437.022 74.799 437.239 74.8734 437.463 74.8954C437.688 74.9173 437.914 74.8862 438.125 74.8044C440.044 74.0602 442.168 74.0381 444.101 74.7424C446.035 75.4467 447.648 76.8294 448.639 78.6334C448.793 78.9153 449.038 79.1374 449.333 79.2642C449.628 79.3911 449.958 79.4155 450.269 79.3334C451.712 78.9518 453.224 78.9066 454.687 79.2014C456.151 79.4961 457.527 80.1229 458.71 81.0335C459.893 81.944 460.852 83.114 461.511 84.4533C462.171 85.7926 462.514 87.2655 462.515 88.7584C462.516 89.1389 462.668 89.5034 462.938 89.7721C463.207 90.0408 463.572 90.1919 463.953 90.1924Z" fill="#A3ACC0"/>
<path d="M92.6708 56.4193H89.1248V52.8703C89.1312 52.5611 89.0759 52.2537 88.962 51.9662C88.8481 51.6787 88.678 51.4168 88.4616 51.1959C88.2452 50.9749 87.9869 50.7994 87.7018 50.6796C87.4167 50.5598 87.1105 50.498 86.8013 50.498C86.4921 50.498 86.1859 50.5598 85.9008 50.6796C85.6157 50.7994 85.3574 50.9749 85.141 51.1959C84.9246 51.4168 84.7545 51.6787 84.6406 51.9662C84.5267 52.2537 84.4714 52.5611 84.4778 52.8703V56.4162H80.9308C80.6216 56.4098 80.3142 56.4652 80.0267 56.5791C79.7392 56.693 79.4773 56.8631 79.2564 57.0795C79.0355 57.2959 78.86 57.5542 78.7401 57.8393C78.6203 58.1244 78.5586 58.4305 78.5586 58.7397C78.5586 59.049 78.6203 59.3551 78.7401 59.6402C78.86 59.9253 79.0355 60.1836 79.2564 60.4C79.4773 60.6164 79.7392 60.7865 80.0267 60.9004C80.3142 61.0143 80.6216 61.0697 80.9308 61.0632H84.4778V64.6102C84.4714 64.9194 84.5267 65.2268 84.6406 65.5143C84.7545 65.8018 84.9246 66.0637 85.141 66.2846C85.3574 66.5056 85.6157 66.6811 85.9008 66.8009C86.1859 66.9207 86.4921 66.9825 86.8013 66.9825C87.1105 66.9825 87.4167 66.9207 87.7018 66.8009C87.9869 66.6811 88.2452 66.5056 88.4616 66.2846C88.678 66.0637 88.8481 65.8018 88.962 65.5143C89.0759 65.2268 89.1312 64.9194 89.1248 64.6102V61.0703H92.6708C92.98 61.0767 93.2873 61.0213 93.5749 60.9074C93.8624 60.7935 94.1243 60.6234 94.3452 60.407C94.5661 60.1906 94.7416 59.9323 94.8615 59.6472C94.9813 59.3621 95.043 59.056 95.043 58.7467C95.043 58.4375 94.9813 58.1314 94.8615 57.8463C94.7416 57.5612 94.5661 57.3029 94.3452 57.0865C94.1243 56.8701 93.8624 56.7 93.5749 56.5861C93.2873 56.4722 92.98 56.4168 92.6708 56.4232V56.4193Z" fill="#A3ACC0"/>
<path d="M459.643 305.441C461.155 305.441 462.38 304.215 462.38 302.704C462.38 301.192 461.155 299.967 459.643 299.967C458.132 299.967 456.906 301.192 456.906 302.704C456.906 304.215 458.132 305.441 459.643 305.441Z" fill="#A3ACC0"/>
<path d="M136.503 316.804C138.014 316.804 139.24 315.579 139.24 314.067C139.24 312.555 138.014 311.33 136.503 311.33C134.991 311.33 133.766 312.555 133.766 314.067C133.766 315.579 134.991 316.804 136.503 316.804Z" fill="#A3ACC0"/>
<defs>
<filter id="filter0_d_453_50061" x="242.418" y="115.746" width="189.203" height="235.799" filterUnits="userSpaceOnUse" color-interpolation-filters="sRGB">
<feFlood flood-opacity="0" result="BackgroundImageFix"/>
<feColorMatrix in="SourceAlpha" type="matrix" values="0 0 0 0 0 0 0 0 0 0 0 0 0 0 0 0 0 0 127 0" result="hardAlpha"/>
<feOffset dy="30"/>
<feGaussianBlur stdDeviation="25"/>
<feColorMatrix type="matrix" values="0 0 0 0 0.666667 0 0 0 0 0.701961 0 0 0 0 0.85098 0 0 0 0.2 0"/>
<feBlend mode="normal" in2="BackgroundImageFix" result="effect1_dropShadow_453_50061"/>
<feBlend mode="normal" in="SourceGraphic" in2="effect1_dropShadow_453_50061" result="shape"/>
</filter>
</defs>
</svg>
