<svg width="60" height="61" viewBox="0 0 60 61" fill="none" xmlns="http://www.w3.org/2000/svg">
<path d="M53.9893 12.4109C54.0218 12.2022 53.9798 11.9887 53.8707 11.8077C53.7616 11.6268 53.5924 11.49 53.3927 11.4213C45.6097 8.00606 37.8463 4.55558 30.1025 1.06988C29.9277 0.981563 29.7347 0.935547 29.539 0.935547C29.3432 0.935547 29.1502 0.981563 28.9755 1.06988C21.1804 4.53573 13.3894 7.99196 5.60263 11.4386C5.41348 11.4889 5.2489 11.6058 5.13925 11.7679C5.02959 11.93 4.98226 12.1263 5.00598 12.3206C5.05979 17.627 5.00022 22.9401 5.05979 28.2464C5.09421 35.5578 7.47718 42.6646 11.8573 48.5188C15.9012 54.1834 21.7065 58.3499 28.3673 60.3681C29.1068 60.6011 29.9 60.6011 30.6395 60.3681C36.9684 58.474 42.5312 54.6168 46.5241 49.3538C51.3791 43.2561 54.0082 35.6843 53.9768 27.89C53.9768 25.5947 53.9768 23.3052 53.9768 21.0089C53.9531 18.1464 53.9573 15.2804 53.9893 12.4109ZM49.7792 22.6787V28.379C49.809 34.8384 47.6341 41.1147 43.6139 46.1707C40.3056 50.5403 35.6925 53.7437 30.4426 55.3173C29.8294 55.5108 29.1716 55.5108 28.5585 55.3173C23.0363 53.6416 18.2244 50.1845 14.8741 45.4857C11.2404 40.6324 9.26289 34.7397 9.2334 28.6769C9.18536 24.2765 9.2334 19.8761 9.2334 15.4758C9.21409 15.3173 9.25181 15.157 9.33983 15.0238C9.42784 14.8905 9.56041 14.7929 9.71379 14.7485C16.1497 11.8982 22.5933 9.03025 29.0446 6.14471C29.1897 6.07141 29.35 6.03323 29.5125 6.03323C29.6751 6.03323 29.8354 6.07141 29.9804 6.14471C36.4221 9.03025 42.8593 11.8902 49.2921 14.7245C49.4571 14.7824 49.5965 14.8965 49.6859 15.0469C49.7753 15.1972 49.809 15.3742 49.7811 15.5469C49.7792 17.9258 49.7792 20.2989 49.7792 22.6787Z" fill="#2533CC"/>
<path d="M46.2024 17.2221L43.1721 15.8809L15.0117 39.7312C15.6276 40.9308 16.3416 42.0774 17.1466 43.1593C17.672 43.867 18.2332 44.5475 18.8279 45.198L46.6309 21.659V17.9119C46.653 17.7648 46.6221 17.6146 46.5436 17.4882C46.4651 17.3618 46.3441 17.2675 46.2024 17.2221Z" fill="#2533CC"/>
<path d="M28.7027 51.4777C29.2207 51.6414 29.7766 51.6414 30.2947 51.4777C34.7324 50.1558 38.6337 47.4549 41.433 43.7665C44.8282 39.5008 46.6665 34.2044 46.6442 28.7524C46.6442 28.0309 46.6442 27.3036 46.6442 26.582L21.6016 47.8018C23.7161 49.4638 26.1253 50.712 28.7027 51.4806V51.4777Z" fill="#2533CC"/>
<path d="M29.9114 9.98197C29.7894 9.92062 29.6546 9.88867 29.518 9.88867C29.3814 9.88867 29.2466 9.92062 29.1246 9.98197C23.6802 12.407 18.2422 14.8259 12.8106 17.2387C12.6871 17.2803 12.5807 17.3611 12.5075 17.4688C12.4342 17.5766 12.3983 17.7053 12.4051 17.8354V28.9804C12.4124 30.1987 12.512 31.4146 12.703 32.6179C12.8894 33.8011 13.1623 34.969 13.5196 36.1122L39.3684 14.1892L29.9114 9.98197Z" fill="#2533CC"/>
</svg>
