<svg width="45" height="39" viewBox="0 0 45 39" fill="none" xmlns="http://www.w3.org/2000/svg">
<path d="M37.9 10.5L37.7 10.4L28.3 0.8C28.1 0.6 27.8 0.5 27.5 0.5H11C10 0.5 9.10005 0.9 8.40005 1.6C7.70005 2.3 7.30005 3.2 7.30005 4.2V34.8C7.30005 35.8 7.70005 36.7 8.40005 37.4C9.10005 38.1 10 38.5 11 38.5H34.3C35.3 38.5 36.2 38.1 36.9 37.4C37.6 36.7 38 35.8 38 34.8V11.1C38 10.8 38 10.7 37.9 10.5ZM28.6 4.2L29.4 5.1L33.5 9.2L34.4 10H28.6V4.2ZM35.9 12.7V34.8C35.9 35 35.9 35.2 35.8 35.4C35.7 35.6 35.6 35.8 35.5 35.9C35.3 36 35.2001 36.2 35 36.2C34.8 36.3 34.6 36.3 34.4 36.3H11C10.6 36.3 10.2 36.1 9.90005 35.9C9.60005 35.6 9.50005 35.2 9.50005 34.8V4.2C9.50005 3.8 9.70005 3.4 9.90005 3.1C10.2 2.8 10.6 2.6 11 2.6H26.4V11C26.4 11.2 26.4 11.3 26.5 11.4C26.6 11.5 26.6 11.6 26.7 11.7C26.8 11.8 26.9 11.9 27.1 11.9C27.2 11.9 27.3 12 27.5 12H35.9V12.7Z" fill="#2533CC"/>
<path d="M24.3 20.1996C24.3 20.4996 24.2 20.7996 24 20.9996C23.8 21.1996 23.5 21.2996 23.2 21.2996H15.8C15.5 21.2996 15.2 21.1996 15 20.9996C14.8 20.7996 14.7 20.4996 14.7 20.1996C14.7 19.8996 14.8 19.5996 15 19.3996C15.2 19.1996 15.5 19.0996 15.8 19.0996H23.3C23.6 19.0996 23.9 19.1996 24.1 19.3996C24.2 19.5996 24.3 19.8996 24.3 20.1996Z" fill="#2533CC"/>
<path d="M30.6 27.0004C30.6 27.3004 30.5 27.6004 30.3 27.8004C30.1 28.0004 29.8 28.1004 29.5 28.1004H15.8C15.5 28.1004 15.2 28.0004 15 27.8004C14.8 27.6004 14.7 27.3004 14.7 27.0004C14.7 26.7004 14.8 26.4004 15 26.2004C15.2 26.0004 15.5 25.9004 15.8 25.9004H29.6C29.9 25.9004 30.2 26.0004 30.4 26.2004C30.5 26.4004 30.6 26.7004 30.6 27.0004Z" fill="#2533CC"/>
</svg>
