<svg width="423" height="307" viewBox="0 0 423 307" fill="none" xmlns="http://www.w3.org/2000/svg">
<path d="M422.469 276.545H0.46875V276.756H422.469V276.545Z" fill="#EEF0F6"/>
<path d="M380.184 290.125H314.715V290.336H380.184V290.125Z" fill="#EEF0F6"/>
<path d="M281.801 287.172H235.102V287.383H281.801V287.172Z" fill="#EEF0F6"/>
<path d="M351.387 282.293H301.574V282.504H351.387V282.293Z" fill="#EEF0F6"/>
<path d="M55.4561 283.711H44.7461V283.922H55.4561V283.711Z" fill="#EEF0F6"/>
<path d="M123.416 283.711H62.9766V283.922H123.416V283.711Z" fill="#EEF0F6"/>
<path d="M186.15 287.273H146.617V287.484H186.15V287.273Z" fill="#EEF0F6"/>
<path d="M200.498 239.031H37.5298C36.2531 239.029 35.0294 238.52 34.1274 237.616C33.2254 236.713 32.7187 235.488 32.7188 234.212V5.12466C32.7298 3.85525 33.2413 2.64149 34.1421 1.74704C35.0429 0.852592 36.2603 0.349715 37.5298 0.347656H200.498C201.776 0.347656 203.002 0.855372 203.905 1.75911C204.809 2.66285 205.317 3.88858 205.317 5.16666V234.212C205.317 235.49 204.809 236.715 203.905 237.619C203.002 238.523 201.776 239.031 200.498 239.031ZM37.5298 0.516655C36.309 0.518774 35.139 1.00519 34.2766 1.86913C33.4141 2.73307 32.9298 3.90392 32.9298 5.12466V234.212C32.9298 235.432 33.4141 236.603 34.2766 237.467C35.139 238.331 36.309 238.818 37.5298 238.82H200.498C201.719 238.817 202.89 238.331 203.753 237.467C204.617 236.604 205.103 235.433 205.106 234.212V5.12466C205.103 3.90327 204.617 2.73259 203.753 1.86893C202.89 1.00528 201.719 0.519034 200.498 0.516655H37.5298Z" fill="#EEF0F6"/>
<path d="M383.066 239.031H220.085C218.807 239.028 217.583 238.52 216.68 237.617C215.776 236.713 215.268 235.489 215.266 234.212V5.12466C215.279 3.85461 215.792 2.641 216.694 1.74683C217.596 0.852655 218.815 0.349953 220.085 0.347656H383.066C384.333 0.352606 385.548 0.856758 386.446 1.7509C387.345 2.64504 387.855 3.85715 387.866 5.12466V234.212C387.866 235.486 387.361 236.709 386.461 237.613C385.561 238.516 384.34 239.026 383.066 239.031ZM220.085 0.516655C218.863 0.519034 217.693 1.00528 216.829 1.86893C215.965 2.73259 215.479 3.90327 215.477 5.12466V234.212C215.479 235.433 215.965 236.604 216.829 237.467C217.693 238.331 218.863 238.817 220.085 238.82H383.066C384.287 238.817 385.458 238.331 386.321 237.467C387.185 236.604 387.671 235.433 387.674 234.212V5.12466C387.671 3.90327 387.185 2.73259 386.321 1.86893C385.458 1.00528 384.287 0.519034 383.066 0.516655H220.085Z" fill="#EEF0F6"/>
<path d="M159.926 35.6094H48.0195V218.234H159.926V35.6094Z" fill="#E9EBEF"/>
<path d="M163.342 35.6094H49.6133V218.234H163.342V35.6094Z" fill="#EEF0F6"/>
<path d="M159.926 218.137H48.0195V223.311H159.926V218.137Z" fill="#E9EBEF"/>
<path d="M169.034 218.137H55.3047V223.311H169.034V218.137Z" fill="#EEF0F6"/>
<path d="M158.559 213.449V40.3867L54.3926 40.3867L54.3926 213.449H158.559Z" fill="#EEF0F6"/>
<path d="M77.8789 213.447L91.1889 40.3867H111.951L98.6409 213.447H77.8789Z" fill="white"/>
<path d="M56.6117 208.69C56.5667 208.691 56.5218 208.683 56.4799 208.667C56.438 208.65 56.3998 208.625 56.3675 208.594C56.3353 208.562 56.3097 208.525 56.2922 208.483C56.2747 208.442 56.2657 208.397 56.2657 208.352V43.502C56.2582 43.4527 56.2613 43.4023 56.2751 43.3544C56.2888 43.3064 56.3127 43.262 56.3452 43.2242C56.3776 43.1863 56.4179 43.1559 56.4632 43.1351C56.5086 43.1143 56.5578 43.1035 56.6077 43.1035C56.6576 43.1035 56.7069 43.1143 56.7522 43.1351C56.7975 43.1559 56.8378 43.1863 56.8703 43.2242C56.9028 43.262 56.9267 43.3064 56.9404 43.3544C56.9541 43.4023 56.9573 43.4527 56.9497 43.502V208.352C56.9497 208.396 56.941 208.44 56.924 208.481C56.907 208.522 56.8821 208.56 56.8507 208.591C56.8193 208.622 56.7821 208.647 56.7411 208.664C56.7001 208.681 56.6561 208.69 56.6117 208.69Z" fill="#EEF0F6"/>
<path d="M103.109 213.447L116.409 40.3848H124.503L111.199 213.447H103.109Z" fill="white"/>
<path d="M158.559 213.449V40.3867H157.951V213.449H158.559Z" fill="#E9EBEF"/>
<path opacity="0.6" d="M164.474 47.5951H52.5681L52.1211 42.2441H164.035L164.474 47.5951Z" fill="#EEF0F6"/>
<path opacity="0.6" d="M164.474 56.3725H52.5681L52.1211 51.0215H164.035L164.474 56.3725Z" fill="#EEF0F6"/>
<path opacity="0.6" d="M164.474 65.1147H52.5681L52.1211 59.7637H164.035L164.474 65.1147Z" fill="#EEF0F6"/>
<path opacity="0.6" d="M164.474 73.8881H52.5681L52.1211 68.5371H164.035L164.474 73.8881Z" fill="#EEF0F6"/>
<path opacity="0.6" d="M164.474 82.6537H52.5681L52.1211 77.3027H164.035L164.474 82.6537Z" fill="#EEF0F6"/>
<path opacity="0.6" d="M164.474 91.4272H52.5681L52.1211 86.0762H164.035L164.474 91.4272Z" fill="#EEF0F6"/>
<path d="M338.755 35.6094H231.516V276.545H338.755V35.6094Z" fill="#EEF0F6"/>
<path d="M338.762 35.6094H233.785V276.545H338.762V35.6094Z" fill="#EEF0F6"/>
<path d="M332.355 271.076V41.0781L240.173 41.0781V271.076H332.355Z" fill="#EEF0F6"/>
<path d="M249.238 83.8762C249.238 80.5755 249.888 77.3072 251.151 74.2578C252.415 71.2084 254.266 68.4377 256.6 66.1038C258.934 63.7699 261.705 61.9185 264.754 60.6554C267.803 59.3923 271.072 58.7422 274.372 58.7422H298.172C301.473 58.7422 304.74 59.3924 307.789 60.6556C310.838 61.9188 313.609 63.7702 315.942 66.1042C318.275 68.4383 320.126 71.2091 321.388 74.2584C322.65 77.3078 323.299 80.5759 323.298 83.8762H249.238Z" fill="#EEF0F6"/>
<path d="M323.309 256.771V201.793H249.248V256.771H323.309Z" fill="#EEF0F6"/>
<path d="M249.231 194.766H281.902V99.3176H249.231V194.766Z" fill="#EEF0F6"/>
<path d="M290.626 194.766H323.297V99.3176H290.626V194.766Z" fill="#EEF0F6"/>
<path d="M311.447 146.607H324.833C325.383 146.607 325.912 146.388 326.301 145.999C326.69 145.61 326.909 145.082 326.909 144.531C326.907 143.981 326.687 143.455 326.298 143.066C325.909 142.677 325.383 142.457 324.833 142.455H311.447C310.898 142.457 310.372 142.677 309.984 143.066C309.597 143.455 309.379 143.982 309.379 144.531C309.379 145.08 309.597 145.607 309.984 145.996C310.372 146.385 310.898 146.605 311.447 146.607Z" fill="#E9EBEF"/>
<path d="M332.355 271.076V41.0781H330.692V271.076H332.355Z" fill="#EEF0F6"/>
<path d="M386.355 152.297H348.164L351.548 107.607H382.97L386.355 152.297Z" fill="#EEF0F6"/>
<path d="M377.975 152.297H371.409L370.016 107.607H376.076L377.975 152.297Z" fill="#EEF0F6"/>
<path d="M369.171 152.225H365.348V276.546H369.171V152.225Z" fill="#EEF0F6"/>
<path d="M368.823 207.928H365.691C364.587 207.928 363.691 208.823 363.691 209.928V213.06C363.691 214.164 364.587 215.06 365.691 215.06H368.823C369.928 215.06 370.823 214.164 370.823 213.06V209.928C370.823 208.823 369.928 207.928 368.823 207.928Z" fill="#EEF0F6"/>
<path d="M368.823 219.352H365.691C364.587 219.352 363.691 220.247 363.691 221.352V224.484C363.691 225.588 364.587 226.484 365.691 226.484H368.823C369.928 226.484 370.823 225.588 370.823 224.484V221.352C370.823 220.247 369.928 219.352 368.823 219.352Z" fill="#EEF0F6"/>
<path d="M373.305 276.546H361.211C361.211 275.862 361.482 275.207 361.964 274.723C362.447 274.238 363.101 273.965 363.785 273.963H370.723C371.408 273.963 372.065 274.235 372.549 274.72C373.033 275.204 373.305 275.861 373.305 276.546Z" fill="#EEF0F6"/>
<path d="M369.171 152.285H365.348V154.623H369.171V152.285Z" fill="#E9EBEF"/>
<path d="M220.644 152.297H182.453L185.833 107.607H217.255L220.644 152.297Z" fill="#EEF0F6"/>
<path d="M212.263 152.297H205.694L204.301 107.607H210.361L212.263 152.297Z" fill="#EEF0F6"/>
<path d="M203.46 152.225H199.637V276.546H203.46V152.225Z" fill="#EEF0F6"/>
<path d="M203.112 207.928H199.98C198.876 207.928 197.98 208.823 197.98 209.928V213.06C197.98 214.164 198.876 215.06 199.98 215.06H203.112C204.217 215.06 205.112 214.164 205.112 213.06V209.928C205.112 208.823 204.217 207.928 203.112 207.928Z" fill="#EEF0F6"/>
<path d="M203.112 219.352H199.98C198.876 219.352 197.98 220.247 197.98 221.352V224.484C197.98 225.588 198.876 226.484 199.98 226.484H203.112C204.217 226.484 205.112 225.588 205.112 224.484V221.352C205.112 220.247 204.217 219.352 203.112 219.352Z" fill="#EEF0F6"/>
<path d="M207.594 276.546H195.5C195.5 275.869 195.765 275.22 196.239 274.737C196.712 274.254 197.357 273.976 198.033 273.963H204.979C205.655 273.976 206.299 274.254 206.773 274.737C207.246 275.22 207.511 275.87 207.511 276.546H207.594Z" fill="#EEF0F6"/>
<path d="M203.46 152.285H199.637V154.623H203.46V152.285Z" fill="#E9EBEF"/>
<path opacity="0.1" d="M242.368 41.5273L240.781 90.2603L278.989 87.6183L242.368 41.5273Z" fill="#3D51D2"/>
<path opacity="0.1" d="M215.267 191.328L216.254 155.281L73.1289 157.222L215.267 191.328Z" fill="#3D51D2"/>
<path d="M70.7734 45.8516H243.793V154.728C243.793 155.076 243.725 155.42 243.592 155.742C243.459 156.063 243.263 156.355 243.017 156.601C242.771 156.847 242.479 157.043 242.158 157.176C241.836 157.309 241.491 157.378 241.143 157.378H73.4234C73.0754 157.378 72.7308 157.309 72.4093 157.176C72.0878 157.043 71.7957 156.847 71.5496 156.601C71.3035 156.355 71.1083 156.063 70.9752 155.742C70.842 155.42 70.7734 155.076 70.7734 154.728V45.8516Z" fill="#EEF0F6"/>
<g filter="url(#filter0_d_453_50065)">
<path d="M70.7734 45.8535H243.793V154.73C243.793 155.078 243.725 155.422 243.592 155.744C243.459 156.065 243.263 156.357 243.017 156.603C242.771 156.849 242.479 157.045 242.158 157.178C241.836 157.311 241.491 157.38 241.143 157.38H73.4234C73.0754 157.38 72.7308 157.311 72.4093 157.178C72.0878 157.045 71.7957 156.849 71.5496 156.603C71.3035 156.357 71.1083 156.065 70.9752 155.744C70.842 155.422 70.7734 155.078 70.7734 154.73V45.8535Z" fill="white"/>
</g>
<path opacity="0.2" d="M225.482 53.1367H89.0634C87.2464 53.1367 85.7734 54.6097 85.7734 56.4267V93.4727C85.7734 95.2897 87.2464 96.7627 89.0634 96.7627H225.482C227.299 96.7627 228.772 95.2897 228.772 93.4727V56.4267C228.772 54.6097 227.299 53.1367 225.482 53.1367Z" fill="#3D51D2"/>
<path opacity="0.2" d="M125.789 103.406H89.0634C87.2464 103.406 85.7734 104.879 85.7734 106.696V112.844C85.7734 114.661 87.2464 116.134 89.0634 116.134H125.789C127.606 116.134 129.079 114.661 129.079 112.844V106.696C129.079 104.879 127.606 103.406 125.789 103.406Z" fill="#3D51D2"/>
<path opacity="0.2" d="M175.633 103.406H138.907C137.09 103.406 135.617 104.879 135.617 106.696V112.844C135.617 114.661 137.09 116.134 138.907 116.134H175.633C177.45 116.134 178.923 114.661 178.923 112.844V106.696C178.923 104.879 177.45 103.406 175.633 103.406Z" fill="#3D51D2"/>
<path opacity="0.2" d="M225.473 103.406H188.747C186.93 103.406 185.457 104.879 185.457 106.696V112.844C185.457 114.661 186.93 116.134 188.747 116.134H225.473C227.29 116.134 228.763 114.661 228.763 112.844V106.696C228.763 104.879 227.29 103.406 225.473 103.406Z" fill="#3D51D2"/>
<path opacity="0.2" d="M88.1624 121.252H126.691C127.325 121.252 127.933 121.504 128.381 121.952C128.829 122.4 129.08 123.007 129.08 123.641V157.241H85.7734V123.641C85.7734 123.007 86.0251 122.4 86.4732 121.952C86.9212 121.504 87.5288 121.252 88.1624 121.252Z" fill="#3D51D2"/>
<path opacity="0.2" d="M138.039 121.252H176.568C176.882 121.252 177.193 121.314 177.483 121.434C177.772 121.554 178.036 121.73 178.258 121.952C178.48 122.173 178.656 122.437 178.776 122.727C178.896 123.017 178.957 123.327 178.957 123.641V157.241H135.617V123.641C135.617 123.325 135.68 123.011 135.802 122.719C135.924 122.427 136.103 122.162 136.329 121.94C136.554 121.718 136.821 121.543 137.115 121.424C137.408 121.306 137.723 121.248 138.039 121.252Z" fill="#3D51D2"/>
<path opacity="0.2" d="M187.836 121.252H226.365C226.999 121.252 227.606 121.504 228.054 121.952C228.502 122.4 228.753 123.008 228.753 123.641V157.241H185.453V123.641C185.453 123.009 185.704 122.403 186.15 121.955C186.596 121.507 187.201 121.254 187.833 121.252H187.836Z" fill="#3D51D2"/>
<path d="M123.505 35.4238H119.285V36.2678H123.505V35.4238Z" fill="#3D51D2"/>
<path d="M115.558 35.4238H105.219V36.2678H115.558V35.4238Z" fill="#3D51D2"/>
<path d="M236.266 38.377H78.2736C77.2849 38.377 76.3059 38.5725 75.393 38.9522C74.4801 39.3319 73.6513 39.8884 72.9543 40.5896C72.2573 41.2908 71.7058 42.1229 71.3315 43.0381C70.9572 43.9532 70.7676 44.9333 70.7736 45.922H243.794C243.8 44.931 243.609 43.9485 243.233 43.0316C242.857 42.1146 242.303 41.2812 241.603 40.5796C240.903 39.8781 240.071 39.3222 239.155 38.9441C238.239 38.566 237.257 38.3733 236.266 38.377Z" fill="#3D51D2"/>
<path d="M81.3984 42.1249C81.3996 42.422 81.3125 42.7129 81.1481 42.9605C80.9838 43.2081 80.7496 43.4013 80.4752 43.5155C80.2009 43.6298 79.8988 43.66 79.6073 43.6023C79.3157 43.5446 79.0479 43.4017 78.8378 43.1915C78.6276 42.9814 78.4847 42.7136 78.427 42.422C78.3693 42.1305 78.3995 41.8284 78.5138 41.5541C78.628 41.2797 78.8212 41.0455 79.0688 40.8812C79.3164 40.7168 79.6073 40.6297 79.9044 40.6309C80.3002 40.6325 80.6793 40.7904 80.9591 41.0702C81.2389 41.35 81.3968 41.7291 81.3984 42.1249Z" fill="white"/>
<path d="M86.2263 42.0506C86.2263 42.3461 86.1387 42.635 85.9745 42.8807C85.8103 43.1263 85.577 43.3178 85.304 43.4309C85.031 43.544 84.7306 43.5736 84.4408 43.5159C84.151 43.4583 83.8848 43.316 83.6759 43.1071C83.4669 42.8981 83.3246 42.6319 83.267 42.3421C83.2093 42.0523 83.2389 41.7519 83.352 41.4789C83.4651 41.2059 83.6566 40.9726 83.9023 40.8084C84.1479 40.6443 84.4368 40.5566 84.7323 40.5566C85.1285 40.5566 85.5085 40.714 85.7887 40.9942C86.0689 41.2744 86.2263 41.6544 86.2263 42.0506Z" fill="white"/>
<path d="M91.0544 42.0506C91.0544 42.3461 90.9668 42.635 90.8026 42.8807C90.6385 43.1263 90.4051 43.3178 90.1321 43.4309C89.8591 43.544 89.5588 43.5736 89.2689 43.5159C88.9791 43.4583 88.7129 43.316 88.504 43.1071C88.295 42.8981 88.1528 42.6319 88.0951 42.3421C88.0375 42.0523 88.0671 41.7519 88.1801 41.4789C88.2932 41.2059 88.4847 40.9726 88.7304 40.8084C88.9761 40.6443 89.2649 40.5566 89.5604 40.5566C89.9566 40.5566 90.3366 40.714 90.6168 40.9942C90.897 41.2744 91.0544 41.6544 91.0544 42.0506Z" fill="white"/>
<path d="M213.909 95.9121H280.585V188.642C280.585 189.537 280.229 190.396 279.596 191.029C278.963 191.662 278.105 192.018 277.209 192.018H217.243C216.348 192.018 215.489 191.662 214.856 191.029C214.223 190.396 213.867 189.537 213.867 188.642V95.9121H213.909Z" fill="#3D51D2"/>
<path opacity="0.8" d="M213.909 95.9121H280.585V188.642C280.585 189.537 280.229 190.396 279.596 191.029C278.963 191.662 278.105 192.018 277.209 192.018H217.243C216.348 192.018 215.489 191.662 214.856 191.029C214.223 190.396 213.867 189.537 213.867 188.642V95.9121H213.909Z" fill="white"/>
<path opacity="0.9" d="M272.521 100.992H221.944C220.862 100.992 219.984 101.87 219.984 102.952V119.929C219.984 121.012 220.862 121.889 221.944 121.889H272.521C273.604 121.889 274.481 121.012 274.481 119.929V102.952C274.481 101.87 273.604 100.992 272.521 100.992Z" fill="white"/>
<path d="M270.921 126.004H223.544C221.578 126.004 219.984 127.598 219.984 129.564V138.455C219.984 140.421 221.578 142.015 223.544 142.015H270.921C272.888 142.015 274.481 140.421 274.481 138.455V129.564C274.481 127.598 272.888 126.004 270.921 126.004Z" fill="#3D51D2"/>
<path opacity="0.2" d="M274.481 126.004H219.984V142.015H274.481V126.004Z" fill="#364163"/>
<path d="M270.921 147.295H223.544C221.578 147.295 219.984 148.889 219.984 150.855V159.746C219.984 161.712 221.578 163.306 223.544 163.306H270.921C272.888 163.306 274.481 161.712 274.481 159.746V150.855C274.481 148.889 272.888 147.295 270.921 147.295Z" fill="#3D51D2"/>
<path d="M270.921 168.588H223.544C221.578 168.588 219.984 170.182 219.984 172.148V181.039C219.984 183.005 221.578 184.599 223.544 184.599H270.921C272.888 184.599 274.481 183.005 274.481 181.039V172.148C274.481 170.182 272.888 168.588 270.921 168.588Z" fill="#3D51D2"/>
<path opacity="0.2" d="M274.481 168.588H219.984V184.599H274.481V168.588Z" fill="#364163"/>
<path d="M218.289 86.5606H276.171C276.747 86.5606 277.318 86.6741 277.85 86.8947C278.383 87.1152 278.867 87.4385 279.274 87.8461C279.682 88.2536 280.005 88.7375 280.226 89.27C280.446 89.8025 280.56 90.3732 280.56 90.9496V96.0136H213.883V90.9496C213.883 90.3718 213.997 89.7997 214.219 89.2661C214.44 88.7324 214.765 88.2478 215.174 87.8401C215.584 87.4323 216.07 87.1094 216.604 86.8898C217.138 86.6702 217.711 86.5583 218.289 86.5606Z" fill="#3D51D2"/>
<path d="M306.944 300.034H300.766L300.774 285.711H306.961L306.944 300.034Z" fill="#FFC3BD"/>
<path d="M356.62 288.21L350.703 289.999L344.188 277.01L350.103 275.221L356.62 288.21Z" fill="#FFC3BD"/>
<path d="M348.417 291.072C348.026 291.224 347.595 291.238 347.193 291.114C347.063 291.053 346.95 290.96 346.866 290.843C346.782 290.726 346.729 290.59 346.712 290.447C346.692 290.363 346.695 290.274 346.72 290.191C346.746 290.108 346.793 290.033 346.857 289.974C347.414 289.442 349.634 290.05 349.887 290.117C349.914 290.126 349.938 290.143 349.956 290.166C349.974 290.188 349.985 290.215 349.987 290.244C349.99 290.273 349.984 290.301 349.971 290.327C349.957 290.352 349.937 290.373 349.911 290.387C349.441 290.672 348.94 290.901 348.417 291.072ZM347.217 290.101C347.151 290.115 347.089 290.147 347.04 290.194C347.016 290.218 347 290.248 346.992 290.281C346.985 290.314 346.987 290.348 346.999 290.38C347.008 290.479 347.042 290.573 347.098 290.654C347.154 290.736 347.231 290.801 347.319 290.844C348.071 290.949 348.833 290.758 349.447 290.312C348.725 290.098 347.968 290.027 347.219 290.105L347.217 290.101Z" fill="#3D51D2"/>
<path d="M349.885 290.405H349.809C349.117 290.253 347.598 289.299 347.547 288.59C347.542 288.479 347.574 288.369 347.638 288.277C347.702 288.186 347.795 288.118 347.901 288.084C348.001 288.037 348.111 288.012 348.222 288.012C348.333 288.012 348.442 288.037 348.542 288.084C349.386 288.439 349.96 290.127 349.985 290.202C349.997 290.226 350.003 290.252 350.003 290.278C350.003 290.305 349.997 290.331 349.985 290.354L349.885 290.405ZM348.07 288.337C348.048 288.33 348.024 288.33 348.002 288.337C347.833 288.413 347.833 288.497 347.833 288.537C347.833 288.951 348.871 289.719 349.597 290.006C349.403 289.516 348.956 288.563 348.424 288.318C348.305 288.28 348.176 288.286 348.061 288.335L348.07 288.337Z" fill="#3D51D2"/>
<path d="M350.103 289.434L356.754 287.425C356.868 287.39 356.992 287.396 357.103 287.442C357.214 287.488 357.306 287.572 357.362 287.678L359.894 292.658C359.953 292.783 359.985 292.92 359.987 293.058C359.988 293.197 359.96 293.334 359.904 293.461C359.848 293.588 359.765 293.701 359.661 293.792C359.558 293.884 359.435 293.952 359.303 293.992C356.974 294.65 355.809 294.836 352.88 295.739C351.08 296.279 345.28 299.199 342.836 299.959C340.392 300.719 339.392 298.322 340.355 297.782C343.827 295.88 346.856 293.262 349.242 290.102C349.44 289.784 349.745 289.548 350.103 289.435V289.434Z" fill="#3D51D2"/>
<path d="M298.215 300.397C297.69 300.448 297.165 300.314 296.73 300.017C296.632 299.929 296.558 299.818 296.515 299.694C296.472 299.57 296.462 299.437 296.485 299.308C296.49 299.226 296.517 299.146 296.563 299.078C296.609 299.01 296.673 298.955 296.747 298.92C297.515 298.498 299.947 299.764 300.216 299.908C300.244 299.92 300.267 299.943 300.281 299.97C300.294 299.998 300.298 300.029 300.292 300.06C300.285 300.09 300.269 300.117 300.247 300.139C300.224 300.16 300.195 300.173 300.165 300.178C299.523 300.314 298.87 300.387 298.215 300.397ZM297.152 299.123C297.056 299.118 296.961 299.136 296.874 299.174C296.846 299.191 296.823 299.215 296.806 299.242C296.788 299.27 296.777 299.301 296.774 299.334C296.762 299.42 296.77 299.507 296.798 299.589C296.826 299.671 296.872 299.746 296.934 299.807C297.297 300.145 298.318 300.195 299.685 299.967C298.896 299.542 298.039 299.256 297.153 299.123H297.152Z" fill="#3D51D2"/>
<path d="M300.141 300.186H300.082C299.348 299.848 297.93 298.498 298.073 297.814C298.073 297.654 298.233 297.443 298.638 297.409C298.788 297.383 298.942 297.392 299.088 297.434C299.234 297.477 299.369 297.552 299.482 297.654C300.013 298.339 300.309 299.176 300.326 300.042C300.326 300.067 300.319 300.092 300.308 300.114C300.296 300.137 300.279 300.155 300.258 300.169C300.222 300.188 300.18 300.194 300.141 300.186ZM298.741 297.654H298.657C298.387 297.654 298.37 297.789 298.357 297.823C298.273 298.237 299.201 299.292 299.969 299.747C299.932 299.05 299.675 298.382 299.235 297.84C299.093 297.727 298.915 297.67 298.735 297.68L298.741 297.654Z" fill="#3D51D2"/>
<path d="M300.834 299.317H307.586C307.707 299.316 307.824 299.357 307.917 299.435C308.01 299.512 308.072 299.62 308.092 299.739L309.071 305.239C309.095 305.375 309.089 305.515 309.053 305.648C309.016 305.781 308.951 305.905 308.862 306.01C308.772 306.115 308.66 306.199 308.535 306.256C308.409 306.313 308.272 306.342 308.134 306.339C305.703 306.297 302.226 306.153 299.129 306.153C295.55 306.153 292.444 306.347 288.25 306.347C285.718 306.347 285.119 303.815 286.191 303.553C291.078 302.49 295.028 302.38 299.324 299.797C299.775 299.504 300.297 299.338 300.835 299.316L300.834 299.317Z" fill="#3D51D2"/>
<path d="M322.827 74.4238C321.738 78.9478 321.055 84.5518 324.085 87.5738C324.085 87.5738 322.068 92.1648 313.662 92.1648C305.982 92.1648 310.024 87.5738 310.024 87.5738C315.088 86.3738 315.13 80.1298 314.413 76.6018L322.827 74.4238Z" fill="#FFC3BD"/>
<path opacity="0.2" d="M300.774 285.721L300.766 293.098H306.953L306.961 285.721H300.774Z" fill="#212124"/>
<path opacity="0.2" d="M350.103 275.221L344.188 277.021L347.547 283.714L353.471 281.925L350.103 275.221Z" fill="#212124"/>
<path d="M336.45 93.2305L328.516 97.7885C328.516 97.7885 336.838 117.2 336.016 120.34C334.894 124.56 334.328 133.177 332.598 138.773C333.282 139.541 335.598 140.917 336.523 140.883C339.899 134.131 345.402 122.61 345.081 118.703C344.358 109.772 336.45 93.2305 336.45 93.2305Z" fill="#FFC3BD"/>
<path d="M332.599 138.771L327.164 141.016L332.616 145.548C332.616 145.548 337.309 143.43 336.448 139.448L332.599 138.771Z" fill="#FFC3BD"/>
<path d="M324.125 145.879L329.265 149.736L332.616 145.55L327.164 141.018L324.125 145.879Z" fill="#FFC3BD"/>
<path d="M335.096 88.9764C340.852 90.1494 345.528 110.709 345.528 110.709L332.564 116.946C330.069 111.36 327.932 105.62 326.164 99.7624C324.124 92.1324 328.918 87.7184 335.096 88.9764Z" fill="#3D51D2"/>
<path opacity="0.2" d="M330.473 96.0477C328.059 93.5157 329.156 103.593 329.764 110.295C330.279 111.629 330.777 112.827 331.207 113.848C334.693 108.801 333.849 99.5927 330.473 96.0477Z" fill="#212124"/>
<path d="M310.215 89.447C310.215 87.253 309.894 86.214 310.494 85.404C311.094 84.594 322.977 83.632 325.028 84.56C325.728 84.872 326.134 88.029 325.256 89.438C323.972 91.481 310.215 89.447 310.215 89.447Z" fill="#3D51D2"/>
<path opacity="0.2" d="M310.215 89.447C310.215 87.253 309.894 86.214 310.494 85.404C311.094 84.594 322.977 83.632 325.028 84.56C325.728 84.872 326.134 88.029 325.256 89.438C323.972 91.481 310.215 89.447 310.215 89.447Z" fill="#3D51D2"/>
<path d="M300.435 89.2948C300.435 89.2948 292.316 107.964 297.717 142.737H330.793C331.24 137.673 329.105 112.893 335.093 88.9738C331.456 88.267 327.777 87.7994 324.079 87.5738C319.396 87.3035 314.701 87.3035 310.018 87.5738C306.783 87.9003 303.577 88.476 300.43 89.2958L300.435 89.2948Z" fill="#3D51D2"/>
<path d="M305.15 97.9719L296.95 94.6719C296.95 94.6719 285.877 113.472 283.564 115.055C278.205 112.118 276.407 113.308 272.238 110.227C271.183 110.337 269.538 111.805 268.98 112.556C272.356 119.056 283.573 127.098 289.118 122.195C295.985 116.126 305.15 97.9719 305.15 97.9719Z" fill="#FFC3BD"/>
<path opacity="0.2" d="M306.183 95.7439C304.951 92.5709 302.368 91.2439 299.575 91.7099C298.343 95.6009 296.199 104.151 295.895 117.03L299.102 117.756C299.102 117.756 308.302 101.171 306.183 95.7439Z" fill="#212124"/>
<path d="M307.591 93.5256C309.431 99.0626 298.155 115.352 298.155 115.352L286.086 108.6C288.173 103.519 290.781 98.6678 293.868 94.1246C298.535 87.6346 305.576 87.4576 307.591 93.5256Z" fill="#3D51D2"/>
<path d="M272.446 110.405L266.935 107.223L263.711 113.637C265.937 114.37 268.267 114.738 270.611 114.726L272.446 110.405Z" fill="#FFC3BD"/>
<path d="M264.218 107.223L260.277 110.97L263.712 113.637L266.936 107.223H264.218Z" fill="#FFC3BD"/>
<path d="M309.119 67.9175C309.068 68.4175 308.764 68.7615 308.444 68.7615C308.124 68.7615 307.895 68.3225 307.944 67.8245C307.993 67.3265 308.298 66.9805 308.628 66.9805C308.958 66.9805 309.17 67.4195 309.119 67.9175Z" fill="#3D51D2"/>
<path d="M309.558 67.959C308.812 69.4504 307.87 70.8356 306.758 72.078C307.078 72.3425 307.453 72.5321 307.856 72.6328C308.259 72.7335 308.68 72.7428 309.087 72.66L309.558 67.959Z" fill="#FF8F3E"/>
<path d="M308.528 66.1962L308.401 66.1452C308.369 66.1234 308.342 66.0955 308.322 66.0632C308.301 66.0309 308.288 65.9948 308.281 65.9571C308.275 65.9193 308.276 65.8807 308.285 65.8435C308.294 65.8062 308.31 65.7711 308.333 65.7402C308.598 65.3423 308.951 65.0111 309.366 64.7726C309.78 64.5341 310.244 64.3946 310.722 64.3652C310.76 64.3663 310.797 64.3749 310.832 64.3906C310.867 64.4063 310.898 64.4287 310.924 64.4567C310.95 64.4846 310.97 64.5174 310.983 64.5533C310.996 64.5891 311.002 64.6271 311.001 64.6652C310.998 64.7439 310.965 64.8184 310.909 64.8741C310.854 64.9297 310.779 64.9623 310.701 64.9652C310.328 64.9961 309.967 65.1127 309.646 65.306C309.326 65.4992 309.054 65.7638 308.853 66.0792C308.816 66.1286 308.766 66.166 308.708 66.1868C308.65 66.2076 308.587 66.2109 308.528 66.1962Z" fill="#3D51D2"/>
<path d="M325.922 67.4875C324.922 73.5815 324.648 77.1875 321.246 80.1475C320.166 81.1253 318.837 81.7864 317.406 82.0583C315.974 82.3301 314.496 82.2021 313.132 81.6884C311.769 81.1747 310.574 80.2951 309.678 79.1463C308.782 77.9975 308.22 76.6239 308.054 75.1765C307.303 69.6065 309.054 60.5835 315.279 58.4905C316.608 58.0028 318.043 57.8759 319.437 58.1227C320.832 58.3695 322.136 58.9812 323.217 59.8956C324.299 60.81 325.118 61.9944 325.593 63.3284C326.068 64.6625 326.182 66.0985 325.922 67.4905V67.4875Z" fill="#FFC3BD"/>
<path d="M313.22 70.1119C311.954 66.1029 310.308 59.9119 314.807 57.6119C319.306 55.3119 322.85 58.5069 327.754 61.4609C333.282 64.7859 329.906 75.3359 323.239 77.8179C317.643 79.9019 312.182 75.7159 313.22 70.1119Z" fill="#2B3149"/>
<path d="M313.711 62.6776C309.744 63.7496 307.011 61.2005 308.968 58.2635C311.449 54.5245 321.206 55.5036 324.861 59.5466C328.516 63.5896 316.463 65.5256 313.711 62.6776Z" fill="#3D51D2"/>
<path d="M315.22 59.7226C310.375 58.8276 308.392 54.8776 312.452 52.4306C316.284 50.1306 327.052 54.1186 328.852 60.4826C330.652 66.8466 316.689 64.2386 315.22 59.7226Z" fill="#2B3149"/>
<path d="M328.137 62.7531C328.871 62.1621 331.791 61.3181 332.121 64.5841C331.055 63.5155 329.641 62.8657 328.137 62.7531Z" fill="#3D51D2"/>
<path d="M330.228 58.6855C330.81 59.4285 331.637 62.3485 328.363 62.6605C329.439 61.6005 330.101 60.1906 330.228 58.6855Z" fill="#3D51D2"/>
<path d="M316.707 69.8341C316.266 71.1506 315.339 72.2493 314.116 72.9061C312.495 73.7501 311.373 72.4161 311.584 70.6951C311.761 69.1501 312.816 66.8381 314.563 66.7031C316.31 66.5681 317.239 68.2221 316.707 69.8341Z" fill="#FFC3BD"/>
<path d="M309.449 142.738C309.449 142.738 314.386 190.002 317.459 207.726C320.835 227.138 344.467 283.18 344.467 283.18L355.312 279.905C355.312 279.905 338.432 228.379 336.837 209.186C335.149 188.348 330.828 142.763 330.828 142.763L309.449 142.738Z" fill="#556DD7"/>
<path opacity="0.2" d="M317.051 159.263C316.561 158.52 316.097 158.263 315.651 158.419H315.567C315.464 158.46 315.367 158.517 315.28 158.588C315.19 158.663 315.105 158.745 315.027 158.833C314.976 158.884 314.934 158.943 314.884 159.002C314.834 159.061 314.757 159.179 314.69 159.281C314.537 159.528 314.398 159.785 314.276 160.049C314.209 160.209 314.133 160.378 314.065 160.549C313.997 160.72 313.896 160.979 313.812 161.216C313.728 161.453 313.593 161.857 313.491 162.203C313.475 162.296 313.447 162.387 313.407 162.473C313.382 162.566 313.297 162.861 313.238 163.055L313.111 163.561C313.018 163.899 312.934 164.236 312.849 164.591C312.764 164.946 312.68 165.359 312.596 165.756C312.581 165.897 312.55 166.036 312.503 166.17C312.403 166.676 312.303 167.2 312.203 167.723C313.562 179.488 315.191 192.976 316.609 202.386C316.709 202.086 316.809 201.761 316.909 201.415C317.344 199.848 317.697 198.259 317.964 196.655C320.067 184.524 320.227 164.099 317.051 159.263Z" fill="#212124"/>
<path d="M297.716 142.738C297.716 142.738 294.83 188.972 294.669 207.838C294.5 227.453 298.526 291.673 298.526 291.673H309C309 291.673 312.165 228.601 313.482 209.332C314.908 188.332 319.457 142.74 319.457 142.74L297.716 142.738Z" fill="#556DD7"/>
<defs>
<filter id="filter0_d_453_50065" x="20.7734" y="25.8535" width="273.02" height="211.525" filterUnits="userSpaceOnUse" color-interpolation-filters="sRGB">
<feFlood flood-opacity="0" result="BackgroundImageFix"/>
<feColorMatrix in="SourceAlpha" type="matrix" values="0 0 0 0 0 0 0 0 0 0 0 0 0 0 0 0 0 0 127 0" result="hardAlpha"/>
<feOffset dy="30"/>
<feGaussianBlur stdDeviation="25"/>
<feColorMatrix type="matrix" values="0 0 0 0 0.666667 0 0 0 0 0.701961 0 0 0 0 0.85098 0 0 0 0.2 0"/>
<feBlend mode="normal" in2="BackgroundImageFix" result="effect1_dropShadow_453_50065"/>
<feBlend mode="normal" in="SourceGraphic" in2="effect1_dropShadow_453_50065" result="shape"/>
</filter>
</defs>
</svg>
