<svg width="56" height="55" viewBox="0 0 56 55" fill="none" xmlns="http://www.w3.org/2000/svg">
<path d="M11.7055 12.9757V12.3857H3.3125L6.1125 3.99873C6.27225 3.52023 6.57872 3.10422 6.98837 2.80982C7.39802 2.51541 7.89003 2.35758 8.3945 2.35873H13.3425C13.4955 2.00473 13.6605 1.65073 13.8425 1.30273L49.4535 1.76873L54.1715 12.9747L11.7055 12.9757Z" fill="#E9EBEF"/>
<path d="M54.17 26.115C54.9286 25.2545 55.3478 24.1471 55.349 23V12.975L51.958 3.12601C51.6553 2.21454 51.0727 1.42178 50.2934 0.86054C49.514 0.299299 48.5774 -0.0018292 47.617 8.36017e-06H8.391C7.39211 -0.00149934 6.41812 0.31167 5.6073 0.895061C4.79648 1.47845 4.19001 2.30242 3.874 3.25001L0.5 12.975V23C0.501759 24.1469 0.921242 25.2539 1.68 26.114C1.8913 26.353 2.12578 26.5703 2.38 26.763C2.12349 26.9574 1.88879 27.1791 1.68 27.424C0.921015 28.2843 0.501516 29.3917 0.5 30.539L0.5 36.439C0.501335 37.1886 0.681272 37.9271 1.0249 38.5934C1.36854 39.2596 1.86597 39.8343 2.476 40.27C1.86611 40.7056 1.36876 41.2802 1.02513 41.9462C0.681507 42.6122 0.501494 43.3506 0.5 44.1L0.5 50C0.5 51.2513 0.997074 52.4513 1.88187 53.3361C2.76667 54.2209 3.96671 54.718 5.218 54.718H50.631C51.8823 54.718 53.0823 54.2209 53.9671 53.3361C54.8519 52.4513 55.349 51.2513 55.349 50V44.1C55.3481 43.3499 55.1684 42.6108 54.8248 41.944C54.4811 41.2772 53.9834 40.702 53.373 40.266C53.9834 39.83 54.4811 39.2548 54.8248 38.588C55.1684 37.9213 55.3481 37.1821 55.349 36.432V30.532C55.3472 29.3851 54.9278 28.2781 54.169 27.418C53.9624 27.1799 53.7311 26.9643 53.479 26.775C53.7305 26.5765 53.9617 26.3534 54.169 26.109L54.17 26.115ZM6.109 4.00001C6.26875 3.5215 6.57522 3.10549 6.98487 2.81109C7.39452 2.51668 7.88653 2.35885 8.391 2.36001H47.458C47.9625 2.35885 48.4545 2.51668 48.8641 2.81109C49.2738 3.10549 49.5803 3.5215 49.74 4.00001L52.54 12.387H3.313L6.109 4.00001ZM2.859 14.744H52.99V23C52.99 23.6257 52.7415 24.2257 52.2991 24.6681C51.8567 25.1105 51.2566 25.359 50.631 25.359H5.218C4.59235 25.359 3.99233 25.1105 3.54994 24.6681C3.10754 24.2257 2.859 23.6257 2.859 23V14.744ZM52.99 50C52.99 50.6257 52.7415 51.2257 52.2991 51.6681C51.8567 52.1105 51.2566 52.359 50.631 52.359H5.218C4.59235 52.359 3.99233 52.1105 3.54994 51.6681C3.10754 51.2257 2.859 50.6257 2.859 50V44.1C2.859 43.4744 3.10754 42.8743 3.54994 42.4319C3.99233 41.9895 4.59235 41.741 5.218 41.741H50.631C51.2566 41.741 51.8567 41.9895 52.2991 42.4319C52.7415 42.8743 52.99 43.4744 52.99 44.1V50ZM52.99 36.435C52.9908 36.7453 52.9304 37.0527 52.8122 37.3396C52.694 37.6265 52.5203 37.8873 52.3012 38.107C52.0821 38.3266 51.8217 38.5009 51.5351 38.6199C51.2485 38.7388 50.9413 38.8 50.631 38.8H5.218C4.59235 38.8 3.99233 38.5515 3.54994 38.1091C3.10754 37.6667 2.859 37.0667 2.859 36.441V30.541C2.859 29.9154 3.10754 29.3153 3.54994 28.8729C3.99233 28.4305 4.59235 28.182 5.218 28.182H50.631C51.2566 28.182 51.8567 28.4305 52.2991 28.8729C52.7415 29.3153 52.99 29.9154 52.99 30.541V36.435Z" fill="#2533CC"/>
<path d="M36.4768 4.74219H9.34781C9.02196 4.74219 8.75781 5.00634 8.75781 5.33219C8.75781 5.65804 9.02196 5.92219 9.34781 5.92219H36.4768C36.8027 5.92219 37.0668 5.65804 37.0668 5.33219C37.0668 5.00634 36.8027 4.74219 36.4768 4.74219Z" fill="#2533CC"/>
<path d="M46.5028 4.74219H40.0158C39.6899 4.74219 39.4258 5.00634 39.4258 5.33219C39.4258 5.65804 39.6899 5.92219 40.0158 5.92219H46.5028C46.8286 5.92219 47.0928 5.65804 47.0928 5.33219C47.0928 5.00634 46.8286 4.74219 46.5028 4.74219Z" fill="#2533CC"/>
<path d="M34.1172 33.2227H19.3732C19.0474 33.2227 18.7832 33.4868 18.7832 33.8127C18.7832 34.1385 19.0474 34.4027 19.3732 34.4027H34.1172C34.4431 34.4027 34.7072 34.1385 34.7072 33.8127C34.7072 33.4868 34.4431 33.2227 34.1172 33.2227Z" fill="#2533CC"/>
<path d="M6.98633 31.7488V35.8768C6.98633 36.2026 7.25048 36.4668 7.57633 36.4668C7.90218 36.4668 8.16633 36.2026 8.16633 35.8768V31.7488C8.16633 31.4229 7.90218 31.1588 7.57633 31.1588C7.25048 31.1588 6.98633 31.4229 6.98633 31.7488Z" fill="#2533CC"/>
<path d="M10.5254 31.7488V35.8768C10.5254 36.2026 10.7895 36.4668 11.1154 36.4668C11.4412 36.4668 11.7054 36.2026 11.7054 35.8768V31.7488C11.7054 31.4229 11.4412 31.1588 11.1154 31.1588C10.7895 31.1588 10.5254 31.4229 10.5254 31.7488Z" fill="#2533CC"/>
<path d="M14.0645 31.7488V35.8768C14.0645 36.2026 14.3286 36.4668 14.6545 36.4668C14.9803 36.4668 15.2445 36.2026 15.2445 35.8768V31.7488C15.2445 31.4229 14.9803 31.1588 14.6545 31.1588C14.3286 31.1588 14.0645 31.4229 14.0645 31.7488Z" fill="#2533CC"/>
<path d="M39.1302 35.2859C39.9443 35.2859 40.6042 34.626 40.6042 33.8119C40.6042 32.9978 39.9443 32.3379 39.1302 32.3379C38.3162 32.3379 37.6562 32.9978 37.6562 33.8119C37.6562 34.626 38.3162 35.2859 39.1302 35.2859Z" fill="#2533CC"/>
<path d="M43.2572 35.2859C44.0713 35.2859 44.7312 34.626 44.7312 33.8119C44.7312 32.9978 44.0713 32.3379 43.2572 32.3379C42.4431 32.3379 41.7832 32.9978 41.7832 33.8119C41.7832 34.626 42.4431 35.2859 43.2572 35.2859Z" fill="#2533CC"/>
<path d="M47.3861 35.2859C48.2002 35.2859 48.8601 34.626 48.8601 33.8119C48.8601 32.9978 48.2002 32.3379 47.3861 32.3379C46.572 32.3379 45.9121 32.9978 45.9121 33.8119C45.9121 34.626 46.572 35.2859 47.3861 35.2859Z" fill="#2533CC"/>
<path d="M34.1172 46.7871H19.3732C19.0474 46.7871 18.7832 47.0513 18.7832 47.3771C18.7832 47.703 19.0474 47.9671 19.3732 47.9671H34.1172C34.4431 47.9671 34.7072 47.703 34.7072 47.3771C34.7072 47.0513 34.4431 46.7871 34.1172 46.7871Z" fill="#2533CC"/>
<path d="M6.98633 45.3113V49.4393C6.98633 49.7651 7.25048 50.0293 7.57633 50.0293C7.90218 50.0293 8.16633 49.7651 8.16633 49.4393V45.3113C8.16633 44.9854 7.90218 44.7213 7.57633 44.7213C7.25048 44.7213 6.98633 44.9854 6.98633 45.3113Z" fill="#2533CC"/>
<path d="M10.5254 45.3113V49.4393C10.5254 49.7651 10.7895 50.0293 11.1154 50.0293C11.4412 50.0293 11.7054 49.7651 11.7054 49.4393V45.3113C11.7054 44.9854 11.4412 44.7213 11.1154 44.7213C10.7895 44.7213 10.5254 44.9854 10.5254 45.3113Z" fill="#2533CC"/>
<path d="M14.0645 45.3113V49.4393C14.0645 49.7651 14.3286 50.0293 14.6545 50.0293C14.9803 50.0293 15.2445 49.7651 15.2445 49.4393V45.3113C15.2445 44.9854 14.9803 44.7213 14.6545 44.7213C14.3286 44.7213 14.0645 44.9854 14.0645 45.3113Z" fill="#2533CC"/>
<path d="M39.1302 48.8503C39.9443 48.8503 40.6042 48.1904 40.6042 47.3763C40.6042 46.5623 39.9443 45.9023 39.1302 45.9023C38.3162 45.9023 37.6562 46.5623 37.6562 47.3763C37.6562 48.1904 38.3162 48.8503 39.1302 48.8503Z" fill="#2533CC"/>
<path d="M43.2572 48.8503C44.0713 48.8503 44.7312 48.1904 44.7312 47.3763C44.7312 46.5623 44.0713 45.9023 43.2572 45.9023C42.4431 45.9023 41.7832 46.5623 41.7832 47.3763C41.7832 48.1904 42.4431 48.8503 43.2572 48.8503Z" fill="#2533CC"/>
<path d="M47.3861 48.8503C48.2002 48.8503 48.8601 48.1904 48.8601 47.3763C48.8601 46.5623 48.2002 45.9023 47.3861 45.9023C46.572 45.9023 45.9121 46.5623 45.9121 47.3763C45.9121 48.1904 46.572 48.8503 47.3861 48.8503Z" fill="#2533CC"/>
<path d="M34.1172 19.6562H19.3732C19.0474 19.6562 18.7832 19.9204 18.7832 20.2462C18.7832 20.5721 19.0474 20.8362 19.3732 20.8362H34.1172C34.4431 20.8362 34.7072 20.5721 34.7072 20.2462C34.7072 19.9204 34.4431 19.6562 34.1172 19.6562Z" fill="#2533CC"/>
<path d="M6.98633 18.1824V22.3104C6.98633 22.6362 7.25048 22.9004 7.57633 22.9004C7.90218 22.9004 8.16633 22.6362 8.16633 22.3104V18.1824C8.16633 17.8565 7.90218 17.5924 7.57633 17.5924C7.25048 17.5924 6.98633 17.8565 6.98633 18.1824Z" fill="#2533CC"/>
<path d="M10.5254 18.1824V22.3104C10.5254 22.6362 10.7895 22.9004 11.1154 22.9004C11.4412 22.9004 11.7054 22.6362 11.7054 22.3104V18.1824C11.7054 17.8565 11.4412 17.5924 11.1154 17.5924C10.7895 17.5924 10.5254 17.8565 10.5254 18.1824Z" fill="#2533CC"/>
<path d="M14.0645 18.1824V22.3104C14.0645 22.6362 14.3286 22.9004 14.6545 22.9004C14.9803 22.9004 15.2445 22.6362 15.2445 22.3104V18.1824C15.2445 17.8565 14.9803 17.5924 14.6545 17.5924C14.3286 17.5924 14.0645 17.8565 14.0645 18.1824Z" fill="#2533CC"/>
<path d="M39.1302 21.7195C39.9443 21.7195 40.6042 21.0596 40.6042 20.2455C40.6042 19.4314 39.9443 18.7715 39.1302 18.7715C38.3162 18.7715 37.6562 19.4314 37.6562 20.2455C37.6562 21.0596 38.3162 21.7195 39.1302 21.7195Z" fill="#2533CC"/>
<path d="M43.2572 21.7195C44.0713 21.7195 44.7312 21.0596 44.7312 20.2455C44.7312 19.4314 44.0713 18.7715 43.2572 18.7715C42.4431 18.7715 41.7832 19.4314 41.7832 20.2455C41.7832 21.0596 42.4431 21.7195 43.2572 21.7195Z" fill="#2533CC"/>
<path d="M47.3861 21.7195C48.2002 21.7195 48.8601 21.0596 48.8601 20.2455C48.8601 19.4314 48.2002 18.7715 47.3861 18.7715C46.572 18.7715 45.9121 19.4314 45.9121 20.2455C45.9121 21.0596 46.572 21.7195 47.3861 21.7195Z" fill="#2533CC"/>
</svg>
