<svg width="45" height="36" viewBox="0 0 45 36" fill="none" xmlns="http://www.w3.org/2000/svg">
<path d="M38.1587 8.51943H6.67773L8.46573 3.15643C8.56792 2.85029 8.76399 2.58415 9.0261 2.39583C9.2882 2.20751 9.60299 2.10659 9.92573 2.10743H34.9077C35.2305 2.10659 35.5453 2.20751 35.8074 2.39583C36.0695 2.58415 36.2656 2.85029 36.3677 3.15643L38.1587 8.51943Z" fill="#E9EBEF"/>
<path d="M27.8892 3.63086H10.5372C10.3289 3.63086 10.1602 3.79965 10.1602 4.00786C10.1602 4.21607 10.3289 4.38486 10.5372 4.38486H27.8892C28.0974 4.38486 28.2662 4.21607 28.2662 4.00786C28.2662 3.79965 28.0974 3.63086 27.8892 3.63086Z" fill="#2533CC"/>
<path d="M34.3024 3.63086H30.1524C29.9442 3.63086 29.7754 3.79965 29.7754 4.00786C29.7754 4.21607 29.9442 4.38486 30.1524 4.38486H34.3024C34.5106 4.38486 34.6794 4.21607 34.6794 4.00786C34.6794 3.79965 34.5106 3.63086 34.3024 3.63086Z" fill="#2533CC"/>
<path d="M36.8789 23.1462C37.0871 23.1462 37.2932 23.1875 37.4853 23.2678C37.6774 23.348 37.8516 23.4656 37.998 23.6137C38.1443 23.7618 38.2597 23.9374 38.3377 24.1305C38.4156 24.3235 38.4544 24.5301 38.4519 24.7382V32.5122C38.4519 32.9294 38.2862 33.3295 37.9912 33.6245C37.6962 33.9195 37.2961 34.0853 36.8789 34.0853H7.96091C7.54372 34.0853 7.14362 33.9195 6.84863 33.6245C6.55363 33.3295 6.38791 32.9294 6.38791 32.5122V24.7382C6.38791 24.3211 6.55363 23.921 6.84863 23.626C7.14362 23.331 7.54372 23.1652 7.96091 23.1652H36.8789V23.1462ZM36.8789 21.6562H7.96091C7.14351 21.6562 6.35959 21.981 5.7816 22.5589C5.20362 23.1369 4.87891 23.9208 4.87891 24.7382L4.87891 32.5122C4.87891 33.3296 5.20362 34.1136 5.7816 34.6916C6.35959 35.2695 7.14351 35.5942 7.96091 35.5942H36.8789C37.6963 35.5942 38.4802 35.2695 39.0582 34.6916C39.6362 34.1136 39.9609 33.3296 39.9609 32.5122V24.7382C39.9609 23.9208 39.6362 23.1369 39.0582 22.5589C38.4802 21.981 37.6963 21.6562 36.8789 21.6562Z" fill="#2533CC"/>
<path d="M26.3803 28.1484H16.9493C16.7411 28.1484 16.5723 28.3172 16.5723 28.5254C16.5723 28.7336 16.7411 28.9024 16.9493 28.9024H26.3803C26.5885 28.9024 26.7573 28.7336 26.7573 28.5254C26.7573 28.3172 26.5885 28.1484 26.3803 28.1484Z" fill="#2533CC"/>
<path d="M9.02734 27.3941V30.0351C9.02734 30.2433 9.19613 30.4121 9.40434 30.4121C9.61256 30.4121 9.78134 30.2433 9.78134 30.0351V27.3941C9.78134 27.1859 9.61256 27.0171 9.40434 27.0171C9.19613 27.0171 9.02734 27.1859 9.02734 27.3941Z" fill="#2533CC"/>
<path d="M11.291 27.3941V30.0351C11.291 30.2433 11.4598 30.4121 11.668 30.4121C11.8762 30.4121 12.045 30.2433 12.045 30.0351V27.3941C12.045 27.1859 11.8762 27.0171 11.668 27.0171C11.4598 27.0171 11.291 27.1859 11.291 27.3941Z" fill="#2533CC"/>
<path d="M13.5547 27.3941V30.0351C13.5547 30.2433 13.7235 30.4121 13.9317 30.4121C14.1399 30.4121 14.3087 30.2433 14.3087 30.0351V27.3941C14.3087 27.1859 14.1399 27.0171 13.9317 27.0171C13.7235 27.0171 13.5547 27.1859 13.5547 27.3941Z" fill="#2533CC"/>
<path d="M29.5856 29.6575C30.1064 29.6575 30.5286 29.2353 30.5286 28.7145C30.5286 28.1937 30.1064 27.7715 29.5856 27.7715C29.0648 27.7715 28.6426 28.1937 28.6426 28.7145C28.6426 29.2353 29.0648 29.6575 29.5856 29.6575Z" fill="#2533CC"/>
<path d="M32.2262 29.6575C32.747 29.6575 33.1692 29.2353 33.1692 28.7145C33.1692 28.1937 32.747 27.7715 32.2262 27.7715C31.7054 27.7715 31.2832 28.1937 31.2832 28.7145C31.2832 29.2353 31.7054 29.6575 32.2262 29.6575Z" fill="#2533CC"/>
<path d="M34.8668 29.6575C35.3876 29.6575 35.8098 29.2353 35.8098 28.7145C35.8098 28.1937 35.3876 27.7715 34.8668 27.7715C34.346 27.7715 33.9238 28.1937 33.9238 28.7145C33.9238 29.2353 34.346 29.6575 34.8668 29.6575Z" fill="#2533CC"/>
<path d="M37.7899 2.59766C37.5964 2.01467 37.2239 1.50757 36.7255 1.14849C36.2271 0.789421 35.6282 0.596668 35.0139 0.597661H9.92591C9.28709 0.596563 8.66416 0.796733 8.14557 1.16975C7.62697 1.54277 7.23906 2.06967 7.03691 2.67566L4.87891 8.89766V19.4087C4.88287 20.2235 5.20933 21.0035 5.78689 21.5783C6.36445 22.153 7.1461 22.4757 7.96091 22.4757H36.8789C37.6937 22.4757 38.4754 22.153 39.0529 21.5783C39.6305 21.0035 39.9569 20.2235 39.9609 19.4087V8.89766L37.7899 2.59766ZM8.46591 3.15466C8.56809 2.84852 8.76417 2.58238 9.02627 2.39406C9.28837 2.20574 9.60317 2.10483 9.92591 2.10566H34.9119C35.2346 2.10483 35.5494 2.20574 35.8115 2.39406C36.0736 2.58238 36.2697 2.84852 36.3719 3.15466L38.1599 8.51866H6.67891L8.46591 3.15466ZM38.4499 19.4087C38.446 19.8229 38.2788 20.2188 37.9846 20.5106C37.6905 20.8023 37.2932 20.9662 36.8789 20.9667H7.96091C7.54631 20.9667 7.14846 20.803 6.8539 20.5113C6.55933 20.2195 6.39186 19.8232 6.38791 19.4087V10.0277H38.4499V19.4087Z" fill="#2533CC"/>
<path d="M26.3803 14.9473H16.9493C16.7411 14.9473 16.5723 15.1161 16.5723 15.3243C16.5723 15.5325 16.7411 15.7013 16.9493 15.7013H26.3803C26.5885 15.7013 26.7573 15.5325 26.7573 15.3243C26.7573 15.1161 26.5885 14.9473 26.3803 14.9473Z" fill="#2533CC"/>
<path d="M9.02734 14.191V16.832C9.02734 17.0402 9.19613 17.209 9.40434 17.209C9.61256 17.209 9.78134 17.0402 9.78134 16.832V14.191C9.78134 13.9828 9.61256 13.814 9.40434 13.814C9.19613 13.814 9.02734 13.9828 9.02734 14.191Z" fill="#2533CC"/>
<path d="M11.291 14.191V16.832C11.291 17.0402 11.4598 17.209 11.668 17.209C11.8762 17.209 12.045 17.0402 12.045 16.832V14.191C12.045 13.9828 11.8762 13.814 11.668 13.814C11.4598 13.814 11.291 13.9828 11.291 14.191Z" fill="#2533CC"/>
<path d="M13.5547 14.191V16.832C13.5547 17.0402 13.7235 17.209 13.9317 17.209C14.1399 17.209 14.3087 17.0402 14.3087 16.832V14.191C14.3087 13.9828 14.1399 13.814 13.9317 13.814C13.7235 13.814 13.5547 13.9828 13.5547 14.191Z" fill="#2533CC"/>
<path d="M29.5856 16.4563C30.1064 16.4563 30.5286 16.0341 30.5286 15.5133C30.5286 14.9925 30.1064 14.5703 29.5856 14.5703C29.0648 14.5703 28.6426 14.9925 28.6426 15.5133C28.6426 16.0341 29.0648 16.4563 29.5856 16.4563Z" fill="#2533CC"/>
<path d="M32.2262 16.4563C32.747 16.4563 33.1692 16.0341 33.1692 15.5133C33.1692 14.9925 32.747 14.5703 32.2262 14.5703C31.7054 14.5703 31.2832 14.9925 31.2832 15.5133C31.2832 16.0341 31.7054 16.4563 32.2262 16.4563Z" fill="#2533CC"/>
<path d="M34.8668 16.4563C35.3876 16.4563 35.8098 16.0341 35.8098 15.5133C35.8098 14.9925 35.3876 14.5703 34.8668 14.5703C34.346 14.5703 33.9238 14.9925 33.9238 15.5133C33.9238 16.0341 34.346 16.4563 34.8668 16.4563Z" fill="#2533CC"/>
</svg>
