<svg width="56" height="55" viewBox="0 0 56 55" fill="none" xmlns="http://www.w3.org/2000/svg">
<path d="M50.5 0H5.5C2.73858 0 0.5 2.23858 0.5 5V50C0.5 52.7614 2.73858 55 5.5 55H50.5C53.2614 55 55.5 52.7614 55.5 50V5C55.5 2.23858 53.2614 0 50.5 0Z" fill="white"/>
<path d="M50.5008 1.17578H5.50078C3.38829 1.17578 1.67578 2.88829 1.67578 5.00078V50.0008C1.67578 52.1133 3.38829 53.8258 5.50078 53.8258H50.5008C52.6133 53.8258 54.3258 52.1133 54.3258 50.0008V5.00078C54.3258 2.88829 52.6133 1.17578 50.5008 1.17578Z" stroke="#2533CC" stroke-width="2.35"/>
<path d="M10.1973 35.5H44.7383" stroke="#2533CC" stroke-width="2.35" stroke-linecap="round"/>
<path d="M16.3691 40.5H44.7381" stroke="#2533CC" stroke-width="2.35" stroke-linecap="round"/>
<path d="M11.457 45.5H44.674" stroke="#2533CC" stroke-width="2.35" stroke-linecap="round"/>
<path d="M53.5 6H2.5C1.39543 6 0.5 6.89543 0.5 8V27C0.5 28.1046 1.39543 29 2.5 29H53.5C54.6046 29 55.5 28.1046 55.5 27V8C55.5 6.89543 54.6046 6 53.5 6Z" fill="#E9EBEF"/>
<path d="M53.5008 7.17578H2.50078C2.04515 7.17578 1.67578 7.54515 1.67578 8.00078V27.0008C1.67578 27.4564 2.04515 27.8258 2.50078 27.8258H53.5008C53.9564 27.8258 54.3258 27.4564 54.3258 27.0008V8.00078C54.3258 7.54515 53.9564 7.17578 53.5008 7.17578Z" stroke="#2533CC" stroke-width="2.35"/>
</svg>
